<?xml version="1.0" encoding="iso-8859-1"?>
<!DOCTYPE svg PUBLIC "-//W3C//DTD SVG 1.0//EN"
	        "http://www.w3.org/TR/2001/REC-SVG-20010904/DTD/svg10.dtd">
<svg width="100%" height="100%" preserveAspectRatio="none" viewBox="34 -80 504 600" id="id0" xmlns="http://www.w3.org/2000/svg" xmlns:xlink="http://www.w3.org/1999/xlink" >
<g >
<defs >
<radialGradient id="DegTete" spreadMethod="repeat" gradientUnits="objectBoundingBox" cx="50%" cy="50%" r="50%" fx="50%" fy="50%" >
<stop offset="0.1" stop-color="rgb(150,243,101)" />
<stop offset="0.10" stop-color="rgb(157,192,183)" />
<stop offset="0.10" stop-color="rgb(81,93,40)" />
<stop offset="0.153" stop-color="rgb(244,225,53)" />
<stop offset="0.186" stop-color="rgb(158,50,159)" />
<stop offset="0.38" stop-color="rgb(94,79,5)" />
<stop offset="0.4" stop-color="rgb(112,124,233)" />
<stop offset="0.5" stop-color="rgb(186,193,222)" />
<stop offset="0.590" stop-color="rgb(208,149,101)" />
<stop offset="3" stop-color="rgb(72,236,27)" />

</radialGradient>
</defs>
<defs >
<radialGradient id="DegCorps" spreadMethod="repeat" gradientUnits="objectBoundingBox" cx="50%" cy="50%" r="50%" fx="50%" fy="50%" >
<stop offset="-2" stop-color="rgb(238,211,157)" />
<stop offset="0.1" stop-color="rgb(96,197,216)" />
<stop offset="0.1" stop-color="rgb(198,6,131)" />
<stop offset="0.1" stop-color="rgb(138,129,79)" />
<stop offset="0.246" stop-color="rgb(127,97,116)" />
<stop offset="0.3" stop-color="rgb(232,78,49)" />
<stop offset="0.39" stop-color="rgb(225,247,251)" />
<stop offset="0.41" stop-color="rgb(143,29,24)" />
<stop offset="0.60" stop-color="rgb(186,12,232)" />
<stop offset="0.610" stop-color="rgb(182,209,87)" />

<animate attributeName="fx" attributeType="XML" repeatCount="indefinite" from="7" to="157" begin="0s" dur="75s" fill="freeze" />
<animate attributeName="fy" attributeType="XML" repeatCount="indefinite" from="2" to="120" begin="0s" dur="139s" fill="freeze" />
<animateTransform attributeName="gradientTransform" attributeType="XML" repeatCount="indefinite" from="-100" type="rotate" additive="replace" to="100" begin="2s" dur="233s" fill="freeze" />
<animateTransform attributeName="gradientTransform" attributeType="XML" repeatCount="indefinite" from="-100" type="translate" additive="replace" to="100" begin="8s" dur="74s" fill="freeze" />
</radialGradient>
</defs>
<defs >
<radialGradient id="DegQueue" spreadMethod="repeat" gradientUnits="objectBoundingBox" cx="50%" cy="50%" r="50%" fx="50%" fy="50%" >
<stop offset="0" stop-color="rgb(41,143,104)" />
<stop offset="0.1" stop-color="rgb(77,98,122)" />
<stop offset="0.1" stop-color="rgb(4,228,223)" />
<stop offset="0.2" stop-color="rgb(78,31,242)" />
<stop offset="0.240" stop-color="rgb(160,160,136)" />
<stop offset="0.24" stop-color="rgb(109,54,242)" />
<stop offset="0.31" stop-color="rgb(75,182,57)" />
<stop offset="0.5" stop-color="rgb(89,73,181)" />
<stop offset="0.55" stop-color="rgb(155,236,62)" />
<stop offset="0.641" stop-color="rgb(210,94,34)" />

<animate attributeName="fx" attributeType="XML" repeatCount="indefinite" from="186" to="166" begin="8s" dur="230s" fill="freeze" />
<animate attributeName="fy" attributeType="XML" repeatCount="indefinite" from="166" to="127" begin="8s" dur="182s" fill="freeze" />
<animateTransform attributeName="gradientTransform" attributeType="XML" repeatCount="indefinite" from="-100" type="rotate" additive="replace" to="100" begin="2s" dur="211s" fill="freeze" />
<animateTransform attributeName="gradientTransform" attributeType="XML" repeatCount="indefinite" from="-100" type="translate" additive="replace" to="100" begin="0s" dur="164s" fill="freeze" />
</radialGradient>
</defs>
<defs >
<radialGradient id="DegAile" spreadMethod="repeat" gradientUnits="objectBoundingBox" cx="50%" cy="50%" r="50%" fx="50%" fy="50%" >
<stop offset="-2" stop-color="rgb(19,40,78)" />
<stop offset="0.1" stop-color="rgb(185,33,163)" />
<stop offset="0.1" stop-color="rgb(54,76,35)" />
<stop offset="0.10" stop-color="rgb(151,81,168)" />
<stop offset="0.160" stop-color="rgb(179,115,33)" />
<stop offset="0.22" stop-color="rgb(96,130,88)" />
<stop offset="0.323" stop-color="rgb(43,86,191)" />
<stop offset="0.398" stop-color="rgb(27,101,250)" />
<stop offset="0.42" stop-color="rgb(163,140,70)" />
<stop offset="0.45" stop-color="rgb(191,146,15)" />

<animate attributeName="fx" attributeType="XML" repeatCount="indefinite" from="4" to="204" begin="2s" dur="33s" fill="freeze" />
<animate attributeName="fy" attributeType="XML" repeatCount="indefinite" from="44" to="55" begin="10s" dur="99s" fill="freeze" />
<animateTransform attributeName="gradientTransform" attributeType="XML" repeatCount="indefinite" from="-100" type="rotate" additive="replace" to="100" begin="5s" dur="222s" fill="freeze" />
<animateTransform attributeName="gradientTransform" attributeType="XML" repeatCount="indefinite" from="-100" type="translate" additive="replace" to="100" begin="10s" dur="2s" fill="freeze" />
</radialGradient>
</defs>
</g>
<g >
<path d="M408.929 201.27 
	C470.112 182.913 531.295 164.557 528.055 147.279 
	C524.457 130.002 415.767 87.53 388.055 97.249 
	C359.983 106.967 360.702 156.278 361.062 205.229" fill="url(#DegAile)" style="stroke-width:3" />
<path d="M437.001 218.187 
		C465.073 231.864 492.786 245.182 507.901 233.304 
		C523.017 221.426 544.611 152.679 528.055 147.279 
		C511.5 141.88 460.394 171.755 408.929 201.27" fill="url(#DegAile)" style="stroke-width:3" />
<path d="M397.052 257.42 C428.723 251.301 460.394 245.182 479.109 241.223 C497.464 237.264
			515.099 237.264 507.901 233.305 C501.063 229.346 469.032 223.947 437.001 218.188" fill="url(#DegAile)" style="stroke-width:3" />
<path d="M303.118 284.775 C357.103 296.293 411.448 307.451 440.96 300.252 C470.472 293.054
			486.308 248.421 479.109 241.223 C471.551 234.384 434.122 245.902 397.052 257.42" fill="url(#DegAile)" style="stroke-width:3" />
<path d="M303.118 284.775 C316.434 283.695 374.738 268.578 397.052 257.42 C419.366 246.262
			434.842 227.545 437.001 218.187 C438.801 208.829 421.525 203.43 408.929 201.27
			C396.332 199.11 376.178 194.791 361.062 205.229 C345.586 215.667 326.512 252.021
			317.154 264.259 C307.437 276.497 289.802 285.854 303.118 284.775 z" fill="url(#DegAile)" style="stroke-width:3" />
<path d="M326.152 290.174 C367.901 295.933 410.009 301.693 429.083 303.132 C448.158 304.932
			461.834 303.852 440.96 300.252 C420.086 297.013 361.422 289.814 303.118 282.976" fill="url(#DegAile)" style="stroke-width:3" />
<path d="M339.108 302.412 C407.849 331.207 476.95 360.002 492.066 360.361 C506.822 360.361
			456.795 315.009 429.083 303.132 C401.371 291.614 363.582 290.894 326.152 290.174" fill="url(#DegAile)" style="stroke-width:3" />
<path d="M383.016 338.405 C407.849 367.92 432.683 397.795 451.037 401.394 C469.032 404.993
			510.421 376.918 492.066 360.361 C473.351 343.804 406.049 322.927 339.108 302.412" fill="url(#DegAile)" style="stroke-width:3" />
<path d="M374.019 368.28 C392.014 402.114 410.009 435.948 422.965 441.346 C435.922 446.745
			457.516 418.311 451.037 401.394 C444.199 384.117 413.608 361.441 383.016 338.405" fill="url(#DegAile)" style="stroke-width:3" />
<path d="M357.104 390.236 C355.664 421.91 354.225 453.944 365.021 462.223 C376.178 470.861
			421.525 456.824 422.965 441.346 C424.404 425.509 399.212 397.075 374.019 368.28" fill="url(#DegAile)" style="stroke-width:3" />
<path d="M303.118 288.015 C314.635 353.163 326.152 418.312 331.91 447.466 C338.029 476.261
			339.468 460.064 338.029 462.224 C336.589 464.744 319.674 461.144 323.993 461.144
			C328.672 461.144 359.623 474.102 365.021 462.224 C370.419 450.346 363.941
			420.471 357.104 390.237" fill="url(#DegAile)" style="stroke-width:3" />
<path d="M303.118 287.654 C308.157 304.571 345.226 376.919 357.103 390.236 C368.98 403.554
			369.7 376.919 374.019 368.28 C378.338 359.641 388.775 349.203 383.017 338.405
			C377.259 327.247 348.467 310.33 339.109 302.412 C329.392 294.134 331.911 293.413
			326.152 290.174 C320.034 286.935 298.08 271.098 303.118 287.654 z" fill="url(#DegAile)" style="stroke-width:3" />
</g>
<g transform="matrix(-1 0 0 1 575 0)" >
<path d="M408.929 201.27 
	C470.112 182.913 531.295 164.557 528.055 147.279 
	C524.457 130.002 415.767 87.53 388.055 97.249 
	C359.983 106.967 360.702 156.278 361.062 205.229" fill="url(#DegAile)" style="stroke-width:3" />
<path d="M437.001 218.187 
		C465.073 231.864 492.786 245.182 507.901 233.304 
		C523.017 221.426 544.611 152.679 528.055 147.279 
		C511.5 141.88 460.394 171.755 408.929 201.27" fill="url(#DegAile)" style="stroke-width:3" />
<path d="M397.052 257.42 C428.723 251.301 460.394 245.182 479.109 241.223 C497.464 237.264
			515.099 237.264 507.901 233.305 C501.063 229.346 469.032 223.947 437.001 218.188" fill="url(#DegAile)" style="stroke-width:3" />
<path d="M303.118 284.775 C357.103 296.293 411.448 307.451 440.96 300.252 C470.472 293.054
			486.308 248.421 479.109 241.223 C471.551 234.384 434.122 245.902 397.052 257.42" fill="url(#DegAile)" style="stroke-width:3" />
<path d="M303.118 284.775 C316.434 283.695 374.738 268.578 397.052 257.42 C419.366 246.262
			434.842 227.545 437.001 218.187 C438.801 208.829 421.525 203.43 408.929 201.27
			C396.332 199.11 376.178 194.791 361.062 205.229 C345.586 215.667 326.512 252.021
			317.154 264.259 C307.437 276.497 289.802 285.854 303.118 284.775 z" fill="url(#DegAile)" style="stroke-width:3" />
<path d="M326.152 290.174 C367.901 295.933 410.009 301.693 429.083 303.132 C448.158 304.932
			461.834 303.852 440.96 300.252 C420.086 297.013 361.422 289.814 303.118 282.976" fill="url(#DegAile)" style="stroke-width:3" />
<path d="M339.108 302.412 C407.849 331.207 476.95 360.002 492.066 360.361 C506.822 360.361
			456.795 315.009 429.083 303.132 C401.371 291.614 363.582 290.894 326.152 290.174" fill="url(#DegAile)" style="stroke-width:3" />
<path d="M383.016 338.405 C407.849 367.92 432.683 397.795 451.037 401.394 C469.032 404.993
			510.421 376.918 492.066 360.361 C473.351 343.804 406.049 322.927 339.108 302.412" fill="url(#DegAile)" style="stroke-width:3" />
<path d="M374.019 368.28 C392.014 402.114 410.009 435.948 422.965 441.346 C435.922 446.745
			457.516 418.311 451.037 401.394 C444.199 384.117 413.608 361.441 383.016 338.405" fill="url(#DegAile)" style="stroke-width:3" />
<path d="M357.104 390.236 C355.664 421.91 354.225 453.944 365.021 462.223 C376.178 470.861
			421.525 456.824 422.965 441.346 C424.404 425.509 399.212 397.075 374.019 368.28" fill="url(#DegAile)" style="stroke-width:3" />
<path d="M303.118 288.015 C314.635 353.163 326.152 418.312 331.91 447.466 C338.029 476.261
			339.468 460.064 338.029 462.224 C336.589 464.744 319.674 461.144 323.993 461.144
			C328.672 461.144 359.623 474.102 365.021 462.224 C370.419 450.346 363.941
			420.471 357.104 390.237" fill="url(#DegAile)" style="stroke-width:3" />
<path d="M303.118 287.654 C308.157 304.571 345.226 376.919 357.103 390.236 C368.98 403.554
			369.7 376.919 374.019 368.28 C378.338 359.641 388.775 349.203 383.017 338.405
			C377.259 327.247 348.467 310.33 339.109 302.412 C329.392 294.134 331.911 293.413
			326.152 290.174 C320.034 286.935 298.08 271.098 303.118 287.654 z" fill="url(#DegAile)" style="stroke-width:3" />
</g>
<g >
<ellipse cx="287.5" cy="414" rx="24" ry="75" fill="url(#DegQueue)" style="stroke-width:3" />
</g>
<g >
<ellipse cx="287.5" cy="333" rx="59" ry="83" fill="url(#DegCorps)" style="stroke-width:3" />
</g>
<g >
<ellipse cx="287.5" cy="247" rx="22" ry="16" fill="url(#DegTete)" style="stroke-width:3" />
</g>
<g >
<path d="M 302 253 Q372 255 237 187 T287 236 " fill="none" stroke="rgb(50,218,53)" style="stroke-width:3" />
</g>
<g transform="matrix(-1 0 0 1 575 0)" >
<path d="M 302 253 Q372 255 237 187 T287 236 " fill="none" stroke="rgb(50,218,53)" style="stroke-width:3" />
</g>
</svg>
