<?xml version="1.0" encoding="UTF-8" standalone="no"?>
<!-- Created with Inkscape (http://www.inkscape.org/) -->
<svg
   xmlns:dc="http://purl.org/dc/elements/1.1/"
   xmlns:cc="http://web.resource.org/cc/"
   xmlns:rdf="http://www.w3.org/1999/02/22-rdf-syntax-ns#"
   xmlns:svg="http://www.w3.org/2000/svg"
   xmlns="http://www.w3.org/2000/svg"
   xmlns:sodipodi="http://sodipodi.sourceforge.net/DTD/sodipodi-0.dtd"
   xmlns:inkscape="http://www.inkscape.org/namespaces/inkscape"
   version="1.0"
   width="600"
   height="475.94189"
   id="svg2182"
   sodipodi:version="0.32"
   inkscape:version="0.45.1"
   sodipodi:docname="Logo_BnF.svg"
   sodipodi:docbase="/home/charles/Bureau"
   inkscape:output_extension="org.inkscape.output.svg.inkscape">
  <metadata
     id="metadata12">
    <rdf:RDF>
      <cc:Work
         rdf:about="">
        <dc:format>image/svg+xml</dc:format>
        <dc:type
           rdf:resource="http://purl.org/dc/dcmitype/StillImage" />
      </cc:Work>
    </rdf:RDF>
  </metadata>
  <sodipodi:namedview
     inkscape:window-height="738"
     inkscape:window-width="1272"
     inkscape:pageshadow="2"
     inkscape:pageopacity="0.0"
     guidetolerance="10.0"
     gridtolerance="10.0"
     objecttolerance="10.0"
     borderopacity="1.0"
     bordercolor="#666666"
     pagecolor="#ffffff"
     id="base"
     inkscape:zoom="0.28321935"
     inkscape:cx="35.974998"
     inkscape:cy="29.57"
     inkscape:window-x="0"
     inkscape:window-y="31"
     inkscape:current-layer="svg2182" />
  <defs
     id="defs2184" />
  <g
     transform="matrix(8.7511664,0,0,8.7511664,4056.0648,-487.27527)"
     id="layer1">
    <g
       transform="translate(4.9999985,4.9994997)"
       id="g3175">
      <g
         id="g3170">
        <path
           d="M -440.13271,69.73397 C -436.34771,69.73397 -435.09471,71.70497 -435.09471,73.76597 C -435.09471,75.09797 -435.64171,77.13397 -439.37871,77.54697 L -439.37871,77.59497 C -436.05471,77.93497 -433.92871,79.26697 -433.94371,81.88997 C -433.95371,83.66097 -435.54471,86.28297 -440.08271,86.28297 L -447.71571,86.28297 L -447.71571,85.57997 C -445.71671,85.60597 -445.97871,84.85097 -445.97871,83.41997 L -445.97871,72.45197 C -445.97871,71.16597 -445.83771,70.42597 -447.71571,70.43697 L -447.71571,69.73397 L -440.13271,69.73397 M -441.39271,77.25597 C -438.40771,77.25597 -437.13571,75.94597 -437.13571,74.02897 C -437.13571,71.86497 -438.28871,70.42497 -440.95571,70.43697 L -443.72271,70.43697 L -443.72271,77.25497 L -441.39271,77.25497 L -441.39271,77.25597 z M -443.72271,83.85697 C -443.72271,85.11897 -443.06671,85.57997 -441.31971,85.57997 L -440.05871,85.57997 C -437.89871,85.57997 -436.45271,84.22097 -436.45271,81.96397 C -436.45271,79.31897 -438.40971,77.97597 -441.80471,77.95997 L -443.72271,77.95997 L -443.72271,83.85697 L -443.72271,83.85697 z "
           style="fill:#231f20"
           id="path13" />
        <path
           d="M -428.10471,74.17997 L -428.10471,76.36997 C -427.05871,75.04297 -425.39671,74.13997 -423.35671,74.13997 C -421.51171,74.13997 -420.12871,75.20497 -420.12871,77.65997 L -420.12871,83.66097 C -420.12871,85.18997 -420.04871,85.65097 -418.64171,85.65097 L -418.64171,86.28197 L -423.53271,86.28197 L -423.53271,85.65097 C -421.95471,85.67397 -422.02171,85.11697 -422.02171,83.56297 L -422.02171,77.97097 C -422.02171,76.12997 -422.75271,75.36997 -424.08771,75.36997 C -426.06971,75.36997 -428.10471,76.65097 -428.10471,78.50297 L -428.10471,83.51397 C -428.10471,85.06797 -428.27671,85.69897 -426.50671,85.65097 L -426.50671,86.28197 L -431.42971,86.28197 L -431.42971,85.65097 C -430.04571,85.62597 -429.98471,85.30997 -429.99071,83.53897 C -429.99671,81.94397 -430.00171,77.32397 -430.00171,76.95297 C -430.00171,76.26397 -430.15571,75.96397 -430.45471,75.82397 C -430.70471,75.70697 -431.33271,75.68997 -431.33271,75.68997 L -431.33271,75.27197 L -428.10471,74.17997"
           style="fill:#231f20"
           id="path15" />
        <path
           d="M -406.02971,79.95297 L -406.60971,79.95297 C -406.84071,77.92997 -407.57971,77.76497 -409.78771,77.76497 L -412.43871,77.76497 L -412.43871,83.49297 C -412.43871,85.04597 -412.78971,85.67697 -410.33771,85.57997 L -410.33771,86.28297 L -416.61771,86.28297 L -416.61771,85.57997 C -414.53971,85.71597 -414.61071,85.06997 -414.61071,83.46797 L -414.61071,72.52597 C -414.61071,71.06997 -414.47371,70.28397 -416.66271,70.43797 L -416.66271,69.73497 L -403.31071,69.73497 L -403.31071,73.11497 L -404.01471,73.11497 C -404.50071,71.07697 -404.71571,70.43797 -407.88071,70.43797 L -412.43871,70.43797 L -412.43871,77.06297 L -409.54471,77.06297 C -407.26371,77.06297 -406.77971,76.79397 -406.60971,75.21697 L -406.02971,75.21697 L -406.02971,79.95297"
           style="fill:#231f20"
           id="path17" />
      </g>
      <path
         d="M -457.14371,81.71497 C -457.18271,81.43297 -457.31771,81.17997 -457.55271,80.93297 L -457.55171,80.93197 L -457.60071,80.88297 L -457.60171,80.88497 L -460.63771,78.07597 L -457.55771,75.22597 C -457.31971,74.98897 -457.19171,74.72197 -457.19171,74.47297 C -456.99071,71.25397 -456.51771,63.68197 -453.30871,53.80597 L -453.21171,53.50597 L -458.10371,53.50597 C -458.57971,53.50597 -458.83171,53.87997 -458.90571,54.10097 C -458.94271,54.20297 -462.79071,64.90697 -463.05271,76.07297 L -465.07271,77.90597 L -465.26071,78.07597 L -465.07271,78.24597 L -463.05271,80.07897 C -462.79071,91.24497 -458.94271,101.94897 -458.90371,102.05697 C -458.83171,102.27297 -458.57971,102.64697 -458.10371,102.64697 L -453.21171,102.64697 L -453.30871,102.34497 C -456.27171,93.22497 -456.91671,86.20397 -457.14371,81.71497"
         style="fill:#231f20"
         id="path19" />
    </g>
  </g>
</svg>
