<?xml version="1.0" encoding="utf-8"?>
<!-- Generator: Adobe Illustrator 24.0.2, SVG Export Plug-In . SVG Version: 6.00 Build 0)  -->
<svg version="1.1" id="Layer_1" xmlns="http://www.w3.org/2000/svg" xmlns:xlink="http://www.w3.org/1999/xlink" x="0px" y="0px"
	 viewBox="0 0 180 180" style="enable-background:new 0 0 180 180;" xml:space="preserve">
<style type="text/css">
	.st0{fill:#295482;}
	.st1{fill:#CED1DE;}
</style>
<g>
	<path class="st0" d="M100.5,168.2c-1.2,1.5-2.3,3.1-4,4c-0.3,0.2-0.5,0.2-0.8,0.2c-2.2,0.2-4.3-0.3-6.4-0.3c-0.7,0-1.3,0.1-1.9,0.5
		c-1,0.8-2.1,0.6-3.2,0.2c-1.7-0.7-3.1-2-4.8-2.6c-0.1,0-0.3-0.3-0.3-0.5c-0.2-2.6-1.2-5.1-0.8-7.8c0.1-0.7,0.3-1.3,0.5-2
		c0.1-0.2,0.2-0.5,0.1-0.6c-0.2-0.2-0.5-0.1-0.8-0.1c-0.8,0.2-1.2,0.7-1.5,1.5c-1.6,4.9-1,9.4,1.9,13.6c0.3,0.4,0.5,0.8,0.9,1.4
		c-1.4-0.5-2.6-0.9-3.8-1.3c-0.8-0.3-1.2-0.2-1.6,0.6c-0.3,0.5-0.2,1.7-1,1.6c-0.7-0.1-0.7-1.2-0.9-1.8c-1.1-3.1-1.5-6.3-1.4-9.7
		c-1.4,3.3-4.5,3.3-7.1,3.9c-3.3,0.8-6.8,1-9.9,2.5c-0.4,0.2-0.7,0.1-0.9-0.2c-0.4-0.4,0-0.7,0.2-0.9c0.9-1,2-1.7,3.1-2.5
		c0.8-0.5,1.8-1,2.5-1.7c1.9-2.1,4.3-3,6.9-3.7c0.7-0.2,1.3-0.5,2-1.1c-1.1-0.2-2.1,0.2-3,0.3c-1,0.1-2.1,0.1-3.1,0.4
		c-1.4,0.3-1.5,0-1.2-1.4c0.3-1.1,0.9-2.1,1.6-3.2c-3.2,0.6-6.1,0.6-9.1,0c-0.2,0-0.4-0.1-0.5-0.2c-0.2-0.3,0.1-0.4,0.3-0.6
		c1.7-1.5,2.9-3.4,4.4-5c0.5-0.6,1.1-1.1,1.8-1.7c-1.4-0.6-2.8-0.7-4.1-0.4c-0.7,0.2-1,0.7-1.3,1.3c-0.5,1.1-0.7,2.2-0.9,3.3
		c-0.4,1.4-1,2.6-2.7,2.8c-0.5,0-0.7,0.4-0.9,0.7c-1.9,1.9-4.2,3.1-6.9,3.7c-0.7,0.1-0.8-0.1-0.8-0.7c-0.1-1.4,0.5-2.8,0.3-4.4
		c-1.4,1.1-2.5,2.2-4,3c-1.6,0.9-3.2,1.5-5.1,1.4c-2.1-0.1-4.3,0-6.7,0c1.6-1.3,3-2.5,4-3.9c0.6-0.9,1.2-1.8,1.7-2.8
		c0.1-0.3,0.4-0.6,0.1-0.9c-0.9-0.9,0-1.1,0.6-1.5c1.3-0.7,2.2-1.8,3.5-2.9c-3.7-0.2-6.5-2.1-9-4.4c-0.3-0.2-0.7-0.4-0.6-0.8
		c0.1-0.4,0.6-0.2,0.8-0.3c3-0.5,5.9-1.5,9-1.9c1.3-0.2,2.5,0,3.7,0.5c0.5,0.2,1,0.4,1.5,0.2c-1.3-1.3-2.6-2.7-3.9-4
		c-0.5-0.5-1.1-0.8-1.8-0.8c-0.7,0-1.5-0.2-1.3,1.1c0.2,1.2-1.3,2.5-2.6,2.4c-0.6,0-0.9-0.3-1-0.9c-0.3-2.3-0.3-2.3-2.5-1.8
		c-1.6,0.3-3.1,0.6-4.6-0.6c-0.4-0.3-0.9,0-1.4-0.1c-2.2-0.2-4.1-1-5.8-2.2c-2.5-1.8-4.7-4.1-7.5-5.9c1.1-0.5,2.1-0.6,3-0.6
		c1.2-0.1,2.5-0.3,3.7-0.5c0.7-0.1,0.7-0.4,0.4-0.9c-0.8-1.7-0.8-1.7,1.1-1.7c0.8,0,1.5-0.1,2.3-0.1c1.1-0.1,2,0,3,0.8
		c1.3,1.1,2.9,1.6,4.4,2.3c2.7,1.1,5.2,2.4,6.6,5.2c0.3,0.7,1,1,1.9,1.1c-2.3-5.1-5.1-10-8.9-14.2c-0.1,1.6-0.4,2.9-2.1,3.2
		c-1,0.1-2.2,0.4-2.9-0.7c-1-1.5-0.6-2.9,0.8-4.2c-0.7-0.2-1.2,0.1-1.6,0.4c-3.9,3-8,2.1-12.1,0.4c-2.1-0.9-3.9-2.3-5.5-4
		c-0.6-0.6-0.6-0.9,0.2-1.2c1.2-0.4,2.3-0.9,3.4-1.4c0.7-0.2,0.7-0.5,0.3-1c-0.6-0.9-1.7-1.5-2.1-2.7c3.3,0.9,6.3,0,9.5-0.5
		c-0.6-0.8-1.4-1.2-2.2-1.6c-2.4-1.3-3.8-3.3-4.5-5.8c-0.3-1-0.6-2-0.9-3c-0.1-0.2-0.4-0.5-0.1-0.8c0.2-0.2,0.5,0,0.8,0.1
		c4.1,1.1,7.7,3.1,10.7,6c0.4,0.4,0.7,1,1.2,1.6c1.2-2.4,0.1-4.1-0.7-5.7c-0.6-1.2-0.5-2.3-0.2-3.4c0.3-1.1,1.2-0.7,1.8-0.4
		c1.6,0.8,2.8,2.1,3.3,3.8c1.4,4.2,2.8,8.4,2.6,12.9c0,1,0.2,1.9,0.7,2.7c-0.2-4,0.4-8,0.3-11.9c0-1.1-0.3-2-0.8-2.9
		c-1.6-2.6-3.1-5.2-4.7-7.8c-0.2-0.3-0.3-0.9-0.8-0.8c-0.5,0.1-0.9,0.5-0.9,1c0,1.2-0.6,1.8-1.6,2c-1.1,0.2-2.1,0-2.8-0.9
		c-0.7-1-0.9-2-0.2-3.1c0.6-1,2.8-1.4,3.9-0.7c0.2,0.2,0.5,0.6,0.8,0.2c0.3-0.3-0.1-0.6-0.3-0.8c-0.7-0.8-1.7-0.8-2.6-0.8
		c-4.3,0-6.2-0.6-7.8-4.1c-0.9-2.1-2.3-3.8-3.7-5.5c-0.2-0.3-0.7-0.6-0.4-1c0.2-0.3,0.7-0.1,1.1,0c1.1,0.1,2.1,0.6,3.1,1.2
		c1.3,0.8,2.6,1.3,4.1,1.4c2.2,0.2,3.2,1.9,4.3,3.5c0.4,0.7,1,1.5,1.7,1.3c0.5-0.2,0.1-1.2-0.1-1.8c-0.2-0.7-0.6-1.2-1.4-1.5
		c-2.2-0.8-3.7-2.5-5-4.3c-1.1-1.5-2-3.2-3.3-4.4c-1.5-1.4-2.2-3.2-3-4.9c-0.4-0.8-0.2-1,0.7-1c2.8,0.3,5.3,1.2,7.6,2.9
		c-0.1-1.5-0.5-2.7-1-3.9c-1-2.3-2.3-4.4-3.2-6.7c-0.7-1.9-0.7-3.8-0.5-5.8c0.1-0.7,0.7-1.5,1.2-2.1c0.4-0.6,0.8-0.1,0.8,0.2
		c0.2,1,0.9,1.7,1.5,2.4c3.1,3.4,4.5,7.6,5,12c0,0.3,0.1,0.5,0.1,0.9c0.7-0.3,0.8-1,1.1-1.5c0.5-1.1,1-2.2,1.5-3.2
		c0.1-0.3,0.4-0.5,0.6-0.8c0.7-0.7,1.5-1.6,2.4-1.3c0.6,0.2,0.3,1.4,0.5,2.2c0.1,0.7,0.1,1.3,0.2,2c0,0.2-0.1,0.6,0.4,0.6
		c0.3,0,0.4-0.3,0.4-0.6c0-1,0-1.9-0.1-2.9c-0.3-4-1.4-7.8-2.1-11.7c-0.8-4.5-1.1-8.9,0-13.4c0.9-3.6,0.6-7.2,0.1-10.8
		c-0.3-2.8-0.7-5.6-0.6-8.5c0.1-3.6,2-5.7,5.5-6.2c1.3-0.2,2.6-0.4,3.8-0.9c0.7-0.3,0.9-0.6,0.5-1.2c0,0,0-0.1,0-0.1
		c-1.2-2.9-1.2-2.7,1.9-4.1c3-1.3,6.2-1.1,9.4-0.7c2.7,0.3,5.4,0.9,8.1,1.2c2.8,0.3,5.5-0.2,8.1-1.1c4.6-1.7,9.2-1.8,13.9-1
		C78,4.3,81.9,5.3,85.8,5c4-0.3,7.9-0.9,11.8-1.7c1.7-0.4,3.4-0.1,5.1-0.2c4.2-0.2,8.4,0.4,12.6,1.3c3,0.6,6.1,0.5,9.2,0.3
		c1.6-0.1,3.2-0.2,4.8-0.3c0.2,0,0.5,0,0.7-0.1c2.4-1.3,4.9-0.8,7.4-0.4c1.4,0.2,2.7,0.4,4.2,0.4c1.4-0.1,1.9,0.5,1.9,1.8
		c0,0.3,0,0.6-0.1,0.8c-0.2,1.5,0.3,2.2,1.9,2.4c1.5,0.2,3.1,0.2,4.5,0.9c2.3,1.1,3.5,2.8,3.5,5.4c0,4.7,0,9.5-0.2,14.2
		c-0.2,4.9,0.1,9.7,0.5,14.6c0.3,4.6-0.4,9.1-0.9,13.7c-0.7,5.6-0.5,11.3,0.2,16.9c0.3,2.1,0.2,4.3,0.1,6.5c0,0.9,0.2,1.3,1.1,1.3
		c0.1,0,0.2,0,0.2,0c1.9,0.4,2,0.3,1.9-1.8c-0.1-1.3-0.7-2.4-1.2-3.6c-0.8-1.8-1.7-3.6-1.2-5.7c0-0.1,0-0.3,0-0.5
		c-1.3-2.5-0.6-5,0.2-7.4c0.4-1.2,0.5-2.5,0.6-3.7c0.2-1.5,0.9-3,1.7-4.3c0.5-0.7,0.7,0,0.8,0.4c0.8,2.2,1.6,4.3,2.3,6.5
		c0.2,0.4,0.2,0.9,0.7,1.3c0.2-0.5,0.6-1,0.6-1.6c0.6-3.4,2.6-6,4.7-8.6c1.5-1.8,2.9-3.7,3.9-5.9c0.3-0.7,0.6-0.5,1-0.1
		c1.5,1.5,1.8,3.5,1.8,5.5c0,1.1-0.1,2.2-0.7,3.2c-0.3,0.4-0.4,1-0.4,1.5c-0.1,2.1,0.3,4.2-0.9,6.4c1.1-0.5,1.8-0.9,2.8-1.3
		c-0.8,3-1.8,5.6-2.8,8.3c-0.5,1.3-1,2.5-1.6,3.8c-1.4,3.3-4.5,5.1-6.9,7.5c-1.9,1.8-3.6,3.7-4.3,6.3c-0.1,0.5-0.2,1.1-0.1,1.7
		c1-0.4,1.5-1.1,1.8-2c1.4-4.1,5.1-6.4,8.2-8.9c1.7-1.4,4.3-1.8,6.7-2c0.8-0.1,0.8,0.3,0.5,0.8c-0.6,1-1.1,2-1.7,3
		c-0.1,0.3-0.5,0.5-0.3,0.8c0.2,0.3,0.6,0.1,0.9,0c0.7-0.3,1.4-0.6,2-1c0.3-0.2,0.7-0.4,1-0.2c0.3,0.2,0,0.6-0.1,1
		c-0.4,1.3-0.8,2.6-1.4,3.8c-0.8,1.9-2.3,3.1-4.2,4.2c-2.3,1.2-4.7,1.1-7,1.4c-0.4,0.1-0.9-0.2-1.4-0.2c-2,0-3.6,0.8-4.7,2.5
		c-1.1,1.7-1.7,3.6-2.2,5.5c-0.5,2.1-1.6,4-1.9,6.1c-0.2,1-0.1,2.1-0.1,3.1c-0.4,2.8-0.4,5.7,0.1,8.8c0.6-0.9,1-1.9,0.7-2.6
		c-0.9-2.1-0.9-4.1-0.3-6.2c1-2.7,2.8-5.1,2.9-8c0.1-2.6,1.5-4,3.4-5.2c0.6-0.4,1.1-0.9,1.6-1.4c0.2-0.2,0.4-0.6,0.7-0.5
		c0.3,0.1,0.3,0.5,0.4,0.8c0.2,0.7,0.2,1.5,0.2,2.3c0,0.8,0,1.7,0,2.8c1-1.3,1.7-2.5,2.9-3.3c0.7-0.5,1.6-1.4,2.4-1.1
		c0.6,0.2,0.2,1.4,0.3,2.2c0.2,2.2,0.4,4.4,0,6.6c-0.3,1.5-0.8,2.9-2,4c-0.3,0.2-0.7,0.5-0.4,0.9c0.2,0.3,0.6,0.2,1,0.2
		c0.5-0.1,1-0.3,1.4-0.7c1.8-1.9,4-1.6,6.3-1.4c0.2,0,0.5,0.1,0.9,0.2c-1.7,1.7-2.4,4-3.9,5.8c-0.6,0.7-0.3,0.9,0.3,1.2
		c1.3,0.5,2.6,0.6,4,0.7c0.4,0,0.8,0.2,1.2,0.1c1.1,0,1,0.7,0.7,1.2c-0.6,0.9-1.4,1.9-2.5,2.1c-1.8,0.4-3.4,1.4-4.9,2.3
		c-0.7,0.4-1.4,0.7-2.2,1c-0.8,0.3-1.5,0.3-2.3,0c-1.5-0.7-3.1-0.3-4.7-0.4c-1.4,0-2.8,0.2-4.2-0.3c-0.8-0.3-1.5-0.7-2-1.3
		c-0.3-0.4-0.7-0.5-1.2-0.4c-0.3,0.1-0.7,0.1-0.7,0.5c-0.1,0.4,0.3,0.6,0.5,0.7c0.6,0.2,1.2,0.3,1.7,0.4c0.9,0.1,1.7,0.4,1.8,1.4
		c0.1,1.1,0,2.1-1,2.7c-1.6,1-2.5,0.8-3.5-0.8c-0.2-0.3-0.3-0.9-0.7-0.8c-0.5,0-0.6,0.6-0.8,1c-0.7,2.1-1.5,4.1-2.7,5.9
		c-0.3,0.4-0.1,0.8-0.3,1.4c1.3-1,2.5-1.7,3.5-2.6c2.1-1.8,4.5-3.3,7.5-3.2c1.4,0,2.7-0.7,4.1-0.8c1.2-0.1,2.3-0.2,3.4,0.1
		c0.3,0.1,0.8-0.1,0.9,0.4c0.1,0.4-0.1,0.7-0.5,1c-1.6,1.4-3.2,2.9-4.6,4.5c-0.3,0.3-0.6,0.7-0.9,1.1c2.2,0.7,4.2,1.9,6.4,2.2
		c1.1,0.2,0.9,0.6,0.5,1.3c-0.7,1-1.6,1.8-2.8,2.2c-2.2,0.7-4.4,1.4-6.7,2.1c-1.8,0.5-3.7,0.3-5.4-0.2c-2.1-0.6-4.2-1-6.2-2
		c-0.1,0.5-0.2,0.9-0.4,1.3c-0.3,1-1,1.6-2.1,1.6c-1,0-1.8-0.3-1.9-1.5c0-0.4-0.3-0.7-0.7-0.3c-2.4,2.3-5.2,3.9-8.2,5.7
		c2.3,0.3,4-0.5,5.8-1.2c1.2-0.5,2.4-1,3.6-1.4c3-1,5.9-0.2,8.8,0.5c4.1,0.9,7.8,2.6,10.9,5.5c0.2,0.2,0.7,0.4,0.5,0.8
		c-0.2,0.3-0.6,0.1-0.9,0.1c-3-0.1-6,0.3-9,0.4c-1.6,0.1-3.3-0.1-4.9-0.5c-0.3-0.1-0.7-0.3-0.9,0c-0.2,0.3,0.2,0.5,0.4,0.8
		c1.1,1.3,2.3,2.6,3.2,4.2c0.2,0.4,0.6,0.8,0.5,1.4c-0.7-0.1-1.3-0.5-2,0.1c0.8,1,1.7,2,2.2,3.2c0.1,0.2,0.2,0.5,0.2,0.8
		c0,0.7,0.4,1.6-0.2,2c-0.5,0.4-1-0.4-1.5-0.7c-1.9-1.1-4-1.5-6.1-2c-2.6-0.6-5.1-1.3-6.7-3.7c-0.1-0.1-0.2-0.2-0.4-0.2
		c-1.9,0-3-1.2-4.2-2.4c-0.2-0.4-0.3-0.8-0.7-1c0-0.1,0-0.1-0.1-0.1c-1-1.7-2.1-3.4-4.2-3.9c-0.4-0.1-0.9-0.5-1.2,0.1
		c-0.2,0.4,0.4,0.6,0.7,0.8c1.5,1.1,3.2,1.8,4.4,3.3c0,0.1,0,0.1,0.1,0.1c0.2,0.4,0.5,0.8,0.7,1.2c1.3,2.8,2.6,5.6,3.9,8.4
		c0.6,1.3,0.5,1.5-1,1.4c-1.6-0.1-3-0.9-4.1-1.9c-1.1-1-2.2-2.1-3.3-3.2c-0.9-0.8-1.7-1.7-2.9-2.1c-1.2-0.4-1.8-1.2-2.3-2.3
		c-0.2-0.5-0.5-0.9-0.7-1.4c-1.2-1.9-2.9-2.2-4.8-0.6c3.6,2.3,5.9,5.8,9.1,8.7c-1.8,0.7-3.4,0.2-5,0.1c-1-0.1-2.2-0.3-2.5,0.8
		c-0.3,1.1-0.9,1.2-1.8,1.1c-0.9,0-1.8-0.3-2.6-0.7c-0.8-0.4-1.7-0.9-2.5-1.4c-0.7-0.4-1.4-0.7-2.2-0.8c-0.8-0.2-2.7,0.3-2.6,0.7
		c0.3,0.9,1.1,1.2,1.9,1.5c0.8,0.3,1.6,0.5,2.4,0.8c0.8,0.2,1.5,0.6,2,1.3c1.2,1.6,2.9,2.3,4.7,2.9c1.6,0.5,3.3,0.9,4.7,2.1
		c0.6,0.5,1.2,0.9,0.9,1.8c-0.3,0.8-1,0.9-1.8,0.9c-1.4,0.1-2.8-0.2-4.1-0.8c-1.9-0.7-3.8-1.1-5.8-1.3c-2.1-0.2-4-1.4-5.1-3.5
		c-0.1-0.2-0.1-0.8-0.5-0.6c-0.5,0.1-0.3,0.5-0.2,0.9c0.3,1.6,0.4,3.1,0.1,4.7c-0.6,2.6-2.6,5.2-5.2,6.3c-0.4-1.5-0.4-1.5-1.7-0.7
		c-0.6,0.3-1.1,0.8-1.9,1c0.1-1.7,1-3.1,1.5-4.6c0.4-1.3,0.9-2.5,1.1-3.8c0.4-0.6,0.2-1.3,0.4-2c0.1-0.3-0.1-0.7-0.5-0.7
		c-0.4,0.1-0.3,0.5-0.2,0.7C101.1,167.2,100.8,167.7,100.5,168.2z M24.3,117.2c0.1,0.1,0.2,0.2,0.2,0.3c2.7,2.6,5.1,5.4,7.1,8.5
		c0.2,0.3,0.4,0.6,0.6,0.8c0,0.1,0.1,0.2,0.1,0.3c0.2,0.3,0.4,0.6,0.6,0.9c0,0.2,0.1,0.4,0.3,0.4c0,0.2,0,0.4,0.2,0.5
		c0.1,0.1,0.1,0.1,0.2,0.2c0.1-0.1,0.1-0.2,0-0.3c-0.1-0.2-0.1-0.4-0.3-0.4c0-0.2-0.1-0.4-0.1-0.6c-0.2-0.3-0.4-0.6-0.6-0.9
		c-0.1-0.1-0.1-0.2-0.2-0.3c-0.2-0.3-0.4-0.6-0.5-0.9c-0.6-1.4-1.4-2.6-2.3-3.7c-1.4-1.8-2.7-3.7-4.8-4.7
		C24.5,117.3,24.4,117.2,24.3,117.2c0-0.1-0.1-0.2-0.2-0.3c-0.2-0.2-0.4-0.4-0.6-0.6c-0.4-0.4-0.8-0.8-1.1-1.3
		c-1-1.6-2.3-2.9-4.1-3.5c-3.5-1.2-7.1-0.2-10.7,0c3.6,4.3,7.9,6.8,11.7,5.2c-0.9-0.6-2-0.9-3-1.2c-0.4-0.1-1,0.1-1-0.3
		c0-0.6,0.7-0.4,1.2-0.5c0.1,0,0.1-0.1,0-0.2c-2.1-0.7-4.7-0.2-6.7-2.1c0.7-0.1,1.1-0.1,1.6,0.1c0.7,0.2,1.4,0.6,2.2,0.6
		c3.3-0.1,6.2,0.9,8.9,2.6c0.2,0.4,0.6,0.5,1,0.7c0.2,0.3,0.4,0.4,0.7,0.5C24.1,117.1,24.2,117.1,24.3,117.2z M162.9,78.2
		c0.1-0.1,0.2-0.1,0.3-0.2c0.6-0.4,1-0.9,1.3-1.5c0.1-0.1,0.2-0.2,0.2-0.3c2.5-2.8,3-6.8,5.6-9.9c-1.3,0.4-2,0.9-2.8,1.6
		c-2.5,2.2-3.9,5.2-5.5,8c-0.6,0.5-0.9,1.2-1.3,1.9c0.7-0.3,1.1-1,1.6-1.6c1.4-1.8,2.7-3.5,4.1-5.3c0.1,0.1,0.2,0.1,0.3,0.2
		c-0.5,1.8-1.6,3.4-2.5,5c-0.5,0.5-0.9,1.1-1.2,1.7c-0.1,0.1-0.1,0.2-0.2,0.3c-0.1,0.1-0.2,0.2-0.2,0.2c-0.2,0.1-0.3,0.3-0.2,0.5
		c-0.1,0-0.2,0-0.3,0c0,0.1,0,0.1,0.1,0.2c0.1-0.1,0.2-0.1,0.3-0.2c0.1-0.1,0.2-0.2,0.3-0.4C162.7,78.4,162.8,78.3,162.9,78.2z
		 M162.2,113.5c0.1-0.1,0.2-0.2,0.2-0.3c0.1-0.1,0.3-0.2,0.1-0.3c0.1,0.1,0.3,0.1,0.4,0c0,0,0-0.1,0-0.2c-0.1,0.1-0.2,0.1-0.3,0.2
		c-0.1,0.1-0.2,0.2-0.2,0.2c-0.1,0.1-0.2,0.1-0.3,0.2c-0.1,0.1-0.2,0.1-0.3,0.2c-1.2,0.7-2,1.9-2.9,2.9c1.3-0.6,2.2-1.7,3.1-2.7
		C162.1,113.6,162.1,113.6,162.2,113.5z M153.5,134.7c0.1-0.1,0.2-0.1,0.4-0.2c0,0-0.1-0.1-0.1-0.1
		C153.6,134.5,153.5,134.6,153.5,134.7c-0.3-0.1-0.5-0.1-0.6,0.1c-0.6,0.1-1.2,0.4-1.7,0.7c-0.2,0.1-0.5,0-0.7,0.2
		c0.3,0.1,0.6,0.1,0.9-0.1c0.6-0.1,1.2-0.4,1.7-0.7C153.2,135,153.3,134.8,153.5,134.7z M136.9,149.3c-0.1-0.1-0.2-0.1-0.3-0.2
		c0,0,0,0.1-0.1,0.1C136.7,149.3,136.8,149.3,136.9,149.3c0.2,0.6,0.7,0.7,1.2,0.9c3.6,2.4,7.5,3.8,12.1,3.6
		c-1.9-2.8-3.9-5.1-6.9-6.5c-0.4-0.2-0.8-0.3-1.3-0.1c0.2,0.2,0.5,0.5,0.5,0.6c-0.6,1.4,0.7,1.2,1.2,1.6c1.1,0.8,2.3,1.2,3.3,2.4
		c-2.8-0.1-4.7-2.2-7.4-2.7c0.7,0.9,1.7,1.2,2.1,2.2c-1.3-0.6-2.5-1.1-3.7-1.6C137.8,149.5,137.3,149.4,136.9,149.3z M66.3,166.9
		c0.6-0.1,1.1-0.4,1.6-0.8c0.6-0.4,1.8-0.5,0.6-1.7c-0.4-0.5,0.3-0.4,0.6-0.4c1.9-0.2,3-1.6,2.8-3.7c-0.8,0.6-1.6,1.1-2.3,1.6
		c-1.4,1.1-2.8,2.2-4.6,2.6c-0.8-0.2-1.6,0-2.3,0.5c-1.7,1.3-3.4,2.6-5.3,4.2c3-0.5,5.7-1,8.3-2C65.9,167.1,66.1,167.1,66.3,166.9z
		 M114.9,148.4c0.7-0.2,1.4-0.5,1.9-1c2.6-1.5,4.5-3.8,6.2-6.5c-2.9-0.3-4.9,1-7.3,2.5c0.7,0.1,1.1,0.1,1.7,0.2
		c-1.9,1.2-3.7,2.1-4.9,3.7c3.3-1.2,5.7-3.7,8.4-5.7c0.2,0.4,0.1,0.6-0.1,0.8c-1.2,1.8-2.8,3.3-4.4,4.7
		C115.9,147.5,115.3,147.8,114.9,148.4c-0.2,0-0.5-0.1-0.4,0.1C114.6,148.6,114.8,148.6,114.9,148.4z M168.8,113.4
		c0.7-0.4,1.4-0.8,1.9-1.5c0.7-0.9,1.5-1.8,2.2-2.8c0.2-0.3,0.4-0.6,0.2-0.9c-0.2-0.3-0.5,0-0.8,0.1c-2.5,0.7-4.7,2-7.1,2.9
		c-0.2,0.1-0.5,0.1-0.6,0.4c0.5,0.2,1-0.1,1.6,0.3c-1.6,1.4-3.8,2.1-4.8,4.2c0.2,0.2,0.3,0.1,0.5,0c1.5-1.2,3-2.5,4.7-3.3
		c1-0.5,2.1-1,3-1.7c0.3-0.2,0.6-0.7,0.9-0.5c0.5,0.3-0.1,0.7-0.1,1.1c-0.6,0.5-1.3,0.9-1.7,1.6c-0.1,0-0.1,0.1-0.2,0.1
		c-0.8,0.1-1.6,0.6-2.3,1c-1.8,1.2-3.3,2.8-5.2,3.9c0.9,0,2,0.4,2.7-0.4c1.4-1.6,3.1-2.9,4.7-4.3
		C168.6,113.5,168.7,113.5,168.8,113.4z M123,147.4c1.5-0.3,2.9-0.8,4.3-1.5c1.1-0.4,2.2-0.8,3.3-1.3c2.8-1.3,5.7-2.5,8.1-4.5
		c0.3,0.1,0.5-0.2,0.7-0.3c6.1-4.5,9.4-10.7,11.5-17.8c0.1-0.3,0-0.6,0-0.9c-2.7,7.3-5.7,14.3-12.5,18.8c-0.8,0.4-1.6,0.9-2.5,1.2
		c-0.4-0.7-0.3-1.5-0.4-2.5c-2.3,3.3-5.3,5.5-8.8,7.1C125.6,146.3,124.3,146.8,123,147.4c-0.2,0-0.3,0-0.5,0c0,0,0.1,0.1,0.1,0.1
		C122.8,147.6,122.9,147.5,123,147.4z M156,107.4c-0.9,1.6-1.4,3.4-1,5.2C155.1,110.8,155.7,109.1,156,107.4c0.2,0,0.3-0.1,0.2-0.3
		c0,0,0-0.1-0.1-0.1C156.1,107.1,156.1,107.2,156,107.4z M36.1,134.1c0.1,0.1,0.1,0.4,0.3,0.3c0.2-0.1,0-0.3-0.2-0.4
		c-0.8-1.5-1.6-3-2.4-4.5c-0.1,0.1-0.2,0.1-0.3,0.2C34.3,131.1,35.1,132.7,36.1,134.1z M161.3,87.7c1.1-0.9,2.2-1.8,3.2-2.8
		c0.4-0.2,0.7-0.4,0.9-0.8c0.8-0.6,1.4-1.5,2.4-1.9c0,1.9-1.6,2.7-2.6,3.9c1.9,0.2,0.2,0.9,0.2,1.4c1.5,0,4.1-3.2,6.2-7.5
		c0,0,0.1-0.1,0.1-0.1c0,0-0.1,0-0.1,0c0,0.1,0,0.1,0,0.2c-2.9,0.1-5,1.7-6.7,3.8c-0.3,0.2-0.4,0.5-0.6,0.8
		c-0.4,0.3-0.8,0.5-1.2,0.8C162.4,86.1,161.4,86.6,161.3,87.7L161.3,87.7L161.3,87.7z M152.7,103.3c-1,2.1-1,4.3-0.6,6.5
		C152.3,107.6,152.5,105.5,152.7,103.3c0.2,0,0.3-0.2,0.2-0.3c0,0-0.1-0.1-0.1-0.1C152.8,103,152.7,103.1,152.7,103.3z M65.3,145.9
		c0.1,0.1,0.2,0.2,0.3,0.2c0.1-0.2,0.1-0.3-0.1-0.4c-1.3-1.1-2.5-2.3-4.3-2.5C62.5,144.3,63.8,145.2,65.3,145.9z M124.9,151.4
		c0,0-0.1-0.1-0.1-0.1C124.7,151.4,124.7,151.5,124.9,151.4c0.5,1.7,1.4,3,3.6,3.4C127.2,153.5,126.6,152,124.9,151.4z M71.7,143.3
		C71.7,143.3,71.8,143.3,71.7,143.3C71.8,143.3,71.7,143.3,71.7,143.3c-0.4-1.8-1.6-3-3-4C69.3,140.9,70.1,142.4,71.7,143.3z
		 M70.6,144.9c-0.1-0.1-0.3-0.4-0.5-0.2c-0.1,0.2,0.2,0.3,0.3,0.4c1.8,1.6,3.9,2.7,6.3,3c0.2,0,0.7,0.4,0.7-0.2
		c0.1-0.5-0.4-0.4-0.7-0.5C74.5,147,72.5,146.2,70.6,144.9z M113.7,139.2c-0.5-0.1-0.7,0.3-0.9,0.6c-2.7,2.7-5,5.7-8.4,7.7
		c-0.1,0.1-0.3,0.2-0.1,0.3c0.1,0.1,0.3,0,0.4-0.1c2.5-1.2,4.4-3,6.3-4.9C112,141.7,113.2,140.8,113.7,139.2
		C113.7,139.2,113.7,139.2,113.7,139.2c0.1-0.1,0.1-0.1,0.1-0.1C113.7,139.2,113.7,139.2,113.7,139.2z M24,83.6
		c-0.6,0.8-1.1,1.6-0.8,2.6c0.1-0.9,0.7-1.6,1.1-2.3c0.9,0.1,0.4,0.7,0.3,1c-0.2,1.1-0.3,2.1,0,3.4c1.7-2.6,1.5-5.2,0.7-8
		C25,81.6,24.4,82.6,24,83.6z M126.1,139.2c0.1,0,0.2,0.1,0.3,0c2.7-0.5,2.9-0.4,3.8,2.1c0.2,0.5,0.4,0.4,0.8,0.2
		c0.8-0.6,1.5-1.2,2-2c0.1-0.2,0.4-0.4,0.2-0.6c-0.1-0.3-0.4-0.1-0.7-0.1c-1.9,0-3.8,0-5.7,0C126.6,138.8,126.1,138.7,126.1,139.2
		c0,0.1-0.1,0.1-0.1,0.2c0,0,0.1,0,0.1,0C126.1,139.3,126.1,139.3,126.1,139.2z M33.1,107.6c1,0,0.6,0.8,0.8,1.4
		c0.2-0.4,0.4-0.7,0.5-1.1c0.4-1.4,0.7-2.7,1.1-4.1c0.1-0.6,0.5-1.6-0.2-1.8c-0.5-0.2-1,0.8-1.3,1.3c-0.1,0.2-0.2,0.4-0.2,0.5
		C33.9,105.2,33.4,106.4,33.1,107.6c-0.9,1.8-2,3.5-2,5.6C31.9,111.4,33.3,109.8,33.1,107.6z M8,81c0-0.1-0.1-0.1-0.1-0.2
		c0,0-0.1,0.1-0.1,0.1C7.8,80.9,7.9,81,8,81c1,2,2.2,3.8,3.7,5.4c0.8,0.9,1.9,1.3,3.4,1c-1.7-0.9-2.8-2.2-4-3.4
		c-0.3-0.3-0.8-0.5-0.9-1C9.9,81.8,9.1,81.2,8,81z M66.8,155.3c0.2-0.2,0.4-0.4,0.6-0.7c0.7-0.5,1.4-1,2.1-1.5
		c-0.9,0.1-1.7,0.4-2.4,1c-2.4,1.6-3.8,4-5,6.6c0.8,0.2,1.4,0.1,1.9-0.5c0.6-0.7,1.4-1.2,2.1-1.7c0.7-0.5,1.4-1,1.7-1.9
		c0.2-0.1,0.3-0.2,0.1-0.4c-0.1,0.1-0.2,0.2-0.3,0.3c-1,0.4-1.5,1.5-2.8,1.6c0.4-1.1,1.3-1.7,1.7-2.6L66.8,155.3L66.8,155.3z
		 M101.7,172.8c0.6-0.2,0.9-0.7,1.4-1.1c0.3-0.2,0.5-0.8,1-0.5c0.4,0.2,0.3,0.6,0.1,1c-0.1,0.2,0,0.3,0.1,0.4c0.1,0,0.3,0,0.4-0.1
		c0.7-0.5,1.4-4.1,0.9-4.8c-0.1-0.1-0.2-0.2-0.3-0.2c-0.8-0.4-1.6-0.8-2.4-1.3c0.1,1-0.2,1.8-0.4,2.6
		C102.1,170.1,101.6,171.4,101.7,172.8c0,0-0.1,0.1-0.1,0.1c0,0,0,0.1,0.1,0.1C101.6,172.9,101.6,172.8,101.7,172.8z M19.2,72.4
		c0.7-1.6,1.4-3.2,2.7-4.8c0.1,1.4-0.2,2.4-0.7,3.3c-0.5,1.1-1.1,2.1-1.4,3.3c-0.1,0.2-0.2,0.4,0,0.5c0.2,0.1,0.4,0,0.5-0.2
		c0.3-0.4,0.4-1,0.9-1.4c0.4,0.7-0.1,1.4-0.1,2.3c1.2-0.9,1.6-2.1,1.8-3.2c0.6-2.4,0.2-4.8,0.3-7.3c0-0.5,0.3-1.2-0.3-1.4
		c-0.5-0.1-0.8,0.6-1.2,1c-0.1,0.1-0.1,0.2-0.1,0.3c-1,2.3-2.1,4.6-2.7,7c-0.5,1.3-0.8,2.7-0.5,4.1C18.5,74.7,19,73.6,19.2,72.4z
		 M110.7,165.1c-0.6-2.1,1.3-0.8,1.8-1.4c0-0.5-0.5-0.6-0.9-0.8c-1.2-0.6-2.5-1.1-3.6-1.7c-3.8-2.2-7.6-4.4-11.5-6.6
		c-0.2-0.1-0.5-0.7-0.8-0.1c-0.2,0.4-0.4,0.9,0,1.3c0.2,0.2,0.5,0.3,0.8,0.5c2.5,1.3,5.1,2.5,7.3,4.3c1,0.8,2.2,1.9,3.3,2.2
		c1.8,0.4,2.7,1.3,3.2,2.9c1,1.6,3,2.5,4.1,1.7C112.9,167,111.2,167,110.7,165.1z M155.4,70.7c0.3-1.8,0.1-3.8,1.4-5.5
		c-0.3,2.4-0.5,4.7,0.3,7c0.1-1.2-0.1-2.5,0.3-3.6c0.1-0.3,0-0.6,0.4-0.6c0.3,0,0.3,0.3,0.3,0.6c0.1,1.1,0.2,2.1,0.3,3.2
		c0.1,1,0.2,2.1,0.4,3.1c1.5-4.4,0-13.5-2.4-16.1c0,0.1-0.1,0.2-0.1,0.3c-0.5,2.1-0.2,4.4-0.7,6.5c-0.4,1.7-0.8,3.3-0.2,5
		c0.2,2.1-0.1,4.3,1.3,6.2C156.3,74.8,155.5,72.8,155.4,70.7z M31.9,36.7c0.6-3.3,0.8-6.6,0.3-10c-0.3-2.4-0.7-4.7-0.2-7.1
		c0.3-1.3,0.2-2.5-0.1-3.7c-0.7-2.5-1.4-3-3.9-2.4c-2.1,0.5-3.3,1.8-3.5,4c-0.3,3.1,0.4,6.1,0.6,9.1c0.3,3,0.6,6,0.1,9.1
		c-0.4,2.4-1,4.8-1.1,7.3c-0.1,4.9,1.3,9.6,2.1,14.4c0.7,3.9,1.2,7.8,0.6,11.8c-0.5,3.5-0.6,7,0,10.5c0.1,0.8,0.3,1.6,0.6,2.4
		c0.6-1,0.8-1.9,1.1-2.9c0.2-0.9,0.5-1.1,1.3-0.5c1,0.7,1.8,1.5,2.6,2.6c-0.2-3.2-0.3-6.2,0.1-9.1c0.2-1.2,0.9-2.3,1-3.6
		c0.3-4.8-0.5-9.5-1.4-14.2c0-0.1,0.1-0.4-0.3-0.3c-1.6,0.2-3.1,0.3-4.7,0.9c-0.5,0.2-0.7,0.1-0.8-0.4c-0.1-0.7-0.2-1.2,0.8-1.1
		c0.5,0.1,1-0.1,1.5-0.2c1.8-0.3,1.8-0.3,1.1-1.9c0-0.1,0-0.1,0.1-0.2c1.6-0.3,1.7,0.9,2,2c0.1-2.6-0.8-5.1-0.5-7.6
		c0.3-2.1-0.4-4.2,0.2-6.3C31.7,38.2,31.9,37.5,31.9,36.7z M36,17.8c0.5,0,1,0,1.4,0c33.3,0,66.7-0.1,100,0.2c1,0,1.9,0.1,2.9,0
		c0.9-0.1,1.1,0.3,1,1.1c0,5.4,0,10.7,0,16.1c0,14.2,0,28.4,0,42.6c0,0.5-0.2,1.1,0.3,1.5c1.2,0.9,2,2.1,3.3,3.5
		c-0.5-1.9-0.6-3.5-0.7-5.1c0-2,0.4-4,0.1-6c-0.3-1.8-0.8-3.5-1.1-5.2c-0.4-2.3-1-4.6-0.3-7c1.9-6,1.7-12,0.7-18.1
		c-0.6-3.7-1.2-7.3-1.3-11c-0.1-4,0-8,0.2-12c0.1-1.8-0.4-2.4-2.1-3.2c-0.7-0.3-1.4-0.5-2.2-0.5c-2.5-0.1-4.9-0.1-7.2-1.3
		c-0.7-0.4-1.6-0.6-2.3-0.2c-2.3,1.2-4.8,0.7-7.2,0.5c-2-0.2-3.7,0.2-5.1,1.7c-0.4,0.5-0.8,0.6-1.4,0.4c-7.5-2-14.9-1.5-22.4,0
		c-4.2,0.8-8.3,1-12.4,0.1c-6.3-1.3-12.6-1.7-18.8,0.8c-0.9,0.3-1.2,0-1.3-0.7c-0.1-0.5-0.1-0.9-0.8-0.7c-2.3,0.4-4.5,0.2-6.8-0.2
		c-2.6-0.5-5.2-1.1-7.9-1.4c-2-0.2-2.3-0.2-3.3,1.6c-0.4,0.7-0.8,1.1-1.7,1c-1.6-0.2-2.8,0.5-4,1.5c-1.1,0.7-1.7,1.8-2,3
		c-0.6,2.2-0.4,4.4-0.1,6.5c0.3,3.1,0.8,6.1,0,9.2c-1.2,4.5-0.9,9-0.5,13.5c0.3,3.3,1.1,6.5,1.3,9.8c0,0.5,0,1.1,0.7,1
		c0.6-0.1,0.5-0.7,0.5-1.2c0.1-10.9,0.1-21.8,0.2-32.7C36,23.7,36,20.8,36,17.8z M88.1,144.1c1.8-3,4.2-5,7-6.4
		c0.6-0.3,1.2-0.6,1.9-0.6c5.5-0.1,11.1-0.1,16.6-0.2c6.5-0.1,12.9-0.2,19.4-0.2c2.7,0,6.1-3.3,6.1-6.3c-0.1-36.4,0-72.8,0-109.2
		c0-1-0.2-1.3-1.2-1.3c-7.4,0-14.8,0-22.2-0.1c-10.3-0.1-20.6,0-30.9-0.1c-15.1-0.1-30.2,0-45.3,0c-1.6,0-1.6,0-1.6,1.6
		c0,21.4-0.1,42.9-0.1,64.3c0,13.8-0.1,27.6-0.1,41.4c0,1.7,0.1,3.4,0.4,5.1c0.4,1.9,3.3,4.5,5.2,4.5c4.6,0.1,9.2,0.2,13.8,0.2
		c6.8,0,13.6,0,20.4,0.1c2,0,3.9,0.6,5.7,1.7C85.2,139.8,86.8,141.7,88.1,144.1z M151.6,80.8c0.2-1.7,0.4-3.1,0-4.5
		c-0.7-2.5-1.1-5-1.2-7.6c-0.3-4.1-0.6-8.2,0.5-12.2c1.6-5.7,1.4-11.4,0.9-17.2c-0.3-3.1-0.4-6.2-0.2-9.3c0-1,0-2,0-3
		c-0.1-2.1-0.3-4.2,0.1-6.2c0.6-3,0.3-5.7-1.5-8.1c-1-1.3-1.8-1.3-2.9-0.1c-0.8,0.9-1.4,1.8-2.3,2.6c-0.5,0.5-0.6,0.9-0.7,1.6
		c-0.1,2.2,0,4.3-0.2,6.5c-0.2,2-0.6,3.9-0.5,5.9c0.4,5.6,1.5,11,2,16.6c0.3,3.6,0.6,7.3-0.3,10.8c-1,3.9-1.2,7.6-0.1,11.5
		c0.8,2.7,1.3,5.5,0.9,8.4c-0.2,1.4-0.7,3,0.1,4.5c0.2,0.4,0.2,1,0.7,0.9c0.4-0.1,0.3-0.7,0.3-1.1c-0.1-3,0.1-6,0.7-8.9
		c0.1-0.4,0-1,0.6-1c0.4,0,0.6,0.5,0.7,0.9c0.6,2.2,1.3,4.3,1.3,6.6C150.5,79.2,150.8,79.9,151.6,80.8z M68.9,5
		c-2.3,0-4.5,0.2-6.7,0.9c-0.7,0.2-0.9,0.5-0.9,1.3c0.2,2,0.4,4.1,0.5,6.1c0.1,1.5,0.1,1.5,1.5,1c4.4-1.3,8.8-1.3,13.3-0.7
		c3,0.4,5.8,1.2,8.8,1.3c4.1,0.2,8-1.3,12-1.6c3.4-0.3,6.7-0.7,10.1-0.4c2.3,0.2,4.5,0.7,6.7,0.8c0.9,0.1,1.1-0.3,1.1-1.1
		c0.1-1.7,0.2-3.3,0.4-5c0.1-1-0.1-1.4-1.1-1.6c-2.1-0.3-4.1-0.8-6.2-1.1c-2.4-0.3-4.7-0.7-7.1-0.5C97.4,4.8,93.2,6,89,6.4
		c-3.3,0.3-6.5,0.5-9.8-0.1C75.8,5.8,72.4,4.9,68.9,5z M39.2,5.9c-1.4,0-2.8,0.4-4.1,0.8c-1.4,0.4-1.5,0.8-1.2,2.2
		c0.4,1.3,0.8,2.7,1.1,4c0.1,0.5,0.3,0.6,0.8,0.4c4-1.5,8.1-2.1,12.3-0.8c1,0.3,2.1,0.6,3.1,0.8c2.5,0.5,5,1.1,7.6,0.7
		c0.7-0.1,1-0.3,0.9-1c-0.2-1.7-0.4-3.5-0.5-5.2c0-0.5-0.3-0.4-0.6-0.3C55,8,51.3,7.7,47.7,6.8C44.9,6,42.1,5.9,39.2,5.9z
		 M141.4,89.7c0,0.6,0,0.9,0,1.2c0,13,0,26,0,39.1c0,2.3-0.6,4.3-2.4,5.9c-0.5,0.4-0.9,1-1.2,1.6c-0.1,0.2-0.3,0.3-0.1,0.5
		c0.2,0.2,0.4,0.1,0.6,0c0.5-0.3,1-0.6,1.5-1c2.4-1.8,3.9-4.4,5.6-6.8c1.1-1.5,1.7-3.1,2-4.9c0.1-0.7,0.2-1-0.8-0.9
		c-2.2,0.3-3.5-1.1-3-3.3c0.3-1.5,1.3-2,2.9-1.7c0.3,0.1,0.6,0.2,0.8,0c0.3-0.3-0.1-0.5-0.1-0.7c-0.4-1.2-0.9-2.3-1.8-3.2
		c-1.4-1.5-2.1-3.3-2.5-5.3c-1-4.9,0.2-9.6,1.3-14.4c0.1-0.3,0.3-0.6,0.6-0.6c0.4,0,0.4,0.4,0.5,0.6c1.4,2.8,2.8,5.7,4.1,8.5
		c0.3,0.7,0.6,1.4,1,2.4c0.6-2.3,1.4-4.3-0.9-5.8c0,0-0.1-0.1-0.1-0.1c-1.9-2.1-2.9-4.7-4.5-7.1C144,92,143,90.8,141.4,89.7z
		 M142,5.7c-1.5,0-2.9,0.1-4.2,0c-2.7-0.4-5.3-0.6-8,0c-3.1,0.7-6.4,0.6-9.6,0.4c-0.6,0-0.7,0-0.8,0.6c-0.2,1.6-0.2,3.2-0.2,4.8
		c0,0.3,0.1,0.5,0.5,0.5c2.7,0,5.3,0.1,8-0.2c1.7-0.2,3.5-0.7,5.2,0.1c2,0.9,4.1,1.1,6.2,1.2c0.4,0,0.6-0.2,0.7-0.5
		C140.4,10.4,141.2,8.2,142,5.7z M99.5,162.2c-0.4,0.5-0.7,1-1,1.4c-1,1.4-2.1,2.7-3.6,3.7c-1.9,1.3-3.5,0.8-4.3-1.4
		c-0.6-1.4-0.6-2.9-0.2-4.3c0.2-0.5,0.3-1.1,0-1.6c-0.3-0.6-0.6-0.7-1-0.2c-0.9,1.2-1.5,2.6-1.3,4c0.2,2.1,0.7,4.1,1.4,6.2
		c0.2,0.6,0.5,0.9,1.1,1c1.4,0.3,2.8,0.1,4.2,0.2c0.6,0,1.2-0.2,1.7-0.5C99.2,168.7,100.4,165.7,99.5,162.2z M29.2,117.4
		c0.4-0.3,0.3-0.8,0.3-1.1c0-1.4,0-2.9,0-4.3c0-0.4-0.1-0.7,0.2-1c1.4-1.6,1.7-3.6,2.2-5.6c0.4-1.9,1-3.7,2.7-4.9
		c1-0.7,1.5-3.2,1.1-3.8c-1.5,1.2-3.1,2.5-4.6,4c-1.2,1.2-2.3,2.5-2.5,4.2c-0.3,3.2-0.5,6.4-0.3,9.7
		C28.4,115.5,28.6,116.5,29.2,117.4z M92.6,148.4c0,0.5,0.1,0.8,0.1,1.2c0,0.3,0,0.8-0.5,0.8c-0.4,0-0.5-0.4-0.6-0.8
		c0-0.5,0-1.1,0-1.6c-0.4,1.1-0.4,1.1-1.1,1.4c-0.3-0.6,0.1-1.4-0.6-1.8c-0.3,0.4,0,0.8,0,1.1c-0.1,0.6,0.1,1.6-0.6,1.7
		c-0.5,0.1-0.5-0.9-0.6-1.4c0-0.1,0-0.2-0.1-0.2c-0.2-0.5-0.1-1.5-0.7-1.5c-0.7,0-1.2,0.7-1.4,1.4c-0.1,0.4-0.2,0.9-0.2,1.3
		c0,1.5,0.2,3.1,0.4,4.6c0.1-0.2,0.1-0.4,0.1-0.6c0.1-0.3,0.1-0.9,0.5-0.9c0.5,0,0.5,0.5,0.5,0.9c0.1,0.8-0.2,1.5-0.3,2.2
		c0,0.3-0.4,0.7,0.1,0.8c0.5,0.1,0.6-0.3,0.6-0.7c0-0.2,0-0.3,0-0.5c0-0.3-0.1-0.8,0.3-0.8c0.4,0,0.4,0.4,0.4,0.7c0,0.2,0,0.5,0,0.7
		c0,0.3-0.2,0.7,0.3,0.8c0.4,0.1,0.7,0,1-0.5c0.3-0.5,0.4-1.2,1.1-1.6c0.1,0.6,0.1,1.2,0.1,1.7C92.7,156,93.6,149.6,92.6,148.4z
		 M52.7,144.9c1.7,0.5,3.3,1,5.1,1.3c-1.2-1.8-2.2-3.5-2.5-5.5c-0.2-0.9,0.1-1.1,0.9-0.9c3.1,1,6.4,1.6,9.1,3.6
		c0.2,0.2,0.5,0.3,0.8,0.1c-0.9-1.3-1.8-2.6-2.6-3.9c-0.4-0.6-0.7-0.8-1.4-0.8c-4.5,0-9,0-13.5,0c-1.4,0-1.7,0.4-1.2,1.8
		c0.1,0.4,0.3,0.7,0.7,1c1.2-1.8,3.4-2.6,4.6-1.7C54.4,141,54.4,142.7,52.7,144.9z M96.8,145.8c-1.1-1.1-1.4-2-0.9-3.3
		c0.4-1,1.5-1.8,2.6-1.8c1.4,0.1,1.8,1.2,2.2,2.2c0.3,0.6,0.3,1.3,1,1.8c0-1.1,0-2.1,0-3c0-0.9,0.6-1.8,0.8-2.7
		c-2.7-0.3-5.2,0.2-7.6,1.4c-1.9,1-3.5,2.4-4.4,4.3c-0.1,0.3-0.3,0.5,0.1,0.8C92.6,146.9,94.6,147.5,96.8,145.8z M29.7,80.3
		c-0.6,2.4-1.5,4.5-2.4,6.6c1.3,0.1,1.6,0.7,1,1.8c-0.5,0.9-1.5,1.5-2.2,2.1c-2.2,1.8-2,5.5,0.5,7.1c0.2-0.9,0.4-1.7,0.6-2.5
		c0.9-3.6,1.8-7.1,4-10.1c1-1.4,1-1.8,0.1-3.3C30.8,81.4,30.3,80.9,29.7,80.3z M167.4,97.3c-1.4,0.7-2.1,1.9-2.7,3.2
		c-1.8,3.7-4.4,6.9-6.6,10.4c-0.7,1.1-1.2,2.2-1,3.7c0.7-0.6,1.4-1,1.7-1.7c0.6-1.7,1.7-3.1,2.9-4.5c1.4-1.7,2.9-3.4,3.7-5.5
		c0.1-0.2,0.2-0.4,0.5-0.3c0,1.2,0,2.4,0,3.7C167.7,104.6,168.2,101.1,167.4,97.3z M155.4,146.7c-0.9-0.2-1.8-0.4-2.8-0.6
		c-2.1-0.5-4.2-0.4-6.3,0c-0.3,0.1-0.8,0.2-0.8,0.6c0,0.3,0.3,0.4,0.6,0.4c2.9,0.1,5.8,0.8,8.7,1c1.7,0.1,3.4,0,5.1-0.6
		c-4.3-4.2-14.5-5.7-18.4-2.7c0.6,0.3,0.6,0.3,1.4,0.2c2.7-0.7,5.3-0.9,8.1-0.4C152.6,144.8,154.2,145.3,155.4,146.7z M29.2,132.5
		c-0.3-0.6-0.6-1.1-1.2-1.3c-1.7-0.6-3.2-1.5-4.8-2.5c-1.3-0.8-2.7-1.5-4.3-1.8c-0.7-0.1-1.6-0.5-2,0.1c-0.2,0.3,0.2,1.2,0.4,1.8
		c0.6,1.7,1.7,2.9,3.2,3.7c1.4,0.7,3,1.1,4.6,1.3c1,0.1,2.1,0.5,3.4,0.4c-2.6-2.3-6.2-2.6-8.1-5.3C23.4,129.9,26.2,131.5,29.2,132.5
		z M165.2,126.7c-1.9-0.3-10.2,1.5-11.2,2.4c0.4,0.2,1-0.1,1.3,0.4c-0.2,0.5-0.7,0.7-1.1,1c-0.9,0.7-1.9,1.3-2.8,2
		c-0.3,0.2-0.9,0.3-0.6,0.8c0.2,0.3,0.7-0.1,1-0.2c1.9-0.8,3.6-1.8,5.4-2.8c0.9-0.5,1.7-1.3,3-1.6c-1.2,2.5-3.3,3.7-5.1,5.2
		C160,133.7,161.9,129.3,165.2,126.7z M161.1,70.5c1.4-2.5,1.5-5.4,2.9-7.8c-0.1,0.6-0.2,1.2,0,1.8c0.2,0.8,0.1,1.5-0.3,2.3
		c-0.5,1.3-0.8,2.6-1.1,3.9c-0.1,0.2-0.2,0.6,0.2,0.7c0.3,0.1,0.4-0.2,0.5-0.4c0.8-0.9,1.3-1.8,1.2-3.1c-0.2-1.4,0.1-2.6,0.8-3.9
		c1.3-2.6,0.9-5.5,0.6-8.3C161.9,59.9,161.2,65.1,161.1,70.5z M43.6,144.5c-0.5-0.8-1.1-1.1-2-0.9c-1,0.2-2.1,0.1-3.1-0.2
		c-2-0.8-3.9-0.6-5.9,0.1c-1.3,0.5-2.8,0.7-4.2,1.3c3.2,2.8,12.1,3.7,15.6,1.5c-1.4-0.3-2.8-0.4-4.3-0.3c-1.7,0-3.4,0.1-5.1,0
		c-1.5-0.1-2.9-0.4-4.5-1.3c1.9-0.6,3.5-0.4,5.1-0.1c0.9,0.2,1.9,0.7,2.7,0.5C39.8,144.6,41.7,144.6,43.6,144.5z M17.6,109.7
		c-1.9-2.7-5.4-3.5-6.7-6.5c1.3,0.7,2.6,1.6,3.8,2.4c1.3,0.8,2.6,1.6,3.7,2.7c-0.3-3-6.5-7.3-10.5-7.9c1,2.7,2,5.4,5,6.4
		c0.9,0.3,1.6,1,2.1,1.7C15.7,109.4,16.4,109.8,17.6,109.7z M144.9,100.1c-1.7,6.1-0.5,11.7,1.5,13.4c-0.3-2-0.8-4-0.2-6.4
		c1.1,2.1,0.7,4.4,2.1,6.2C149,110.7,147.8,106,144.9,100.1z M80.5,160.7c-1.2,1.1-1,2.4-0.9,3.7c0.2,2.7,0.5,5.4,3.6,6.6
		c0.7,0.3,1.5,1,2.2,0.6c0.7-0.4,0.5-1.4,0.6-2.2c0.1-0.7,0-1.1-0.9-1.2c-1.1-0.2-1.9-0.9-2.6-1.7C81.3,164.7,80.7,162.8,80.5,160.7
		z M36.4,151.8c4.6-0.5,7-1.4,8-3.1c-3.5-0.8-7.9,0.6-10.3,3.3c-0.3,0.4-0.3,0.5,0,0.8c1.7,1.4,5.1,1.4,6.9,0
		C39.5,152.5,38,152.7,36.4,151.8z M19,97.7c0,0.4-0.1,0.6-0.1,0.7c1.1,2.6,1,5.3,1,8c0,2.2,1.5,3.7,2.5,5.8
		c0.5-3.5-0.3-6.5-0.9-9.6c0.5-0.1,0.5,0.6,1.1,0.3C22.1,100.7,21.1,98.9,19,97.7z M16,70.1c0.2-1.5,0.2-3,0-4.5
		c-0.4-2.2-1.1-4.3-2.2-6.3c-0.1-0.2-0.6-0.7,0-0.8c0.9-0.2,0.3-0.5,0.1-0.8c-0.8-0.8-1.7-1.6-2.3-2.5c-0.1,0.1-0.2,0.2-0.2,0.2
		c-0.5,2.2,0.3,4.2,1.1,6.2C13.7,64.4,15.4,67,16,70.1z M50.2,149.6c-4.4,1.1-8,5.5-7.3,8.8C46.1,156.2,48.1,153,50.2,149.6z
		 M76.4,138.9c0.5,1.2,1.2,1.9,1.9,2.7c0.4,0.5,0.7,0.5,1.3,0.2c1.7-0.9,3.4,0,3.7,1.8c0.2,1,0,1.9-0.5,3c1,0,1.8,0,2.6,0
		c0.5,0,1-0.2,0.8-0.8c-0.4-0.9-0.7-1.9-1.4-2.6C82.8,140.5,80,139.1,76.4,138.9z M135.6,161c-0.3-1-0.6-1.7-0.9-2.4
		c-1.1-2.8-2.5-5.5-4.9-7.5c-0.6-0.5-1.2-1.2-2.2-1c3.7,3.5,4.9,5.2,4.9,7.1c-1.3-1-2-2.5-3.5-3.2C130.8,156.6,132,159.7,135.6,161z
		 M93.4,166.3c1-0.2,1.7-0.9,2.3-1.9c0.5-0.8,0.7-1.6,0-2.4c-0.5-0.5-0.8-1.2-1.2-1.8c-0.3-0.4-0.6-0.5-0.9-0.1
		c-0.9,1.1-1.8,2.1-2,3.6C91.3,164.9,92.3,166.3,93.4,166.3z M176,116.4c-4.3-1.3-7,1-9.8,3.4c-0.2,0.2-0.4,0.4-0.3,0.7
		c0.2,0.4,0.5,0.3,0.8,0.3c0.2,0,0.5-0.1,0.7-0.2c2.4-0.9,4.6-2.3,7-3.3C174.9,117,175.4,116.7,176,116.4z M29.3,159.6
		c0.7,0.3,1.2,0.2,1.8,0.1c1.6-0.3,2.6-1.3,3.7-2.3c1.2-1.1,1.1-1.6-0.3-2.4c-1.6-1-2.2-0.8-3,0.9C30.9,157.2,30.5,158.6,29.3,159.6
		z M149,84.9c-0.5,3.5-1.2,6.8,1,9.6c-0.2-2-0.6-3.9-0.2-6.2c1.2,1.9,1,4.1,2.5,5.8C152.9,90.3,150.9,87.8,149,84.9z M145.6,89.6
		c0.2-0.2,0.1-0.4,0-0.6c-0.6-1.3-0.6-1.3-0.4-2.6c0-0.1-0.1-0.1-0.1-0.2c-0.8-1.9-2.1-3.3-3.7-4.9c0,2,0,3.7,0,5.5
		c0,0.7,1.1,1.9,1.4,1.6c0.6-0.6,1-0.1,1.4,0.1C144.8,88.9,145.2,89.3,145.6,89.6z M158.1,105.7c2.1-1.9,3.8-7,3-9.1
		c-0.7,0.8-1.4,1.5-2.1,2.2c-0.3,0.3-0.6,0.5-0.6,1c0,1.5-0.3,2.9-1,4.3c-0.1,0.2-0.3,0.6,0,0.6
		C158.5,104.6,157.9,105.4,158.1,105.7z M165.5,135.4c-3-2.2-9-1.5-11.3,1.3C158,136,161.8,136.5,165.5,135.4z M115.8,158.7
		c-2-2.9-4.4-5.5-8.2-5.9c-0.3,0-0.8-0.4-0.9,0.2c-0.1,0.6,0.4,0.5,0.8,0.6c1.9,0.4,3.4,1.6,5,2.8c-1.9,0.4-3.4-0.3-5-0.7
		c0.5,1.1,1.4,1.5,2.4,1.4C112.1,157,114,157.6,115.8,158.7z M61.3,153.9c-0.8,0.1-1.6,0.2-2.4,0.2c-0.3,0-0.7,0.2-0.8-0.3
		c-0.1-0.4,0.4-0.5,0.7-0.5c2.2-0.6,4.1-1.9,6.3-2.7c-3.9-0.5-8.1,1.8-9.4,5.3C57.7,155.6,59.8,155.6,61.3,153.9z M74.7,157.9
		c-2.4,5-2.8,10-1.4,15.3c0.8-0.9,1.1-1.8,0.9-3.1c-0.7-3.4-0.8-6.9,0.3-10.3C74.7,159.3,75,158.7,74.7,157.9z M21.3,86.1
		c0.7-2.9,2.3-5.5,2.7-8.4C20,80.6,19,83.4,21.3,86.1z M58,142.7c1.6,4,4.9,6.3,8.3,5.7C63.6,146.6,60.9,144.7,58,142.7z M32.4,86.7
		c-1.8,2-3,5.5-3.6,10c1.5-1.8,1.6-3.9,2.4-5.6c0.6,0.5,0.4,1.1,0.7,1.7C32.6,90.8,32.5,88.8,32.4,86.7z M123.5,158.1
		c-2.7-4.3-7.7-7.3-11.2-6.7c1.2,0.5,2.4,0.9,3.6,1.4c1.6,0.6,3,1.5,4.1,2.9C120.8,156.8,121.8,157.8,123.5,158.1z M79.5,149.2
		c0,0-0.2,0.1-0.2,0.1c-0.9,1-1.8,1.9-2.3,3.1c0,0.1-0.2,0.2,0,0.4c0.9,1.2,1.5,1.3,2.6,0.1c0.5-0.5,0.9-1.1,1.3-1.7
		C81.4,150.2,80.8,149.2,79.5,149.2z M17.7,132c-0.5-2.2-3-2.9-5.6-1.5c1.5,1.5,3.1,2.7,4.9,3.6c0.2,0.1,0.5,0.6,0.8,0.2
		c0.2-0.3-0.2-0.5-0.5-0.7c-1.1-0.9-2.2-1.6-3.6-2.4C15.4,130.5,16.3,132.1,17.7,132z M85.5,160.6c-0.8,1.3-1.1,2.7-1.3,4.1
		c-0.1,1.1,0.7,2,1.7,2c0.3,0,1,0,0.7-0.6c-0.5-1.1-0.2-2.3-0.3-3.4C86.3,162,86.2,161.2,85.5,160.6z M10.5,72.5
		c0.6,2.2,4.2,6.8,5.8,7.4C15.5,77.5,12.5,73.6,10.5,72.5z M58,148.2c-4.9-1.5-9.7-3.2-14.1-5.9C48,145.6,52.6,147.9,58,148.2z
		 M77.7,144.8c-0.4-2.7-2.4-4.1-3.9-5.9c-0.1-0.1-0.4-0.1-0.6-0.1c-0.3,0.1-0.1,0.4,0,0.6c0.2,0.6,0.5,1.2,0.7,1.8
		C74.8,142.7,75.8,144.1,77.7,144.8z M102.6,148.9c-0.7,0-1.2-0.3-1.7-0.5c-0.5-0.3-1-0.6-1.5-0.8c-1.2-0.6-2-0.2-2.4,0.8
		c-0.2,0.4-0.1,0.6,0.3,0.7c1,0.1,1.8,0.7,2.8,1C101.4,150.4,101.8,150.3,102.6,148.9z M35.3,116.8c-1.8,0.8-3.2,2.6-3.4,4.2
		c1.1-0.8,2.3-0.4,3.6-0.3C35.4,119.4,35.3,118.2,35.3,116.8z M122.9,169.4c-2.4-1.6-5.1-2.3-7.6-3.3c0,0.1-0.1,0.2-0.1,0.3
		c0.4,0.4,0.8,0.7,1.2,1.1c-0.3,0.2-0.6,0-0.8,0.3C118.1,167.9,120.2,170,122.9,169.4z M163.4,137.2c-2.8-0.1-5.6-0.2-8.4,0.9
		C158.1,139.8,160.7,138,163.4,137.2z M10.2,82c2.1,1.9,3.9,3.4,6.6,4.2C15.2,83.6,13.3,82.1,10.2,82z M69.9,147.5
		c1,1.5,2.3,2.7,4.1,3.4c0.7,0.3,1.2,0.1,1.6-0.6c0.1-0.2,0.5-0.6-0.1-0.7C73.5,149.2,71.8,148.1,69.9,147.5z M35.5,70.1
		c-0.7,0.2-1,0.5-1.2,1.2c-0.6,2.9-0.1,5.7,0.2,8.5C34.8,76.6,35.2,73.4,35.5,70.1z M9.7,69.8c1.8,2.7,4.8,4.2,6.6,7
		C15.1,73.6,13,71.2,9.7,69.8z M105.3,154.3c-0.2-0.5,0.3-1.4-0.6-1.3c-0.8,0.1-1.7,0.5-2.3,1.2c-0.5,0.6-0.6,1.4,0,1.8
		c0.8,0.5,1.7-0.2,2.5-0.4C105.6,155.3,105.1,154.7,105.3,154.3z M125.1,141.2c-1.1,1.5-2.2,3-3.3,4.5c1.7-0.5,3.1-1,4.4-1.9
		C125.3,143,125.3,143,125.1,141.2z M103.5,143.2c1.2-1,2.1-2.1,2.7-3.4c0.1-0.3,0.5-0.7,0.1-0.9c-0.4-0.2-0.9-0.3-1.3,0.2
		c-0.5,0.6-1,1.3-1.4,1.9C103.1,141.7,103,142.4,103.5,143.2z M24.6,121.4c-0.3-0.6-0.8-1.1-1.4-1c-0.7,0.1-1.3,0.6-1.2,1.5
		c0,0.7,0.6,1.1,1.2,1C23.9,122.8,24.3,122.2,24.6,121.4z M78.6,157.3c0.7,0.2,1-0.2,1.4-0.3c1.4-0.5,2.8-1.1,4.2-1.7
		c0.3-0.1,0.5-0.3,0.5-0.7c-0.1-0.4-0.3-0.3-0.5-0.2C82.1,155,80.3,155.9,78.6,157.3z M32.1,123.3c0,0.6,0.3,1,1,1.1
		c0.8,0.1,1.4-0.2,1.4-1c0-0.8-0.5-1.5-1.2-1.6C32.7,121.7,32.2,122.4,32.1,123.3z M52.4,142.5c-0.1-0.9-0.9-1.2-1.6-1.2
		c-0.9-0.1-1.1,0.8-1.1,1.4c0,0.7,0.8,0.8,1.3,0.9C51.8,143.6,52.2,143.1,52.4,142.5z M153.1,87.8c0.7,2.6,0,5.1,0.5,7.6
		c0.5-2.1,0.3-4.3,0.7-6.4C154.4,87.8,154.2,87.5,153.1,87.8z M69.9,144.6c-1.2-1.5-2.4-3-3.1-4.8c-0.2-0.6-0.6-1.1-1.5-0.9
		C66.5,141.1,67.9,143.1,69.9,144.6z M82,144.1c0-0.6-0.3-1.2-1-1.2c-0.7,0-1.3,0.5-1.3,1.3c0,0.7,0.5,1,1.2,1.1
		C81.5,145.2,82,144.9,82,144.1z M150.2,83.3c-0.3-2.1-1-4.1-1.2-6.2C148.2,79.4,148.8,81.5,150.2,83.3z M17.1,94
		c0.8-0.1,1.2-0.5,1.2-1.3c0-0.7-0.7-1-1.2-1c-0.8,0-1,0.7-1.1,1.3C16,93.5,16.5,93.9,17.1,94z M146.1,122.8c0.7,0.1,1.1-0.2,1.1-1
		c0-0.8-0.5-1.2-1.2-1.2c-0.8,0-1,0.5-1,1.2C145,122.5,145.3,122.8,146.1,122.8z M99.3,143.7c0-0.7-0.3-1.1-1-1.1
		c-0.7,0-1.2,0.3-1.2,1c0,0.8,0.6,1,1.3,1.1C99.2,144.8,99.2,144.2,99.3,143.7z M128.8,142.1c-0.1-0.8-0.2-1.4-0.9-1.3
		c-0.6,0.1-1.4,0.1-1.3,1c0.1,0.6,0.6,1.2,1.3,1.2C128.5,143,128.9,142.6,128.8,142.1z M154.1,86c0.6,0.1,1-0.3,1-0.9
		c0-0.7-0.4-1.2-1-1.2c-0.8,0-0.8,0.7-0.9,1.3C153.1,85.9,153.6,86,154.1,86z M35.2,108.4c-0.7,1.7-1.4,3.4-2,5.1
		c0.1,0,0.2,0.1,0.3,0.1C34.4,112,35.7,110.5,35.2,108.4z M35.3,125.7c-1.8,0.2-1.8,0.2-0.8,1.6c0.2,0.3,0.3,0.7,0.8,0.9
		C35.4,127.3,35.3,126.5,35.3,125.7z M82.1,151.2c0.4,0,0.8,0,1.2,0.1c0.4,0,0.8,0.1,1.2,0.2c0.2,0,0.5,0.1,0.6-0.2
		c0.1-0.3,0-0.6-0.2-0.7C84.5,150.2,82.5,150.6,82.1,151.2z M23.6,108.1c-0.1,1.3-0.2,2.7,0.6,4.2C24.3,110.6,24.4,109.3,23.6,108.1
		z M81.2,148.3c0.9,1.1,1.9,0.6,2.7,0.7c0.2,0,0.5,0,0.5-0.3c0-0.2-0.3-0.4-0.5-0.4C83.1,148.3,82.3,148.3,81.2,148.3z M43.6,138.7
		c-0.3,0-0.7,0-0.6,0.3c0.2,0.5,0.6,1,1.3,1.2c0.4,0.1,0.4-0.3,0.4-0.5C44.7,138.9,44.1,138.8,43.6,138.7z M102,151.4
		c0.8-0.6,1.7-0.4,2-1.2c0,0-0.3-0.3-0.4-0.3C102.8,149.9,102.5,150.5,102,151.4z M98.5,151.1c-0.7-0.1-1.3-0.2-1.8-0.3
		c-0.2,0-0.5-0.1-0.5,0.2c0,0.3,0.2,0.4,0.4,0.4C97.2,151.5,97.9,151.4,98.5,151.1z M121,148.1c0.1,0,0.3,0,0.4,0
		c0,0,0.1-0.1,0.1-0.1c-0.1,0-0.2,0-0.3,0C121.1,147.9,121.1,148,121,148.1z M122.2,147.7c-0.1,0-0.1-0.1-0.2-0.1
		c-0.1,0-0.1,0.1-0.2,0.1c0.1,0,0.1,0.1,0.2,0.1C122.1,147.8,122.2,147.8,122.2,147.7z"/>
	<path class="st1" d="M88.1,144.1c-1.3-2.4-2.8-4.2-4.9-5.5c-1.8-1.1-3.6-1.6-5.7-1.7c-6.8,0-13.6,0-20.4-0.1
		c-4.6,0-9.2-0.1-13.8-0.2c-1.9,0-4.8-2.6-5.2-4.5c-0.4-1.7-0.4-3.4-0.4-5.1c0-13.8,0.1-27.6,0.1-41.4c0-21.4,0.1-42.9,0.1-64.3
		c0-1.6,0-1.6,1.6-1.6c15.1,0,30.2-0.1,45.3,0c10.3,0.1,20.6,0,30.9,0.1c7.4,0,14.8,0.1,22.2,0.1c1,0,1.2,0.3,1.2,1.3
		c0,36.4,0,72.8,0,109.2c0,3-3.4,6.3-6.1,6.3c-6.5,0-12.9,0.1-19.4,0.2c-5.5,0.1-11.1,0.1-16.6,0.2c-0.7,0-1.3,0.3-1.9,0.6
		C92.2,139.1,89.8,141.1,88.1,144.1z M60.7,41.2L60.7,41.2c1-1.5,1.3-3.2,1.6-5c0.4-2.9-1.4-5.3-4.4-5.5c-0.6,0-1.1,0-1.7,0
		c-0.4,0-0.9,0.2-1.1-0.2c-0.2-0.4,0.2-0.7,0.4-1c1.3-2,1-4.2-0.8-5.7c-1.5-1.2-3.2-2.3-4.8-3.4c-0.2-0.1-0.4-0.3-0.6,0
		c-0.8,1.4-2.3,1.8-3.6,2.4c-2.2,1.1-3,2.3-2.6,4.8c0.1,0.7,0.2,1.3,0.5,2c0.4,0.9,0.4,1.3-0.7,1.5c-2.4,0.4-3.7,2-4.3,4.3
		c-0.3,1.3-0.3,2.7,0,4c0.4,1.7,1.4,2.8,3.1,3.1c0.8,0.2,1.6,0,2.2,0c-0.3,1.4-0.6,2.9,0,4.2c0.6,1.1,0.3,1.9-0.2,2.7
		c-0.3,0.4-0.6,0.8-0.9,1.2c-0.1,0.2-0.4,0.4-0.3,0.6c0.1,0.3,0.4,0.2,0.6,0.2c0.8,0,1.5-0.3,2.2-0.4c0.3-0.1,0.8-0.2,0.8,0.3
		c0,1.7,1.3,2.6,2.5,3.4c0.6,0.4,1.1,1,1.7,1.1c0.7,0.1,0.9-0.9,1.4-1.3c0.2-0.2,0.5-0.3,0.7-0.4c0.5-0.4,0.9-0.7,1-1.4
		c0.2-1.1,0.8-1.4,1.9-1c0.3,0.1,0.6,0.6,0.9,0.1c0.3-0.4,0.7-0.9,0.4-1.4c-0.6-1.2-1-2.3-0.2-3.8c0.6-1,0.5-2.4,0.1-3.6
		c-0.2-0.6,0-0.7,0.5-0.7c0.2,0,0.5,0,0.7,0c1.3-0.4,1.4,0.3,1.4,1.3c0,13.3,0,26.5,0,39.8c0,3.2,0,6.3,0,9.5c0,0.4-0.2,1,0.5,0.9
		c1.5-0.2,2.9,0.4,4.4,0.5c8.5,0.7,16.1,3.7,23,8.6c0.7,0.5,0.7,0.9,0.1,1.4c-1,1-2.4,1.4-3.6,2.1c-1.4,0.7-2.2,1.8-2,3.5
		c0.1,1.7,0.8,3.1,2.2,4.2c0.4,0.3,0.7,0.7,1,1c0.2,0.2,0.3,0.4,0.2,0.6c-0.2,0.3-0.4,0.1-0.6,0c-0.6-0.2-1.1-0.4-1.7-0.5
		c-1.7-0.5-3.9,0.3-4.8,1.6c-1.6,2.2-1.5,7,0.2,9.1c0.3,0.4,0.7,0.7,1.3,0.7c0.9,0.1,1.5,0.7,1.7,1.6c0.2,0.7,0.2,1.3,0.3,2
		c0,0.4,0,0.9,0.4,1.1c1.3,0.5,0.9,1.3,0.5,2.1c-0.2,0.4-0.5,0.8-0.8,1.2c-0.4,0.7-0.3,1,0.6,1c1.9-0.1,1.9,0,3.5,1.1
		c0.7,0.5,1.6,0.9,1.9,1.7c0.4,0.8,0.5,0.6,1.3,0.3c2.3-1.1,3.7-4.1,6.8-3.3c0,0,0.1-0.1,0.2-0.2c-0.6-0.6-1-1.4-1.4-2.1
		c-0.5-1,0.3-1.7,0.4-2.5c0.1-1,0.3-2.1,0.4-3.1c0-0.6,0.2-0.8,0.8-0.7c1.6,0.2,2.7-0.6,3.6-1.7c2.4-2.8,2.7-6,1-9.2
		c-0.5-1-1.3-1.5-2.4-1.8c-1.4-0.3-2.8,0-4.4,0.2c0.2-0.4,0.4-0.7,0.5-0.9c1.8-3.3,1.3-5.4-1.8-7.5c-0.9-0.6-1.8-1.1-2.8-1.7
		c-0.6-0.3-0.6-0.6,0-1c4.7-3.8,10.2-5.9,15.9-7.7c3.7-1.2,7.5-1.4,11.3-1.8c0.8-0.1,1.1-0.3,1.1-1.2c0-12,0-24,0-35.9
		c0-4.7,0-9.4,0-14.2c1.7,0.5,3.3,0.7,5.1,0.2c-0.4,0.6-0.4,1.3-1.1,1.2c-0.9-0.1-1,0.5-1,1.1c0,0.6-0.2,1.4,0,1.9
		c0.6,1.4,0.3,2.5-0.6,3.6c-0.2,0.3-0.3,0.6,0.3,0.6c1.3,0,2.4,0.3,3,1.7c0.1,0.2,0.3,0.3,0.5,0.5c1,0.6,2.1,1,2.9,1.9
		c0.3,0.3,0.5,0.1,0.7-0.1c1-0.8,2-1.6,2.7-2.7c0.5-0.8,1.1-1,1.9-1c0.4,0,0.7,0,1.1,0c0.3,0,0.8,0.2,1-0.2c0.1-0.3-0.3-0.5-0.4-0.8
		c-0.5-0.8-1.1-1.3-0.5-2.5c0.5-0.9,0.2-2.2,0.1-3.3c-0.1-0.6-0.9-0.2-1.3-0.5c-0.5-0.4-0.9-0.9-0.6-1.4c0.4-0.7,0.8,0,1.2,0.2
		c2.9,1.2,5.2,0,5.5-3.1c0.1-1.1,0.1-2.3,0-3.5c0-2.8-2.4-4.7-5.2-4.3c-1.1,0.2-2,0.7-3.1,1.2c0.4-1.3,1.4-1.8,2.1-2.5
		c2.5-2.3,2.4-5.1-0.2-7.3c-0.9-0.8-2.1-1.3-3.1-2c-1.3-0.8-2.3-1.2-3.6,0.2c-1.1,1.1-2.6,1.6-3.9,2.4c-1.5,1-2.3,2.5-1.7,4.1
		c0.5,1.4,1.3,2.8,3.1,3.2c1.2,0.3,2,1.4,1.9,2.6c-0.7-0.5-1.4-1-2.1-1.4c-2.9-1.6-6.3,0.1-6.6,3.3c-0.2,1.9-0.1,3.9,0.7,5.7
		c0,0-0.1,0.1-0.1,0.1c-0.5,0-1,0-1.3-0.4c-0.3-0.4-0.8-0.3-1.2-0.3c-3.1,0.4-6.2,0.7-9.3,1.2c-5.4,0.8-10.7,2.2-15.3,5.5
		c-0.6,0.4-0.9,0.2-1.3-0.2c-1.8-1.4-3.8-2.5-5.9-3.3c-4.6-1.8-9.5-2.8-14.4-3.2c-2.2-0.2-4.3-0.5-6.3,0.5
		C61.2,41.3,60.9,41.2,60.7,41.2z"/>
	<path class="st1" d="M113.7,139.2c0,0,0.1-0.1,0.1-0.1C113.7,139.1,113.8,139.2,113.7,139.2C113.7,139.2,113.7,139.2,113.7,139.2
		C113.6,139.2,113.7,139.2,113.7,139.2z"/>
	<path class="st0" d="M116.6,41.4c-0.8-1.8-0.9-3.8-0.7-5.7c0.3-3.3,3.7-5,6.6-3.3c0.7,0.4,1.4,0.9,2.1,1.4c0.1-1.2-0.7-2.3-1.9-2.6
		c-1.8-0.4-2.6-1.9-3.1-3.2c-0.6-1.6,0.2-3.2,1.7-4.1c1.3-0.8,2.9-1.4,3.9-2.4c1.3-1.4,2.4-0.9,3.6-0.2c1.1,0.6,2.2,1.2,3.1,2
		c2.6,2.2,2.6,5,0.2,7.3c-0.7,0.7-1.7,1.2-2.1,2.5c1.1-0.5,2.1-1,3.1-1.2c2.7-0.4,5.1,1.6,5.2,4.3c0,1.2,0.1,2.3,0,3.5
		c-0.3,3.1-2.7,4.3-5.5,3.1c-0.3-0.1-0.8-0.9-1.2-0.2c-0.3,0.6,0.1,1,0.6,1.4c0.4,0.3,1.3-0.1,1.3,0.5c0.1,1.1,0.4,2.4-0.1,3.3
		c-0.6,1.2,0,1.8,0.5,2.5c0.2,0.3,0.6,0.5,0.4,0.8c-0.2,0.4-0.6,0.2-1,0.2c-0.4,0-0.7,0-1.1,0c-0.8,0-1.5,0.2-1.9,1
		c-0.6,1.1-1.7,1.9-2.7,2.7c-0.2,0.2-0.5,0.4-0.7,0.1c-0.8-0.9-1.9-1.3-2.9-1.9c-0.2-0.1-0.4-0.3-0.5-0.5c-0.6-1.3-1.7-1.7-3-1.7
		c-0.5,0-0.5-0.3-0.3-0.6c0.9-1.1,1.2-2.2,0.6-3.6c-0.2-0.5,0-1.3,0-1.9c0-0.6,0.1-1.2,1-1.1c0.7,0.1,0.7-0.6,1.1-1.2
		c-1.8,0.5-3.4,0.3-5.1-0.2c0,4.8,0,9.5,0,14.2c0,12,0,24,0,35.9c0,0.9-0.3,1.1-1.1,1.2c-3.8,0.4-7.6,0.7-11.3,1.8
		c-5.7,1.8-11.2,4-15.9,7.7c-0.5,0.4-0.5,0.7,0,1c0.9,0.5,1.9,1.1,2.8,1.7c3.1,2.1,3.6,4.1,1.8,7.5c-0.1,0.3-0.3,0.5-0.5,0.9
		c1.5-0.2,2.9-0.5,4.4-0.2c1.1,0.2,1.9,0.8,2.4,1.8c1.7,3.2,1.4,6.5-1,9.2c-0.9,1.1-2.1,1.9-3.6,1.7c-0.6-0.1-0.8,0.1-0.8,0.7
		c-0.1,1-0.2,2.1-0.4,3.1c-0.1,0.8-0.9,1.5-0.4,2.5c0.4,0.8,0.9,1.5,1.4,2.1c-0.1,0.1-0.2,0.2-0.2,0.2c-3.2-0.7-4.6,2.2-6.8,3.3
		c-0.7,0.4-0.9,0.5-1.3-0.3c-0.4-0.8-1.2-1.2-1.9-1.7c-1.6-1.2-1.6-1.2-3.5-1.1c-0.9,0-1-0.3-0.6-1c0.2-0.4,0.5-0.8,0.8-1.2
		c0.4-0.8,0.8-1.6-0.5-2.1c-0.4-0.2-0.4-0.7-0.4-1.1c0-0.7-0.1-1.3-0.3-2c-0.2-0.9-0.8-1.5-1.7-1.6c-0.6-0.1-1-0.3-1.3-0.7
		c-1.6-2.1-1.7-6.9-0.2-9.1c0.9-1.3,3.1-2,4.8-1.6c0.6,0.2,1.1,0.4,1.7,0.5c0.2,0.1,0.5,0.2,0.6,0c0.1-0.2,0-0.5-0.2-0.6
		c-0.3-0.3-0.6-0.7-1-1c-1.4-1.1-2-2.5-2.2-4.2c-0.1-1.7,0.7-2.7,2-3.5c1.2-0.7,2.6-1.1,3.6-2.1c0.6-0.6,0.6-0.9-0.1-1.4
		c-6.9-4.9-14.5-7.9-23-8.6c-1.5-0.1-2.9-0.7-4.4-0.5c-0.7,0.1-0.5-0.5-0.5-0.9c0-3.2,0-6.3,0-9.5c0-13.3,0-26.5,0-39.8
		c0-1.1-0.1-1.8-1.4-1.3c-0.2,0.1-0.5,0-0.7,0c-0.5,0-0.7,0.1-0.5,0.7c0.4,1.2,0.5,2.6-0.1,3.6c-0.8,1.5-0.5,2.5,0.2,3.8
		c0.3,0.5-0.1,1-0.4,1.4c-0.3,0.5-0.6,0-0.9-0.1c-1-0.3-1.7,0-1.9,1c-0.1,0.7-0.6,1-1,1.4c-0.2,0.2-0.5,0.2-0.7,0.4
		c-0.5,0.4-0.7,1.4-1.4,1.3c-0.6-0.1-1.1-0.7-1.7-1.1c-1.2-0.8-2.5-1.7-2.5-3.4c0-0.6-0.5-0.4-0.8-0.3c-0.7,0.1-1.5,0.4-2.2,0.4
		c-0.2,0-0.5,0.1-0.6-0.2c-0.1-0.3,0.1-0.4,0.3-0.6c0.3-0.4,0.7-0.8,0.9-1.2c0.5-0.9,0.8-1.6,0.2-2.7c-0.7-1.2-0.3-2.7,0-4.2
		c-0.6,0-1.4,0.1-2.2,0c-1.7-0.4-2.8-1.4-3.1-3.1c-0.3-1.4-0.3-2.7,0-4c0.5-2.3,1.9-3.9,4.3-4.3c1.1-0.2,1.1-0.6,0.7-1.5
		c-0.3-0.6-0.4-1.3-0.5-2c-0.4-2.4,0.3-3.7,2.6-4.8c1.3-0.6,2.8-1,3.6-2.4c0.2-0.3,0.4-0.1,0.6,0c1.6,1.1,3.3,2.1,4.8,3.4
		c1.8,1.5,2.1,3.6,0.8,5.7c-0.2,0.3-0.6,0.6-0.4,1c0.2,0.4,0.7,0.2,1.1,0.2c0.6,0,1.1,0,1.7,0c2.9,0.2,4.8,2.6,4.4,5.5
		c-0.3,1.7-0.5,3.5-1.5,5c0,0-0.1,0.1-0.1,0.1c0,0,0.1,0,0.1,0c0-0.1,0-0.1,0-0.2c0.2,0,0.5,0.1,0.7,0c2.1-1,4.2-0.7,6.3-0.5
		c5,0.5,9.8,1.4,14.4,3.2c2.1,0.8,4.1,1.9,5.9,3.3c0.4,0.3,0.7,0.6,1.3,0.2c4.6-3.3,9.8-4.7,15.3-5.5c3.1-0.5,6.2-0.8,9.3-1.2
		c0.4-0.1,0.9-0.1,1.2,0.3c0.4,0.4,0.8,0.4,1.3,0.4c0.1,0,0.1,0,0.2,0C116.6,41.5,116.6,41.5,116.6,41.4z M85.4,112.9
		c-0.1-0.1-0.2-0.2-0.3-0.2c-0.4-1.7-0.3-3.4,0.3-5.4c-0.6,0.4-1,0.6-1.4,0.8c-0.9,0.7-1.5,2.5-0.9,3c0.6,0.5,1.1,1.3,1.9,1.5
		C85.1,112.8,85.2,112.9,85.4,112.9c0,0.2,0.1,0.4,0.2,0.5c0.1,0.1,0.2,0.2,0.3,0.2c0.7,1.4,1.3,2.7,1.5,4.3
		c0.4,2.5,0.4,5.1,0.4,7.6c0,0.7,0.3,0.8,1,0.9c0.7,0,0.8-0.3,0.8-0.9c0-2.1,0.1-4.2,0-6.3c-0.1-1.9,0.6-3.4,1.9-4.7
		c0.8-0.8,1.6-1.7,2.2-2.7c0.7-1.1,0.5-2.1-0.5-3.1c0.1,1.7,0.2,3.3-1.3,4.5c-0.4,0.3-0.9,0.8-1.4,0.4c-0.5-0.4,0.1-0.8,0.3-1.2
		c1.1-2.1,1.1-3-0.2-4.4c-0.2-0.3-0.5-0.8-0.9-0.6c-0.4,0.1-0.2,0.6-0.2,1c-0.2,2.8-0.3,5.6-0.4,8.4c0,0.4,0.1,0.8-0.4,0.9
		c-0.6,0.1-0.4-0.5-0.5-0.8c-0.3-1.4-0.4-2.9-0.2-4.4c0.2-1.5,0.1-3-0.3-4.5c-1.6,1.4-1.8,2.4-1,4.1c0.2,0.4,0.3,0.8,0.5,1.2
		c0.2,0.6,0,0.8-0.6,0.5c-0.2-0.1-0.4-0.2-0.7-0.2c0-0.2-0.1-0.2-0.3-0.2C85.6,113.2,85.6,113,85.4,112.9z M122.7,49.6
		c0.4,0,0.7-0.4,0.9-0.6c0.2-0.2,0.3-0.4,0.2-0.6c-0.1-0.2-0.3-0.3-0.5-0.3c-0.3,0-0.5,0.2-0.5,0.5
		C122.8,48.9,122.8,49.3,122.7,49.6c0,0.1,0,0.1,0,0.2C122.7,49.7,122.7,49.7,122.7,49.6z M135,41.5c1.4-0.2,1.8-1.3,2-2.5
		C136.5,40,135.7,40.7,135,41.5C135,41.5,134.9,41.5,135,41.5c-0.1,0.1-0.1,0.1-0.1,0.1C134.9,41.5,134.9,41.5,135,41.5z
		 M124.7,23.5c-0.9,0.1-1.6,0.6-2.3,1.2c-1.9,1.8-2.4,3.4,0.5,4.7c1.3,0.6,2,1.6,2.6,2.8c0.7,1.6,1.1,3.2,1.1,5c0,1.9,0,3.8-0.3,5.7
		c-0.1,0.6,0.2,0.8,0.7,0.8c0.4,0,1.1,0.2,1-0.6c-0.1-2.2,0.4-4.4,0-6.7c-0.5-2.9,0.3-5.3,2.9-7c1.8-1.2,1.9-3.8,0.1-4.8
		c0.4,2.5,0.2,2.9-1.3,4.2c-0.3,0.2-0.6,0.6-0.9,0.2c-0.3-0.3,0-0.5,0.2-0.8c1.1-1.4,0.5-3.8-1.2-4.5c-0.5,3.4-0.3,6.8-1,10.2
		c-0.6-0.9-0.5-1.8-0.5-2.8c0-2,0-4,0-6c0-0.6-0.2-0.8-0.8-0.5c-1.5,0.8-1.9,1.8-1,3.4c0.1,0.1,0.2,0.3,0.2,0.4
		c0.1,0.3,0.2,0.6-0.1,0.8c-0.2,0.1-0.5-0.1-0.7-0.2c-1.7-1.1-1.9-2.7-0.6-4.3C123.8,24.4,124.5,24.2,124.7,23.5c0.1,0,0.1,0,0.2,0
		c0,0,0-0.1-0.1-0.1C124.8,23.4,124.7,23.5,124.7,23.5z M89.5,95.8c3.9-2.8,8-4.7,12.4-5.8c3.1-0.8,6.3-1.3,9.5-1.7
		c1-0.1,1.1-0.5,1.1-1.3c0-10.3,0-20.6,0-30.9c0-4.2,0-8.3,0-12.4c0-1.1-0.3-1.4-1.3-1.2c-1.3,0.2-2.6,0.3-3.9,0.5
		c-5.9,0.8-11.6,2.5-16.7,5.7c-0.8,0.5-1.1,1.1-1.1,2c0,14.6,0,29.3,0,43.9C89.5,94.9,89.5,95.2,89.5,95.8z M87.8,72.1
		C87.8,72.1,87.8,72.1,87.8,72.1c-0.1-7.3-0.1-14.7-0.1-22c0-0.7-0.2-1.1-0.7-1.5c-2.2-1.6-4.6-2.9-7.3-3.8c-4.4-1.6-9-2-13.6-2.6
		c-0.8-0.1-1,0.2-0.9,0.9c0.1,0.6,0,1.1,0,1.7C65.3,58.9,65.1,73,65,87.1c0,0.7,0,1.3,1,1.4c7.3,0.9,14.2,2.9,20.7,6.3
		c0.9,0.5,1.2,0.4,1.2-0.7C87.8,86.8,87.8,79.5,87.8,72.1z M46.2,24.2c-2.1,1.4-2.4,2.7-1.1,4.6c0.4,0.5,0.7,1.1,1.2,1.5
		c1.8,1.5,2.7,3.4,3,5.7c0.3,1.9,0.2,3.8,0.2,5.7c0,0.8,0.5,1,1.1,0.7c0.6-0.3,0.5-0.8,0.4-1.3c-1-4.6-0.1-8.7,3.2-12.2
		c1-1.1,0.7-3.4-0.6-4.4c-0.1,1.5-0.2,2.9-1.2,4.1c-0.4,0.4-0.8,1.3-1.3,1c-0.5-0.3,0.1-1.1,0.4-1.6c1.2-2,1-3-1-4.6
		c-0.9,3.4,0.2,7-1,10.3c-0.2-1.7-0.3-3.3-0.4-5c-0.1-1.7-0.2-3.4-0.4-5.2c-1.7,1.4-1.9,2.1-1.2,3.9c0.1,0.3,0.2,0.7,0.3,1
		c0.1,0.4,0.3,0.9,0,1.1c-0.5,0.2-0.8-0.3-1-0.7C46,27.5,46,25.9,46.2,24.2z M116.5,70.4C116.5,70.4,116.5,70.4,116.5,70.4
		c0-0.4,0-0.8,0-1.2c0.1-8.4,0.1-16.8,0.2-25.1c0-0.4,0.2-1-0.4-1c-0.5,0-0.3,0.6-0.3,0.9c-0.1,9.1-0.2,18.3-0.2,27.4
		c0,6.3-0.1,12.6-0.1,18.9c0,0.9-0.2,1.2-1.1,1.3c-1.6,0.2-3.1,0.5-4.7,0.7c-6.7,0.9-13,3.1-18.8,6.7c-0.3,0.2-1,0.3-0.8,0.8
		c0.2,0.4,0.7-0.1,1-0.3c1.8-1.1,3.7-2,5.6-3c5.8-2.8,12.1-3.5,18.4-4.5c0.9-0.1,1.2-0.5,1.1-1.3C116.5,83.9,116.5,77.1,116.5,70.4z
		 M61.4,60.3C61.4,60.3,61.4,60.3,61.4,60.3c0.1-5.4,0.1-10.8,0-16.2c0-0.5,0.3-1.3-0.4-1.3c-0.6,0-0.3,0.9-0.3,1.3
		c0,9.5,0,18.9,0.2,28.4c0.1,6.2,0.1,12.4,0,18.6c0,1,0.4,1.2,1.2,1.3c3.2,0.4,6.4,1,9.5,1.6c5.3,1,10.1,3.2,14.8,5.7
		c0.2,0.1,0.5,0.6,0.8,0.1c0.2-0.4-0.3-0.4-0.5-0.5c-3.3-1.8-6.7-3.5-10.4-4.6c-4.6-1.5-9.4-2.1-14.2-2.8c-0.8-0.1-1-0.3-1-1.1
		c0.1-4.9,0-9.8,0.1-14.7C61.5,70.8,61.4,65.6,61.4,60.3z M114,42.8c-0.3,0.3-0.1,0.7-0.1,1.1c0,14.5,0,29,0,43.5c0,2.1,0,2.1-2,2.4
		c-0.3,0-0.5,0.1-0.8,0.1c-7.3,0.7-14,3.3-20.3,7c-0.2,0.1-0.8,0.3-0.5,0.6c0.3,0.4,0.6,0,0.8-0.2c2.7-1.5,5.5-3,8.4-4.1
		c4.5-1.8,9.2-2.5,14-3.1c0.6-0.1,0.8-0.2,0.8-0.9c0-4.7,0.1-9.4,0.2-14.1c0-3.1,0-6.2,0.1-9.3c0.1-7.1,0.2-14.3,0.2-21.4
		C114.6,43.8,114.8,43.1,114,42.8z M63.3,42.8c-0.7,0.3-0.5,1-0.5,1.5C62.9,55,62.9,65.6,63,76.3c0,4.4,0,8.7,0,13.1
		c0,0.7,0.2,1,1,1.1c3.2,0.4,6.3,1,9.4,1.7c4.5,1,8.5,3,12.7,4.9c0.3,0.2,0.7,0.6,1.1,0.3c0-0.4-0.2-0.5-0.4-0.6
		c-3.5-1.7-7-3.4-10.8-4.6c-3.4-1-7-1.6-10.5-2.2c-1.9-0.3-2.1-0.5-2.1-2.3c0-14.6,0-29.1,0-43.7C63.4,43.7,63.5,43.2,63.3,42.8z
		 M59.8,39.3c0.8-0.9,0.9-1.6,1-2.3c0.4-2.1-0.9-4.4-2.6-5c-2-0.7-3.7,0.1-4.9,2.3c-1.3,2.4-1.1,5-1,7.6c0,0.3,0.2,0.5,0.5,0.5
		c0.6-0.1,0.3-0.4,0.2-0.7c-0.3-1.4-0.5-2.7-0.4-4.1c0.2-1.8,1.4-3,3.2-3.2c1.8-0.2,3.2,0.7,3.8,2.4C60,37.5,60,38.2,59.8,39.3z
		 M87.9,130c1.4,0,2.9,0,4.3,0c0.8,0,1.1-0.1,1.1-1c0-0.9-0.4-1.1-1.1-1c-0.3,0-0.6,0-1,0c-2.4-0.1-4.9-0.2-7.3-0.2
		c-1.3,0-1.6,0.3-1.5,1.7c0.1,1,0.9,0.5,1.4,0.5C85.2,130,86.6,130,87.9,130z M99.6,121.9c0.7-1.4,0.7-2,0.5-3.4
		c-0.4-3.4-3.6-3.6-5.6-2.3c-2.4,1.5-4.2,7-3.3,9.6c0.1,0.3,0.2,0.5,0.6,0.5c0.4-0.1,0.3-0.4,0.3-0.6c-0.2-0.8-0.2-1.7-0.2-2.5
		c0.1-2.5,1-4.5,3.3-5.7c2-1,3.8-0.1,4.2,2.1C99.4,120.2,99.5,120.9,99.6,121.9z M50.3,43.9C50.3,43.9,50.3,43.9,50.3,43.9
		c-1.4,0-2.8,0-4.2,0c-1.1,0-0.7,0.9-0.9,1.4c-0.1,0.6,0.4,0.5,0.8,0.5c2.7,0.1,5.5,0.1,8.2,0.2c0.6,0,1,0,0.9-0.8
		c-0.1-0.6,0-1.3-1-1.3C52.9,44,51.6,43.9,50.3,43.9z M82.8,125.5c-0.1-0.1-0.2-0.1-0.2-0.1c-2.3,0.3-4.1-2.4-3.7-4.8
		c0.3-2.1,2.2-3.1,4.7-2.6c0.2,0,0.3,0.1,0.4-0.1c0.2-0.2,0.1-0.3-0.1-0.5c-0.9-1.1-3.8-0.9-4.7,0.3c-1.9,2.3-1.5,4.7-0.3,7.1
		C79.9,126.5,81.4,126.7,82.8,125.5z M127.1,46.8c0-0.1,0-0.1,0-0.2c1.5,0,2.9,0,4.4,0c0.5,0,0.7-0.2,0.7-0.7
		c-0.1-0.4-0.2-0.6-0.7-0.6c-2.7,0-5.4,0-8.1,0c-0.5,0-0.8,0.2-0.8,0.8c0,0.6,0.3,0.7,0.8,0.7C124.6,46.7,125.8,46.8,127.1,46.8z
		 M40.5,34.2c0.2,0.1,0.2,0.1,0.3,0.1c0.1,0,0.2,0,0.2,0c1.7-1.3,3.4-0.9,4.9,0.2c1.5,1.1,1.6,2.7,1.3,4.4c-0.2,0.9-0.3,1.9-0.4,2.8
		c0,0.3-0.3,0.7,0.3,0.7c0.4,0,0.6-0.2,0.6-0.6c0.1-2.4,0.3-4.7-0.7-7C45.8,31.4,42.3,31.9,40.5,34.2z M117.7,38.8c0-0.5,0-1,0-1.5
		c0.2-2.6,1.9-3.6,4.2-2.7c1.5,0.6,2.2,1.7,2.5,3.1c0.2,1.3,0.5,2.7,0,4c-0.1,0.2-0.1,0.5,0.3,0.5c1.1-3.3-0.2-6.9-3.1-8.5
		c-1.8-1-3.1-0.6-4,1.3C117.1,36.2,117.1,37.5,117.7,38.8z M137.1,37.5c-0.1-1.3-0.7-2.9-1.2-3.6c-0.5-0.6-1.1-0.9-1.9-0.8
		c-1.7,0.1-3.6,1.4-4.1,3c-0.6,2.2-0.2,4.4-0.1,6.6c0.2-0.7,0.2-1.4,0.2-2.2c0-1.4,0-2.8,0.5-4.1c0.5-1.4,1.8-2.3,3.1-2.4
		c1.6,0,2.5,0.7,3.1,2.3C136.8,36.7,136.9,37,137.1,37.5z M49.7,47.6c-0.1,0-0.2,0-0.3-0.1c-0.3,0.7-0.7,1.4-1.2,2
		c-1.4,1.9-0.4,2.6,0.8,3.8c0.3,0.2,0.7,0.3,0.7-0.3C49.7,51.2,49.7,49.4,49.7,47.6z M57.9,38.7c0.1-1.1-0.5-1.4-1.4-1.4
		c-0.8,0-1.5,0.8-1.5,1.7c0,0.7,1,1.6,1.7,1.6C57.7,40.4,57.8,39.6,57.9,38.7z M122.5,39.1c0-0.7-0.8-1.6-1.5-1.6
		c-0.6,0-1.5,1.1-1.5,1.8c0.1,0.8,0.6,1.3,1.3,1.6C121.2,41.1,122.5,39.7,122.5,39.1z M94.7,122.2c-0.1,0.9,0.6,1.2,1.2,1.3
		c0.5,0.2,1.6-1,1.6-1.7c0-0.8-0.4-1.5-1.3-1.5C95.6,120.3,94.8,121.3,94.7,122.2z M132.3,39c0.2,0.6,0.4,1.4,1.3,1.4
		c0.8-0.1,1.5-0.6,1.7-1.5c0.1-0.6-1.2-1.6-1.8-1.4C132.8,37.7,132.3,38.2,132.3,39z M44.7,37.9c-0.1-0.7-0.4-1.4-1.2-1.5
		c-0.8-0.1-1.5,0.5-1.6,1.3c-0.1,1,0.8,1.2,1.5,1.3C44.2,39.2,44.5,38.7,44.7,37.9z M126.4,50.5c0-0.5,0-1,0-1.5
		c0-0.2,0.1-0.5-0.2-0.6c-0.3-0.1-0.5,0.1-0.6,0.3c-0.4,0.6-0.6,1.3-1,1.9c-0.2,0.4-0.5,0.8,0,1.1c0.5,0.4,1,0.9,1.6,0.7
		c0.6-0.1,0.2-0.8,0.3-1.2C126.4,50.9,126.4,50.7,126.4,50.5z M40.3,35.3c-1,1.8-0.8,3.6,0.7,5.3c0.9,1,1.9,0.9,2.8-0.3
		c-1.3,0-2.5,0-3.2-1.3C40,37.8,40.5,36.6,40.3,35.3z M89.1,132.1c0,1.6,0,3.1,0,4.8c0.6-0.5,1-0.9,1.6-1.3c0.4-0.3,0.4-0.6,0.1-1
		C90.2,133.8,89.6,133,89.1,132.1z M87.7,136.7c0-1.6,0-3.2,0-4.7c-0.3,0.8-0.9,1.4-1.5,1.9c-0.4,0.4-0.7,1-0.2,1.3
		C86.6,135.7,86.9,136.4,87.7,136.7z M51.1,48.8c-0.1,0-0.2,0-0.3,0c0,1.4,0,2.7,0,4.1c0,0.2,0,0.4,0.2,0.5c0.2,0.1,0.4,0,0.5-0.2
		c1.2-1.1,1.3-1.6,0.4-3C51.7,49.7,51.4,49.3,51.1,48.8z M46.1,38.9c0.4-2.1-0.5-3.8-2.2-4.4c-0.9-0.3-1.4,0-2,1
		C44.6,35,45.2,35.4,46.1,38.9z M84.7,121c-0.8-1.5-2-2.3-2.9-2.1c-1.1,0.3-1.5,1.1-1.7,2.2C82,119.7,82.9,119.7,84.7,121z
		 M98.9,123.1c-0.2,0.2-0.3,0.3-0.5,0.5c-1.3,1.2-2.2,1.3-3.8,0.5c-0.2-0.1-0.4-0.3-0.6,0c-0.2,0.2-0.1,0.4,0.1,0.6
		c0.3,0.3,0.6,0.5,1,0.6C96.9,125.8,98,125.2,98.9,123.1z M127.8,52.7c2-1.3,2-2.8,0.2-4.1C127.9,50,127.9,51.3,127.8,52.7z
		 M98.3,120.6c0.1-1.5-0.7-2.2-1.6-2.5c-1.3-0.4-1.6,1-2.4,1.6C95.7,119.3,97.1,118.9,98.3,120.6z M81.3,122.7c0,0.6,0.3,1,0.9,1.1
		c0.7,0,1.2-0.3,1.3-1.1c0-0.7-0.4-1.1-1.1-1.1C81.6,121.5,81.4,122,81.3,122.7z M54.7,50.3c-0.2-0.7-0.2-1.3-0.1-1.9
		c0.1-0.4,0.1-0.9-0.4-1c-0.4-0.1-0.9-0.2-1.2,0.1c-0.3,0.3-0.1,0.8,0,1.1C53.2,49.4,53.7,50,54.7,50.3z M135.5,36.9
		c-0.3-0.9-0.5-1.6-1.3-1.8c-1-0.1-1.6,0.5-2.4,1.3C133.1,36.5,134.3,36.2,135.5,36.9z M53.9,37.4c1.3-1.1,2.5-1.8,4.4-0.7
		c-0.5-1.1-1.3-1.4-2-1.4C55,35.3,54.4,36.3,53.9,37.4z M85.7,131.9c-0.1,0-0.3-0.1-0.4,0c-0.5,0.1-1.3-0.4-1.3,0.6
		c0,0.5-0.6,1.2,0,1.4c0.7,0.2,1-0.7,1.4-1.2C85.6,132.4,85.7,132.2,85.7,131.9z M45.6,48.6c0.1,0.3-0.2,0.8,0.2,0.8
		c0.8-0.2,1.2-0.9,1.5-1.7c0.2-0.6-0.3-0.5-0.5-0.5C45.8,47.1,45.7,47.9,45.6,48.6z M93,134c-0.1-0.7-0.2-1.2-0.4-1.8
		c-0.2-0.8-0.9-0.3-1.3-0.4c-0.3-0.1-0.5,0.2-0.3,0.4C91.5,133,91.9,133.8,93,134z M122.1,36.4c-0.5-1-1.3-1.1-2.1-0.9
		c-0.7,0.2-1.1,0.8-1,2C119.9,36.1,120.9,36.2,122.1,36.4z M129.9,48.4c0.6,0.8,1.1,1.5,2.2,1.7C131.6,49.1,131.5,47.9,129.9,48.4z
		 M99.1,123c0.2-0.2,0.3-0.3,0.3-0.4c0-0.1-0.1-0.2-0.1-0.2c-0.1,0.1-0.2,0.2-0.2,0.3C99.1,122.7,99.1,122.8,99.1,123z M129.9,33
		c0,0.1-0.1,0.1-0.1,0.2c0,0,0,0.1,0.1,0.1C129.9,33.1,129.9,33.1,129.9,33C130,33,129.9,33,129.9,33z M122.4,36.6L122.4,36.6
		L122.4,36.6L122.4,36.6z"/>
	<path class="st0" d="M146.5,46c0-0.4,0-0.7-0.1-1c-0.1-0.7,0.1-0.8,0.9-0.8c1.3,0.1,2.8,0.5,4-0.4c0.4-0.2,0.5-0.1,0.6,0.3
		c0,0.6,0.1,1.2-0.6,1.7c-0.5,0.3-1,0.8-1.5,1.2c0.7,0.5,1.3,0.9,1.9,1.4c0.5,0.4,0.4,1,0.2,1.4c-0.2,0.5-0.6-0.1-0.9-0.1
		c-1.3-0.3-2.5,0.1-3.8,0.1c-0.2,0-0.6,0.4-0.7,0c-0.1-0.4-0.1-1,0-1.4c0.1-0.4,0.5-0.1,0.7-0.1c0.6,0.1,1.2,0.1,2,0
		c-0.5-0.4-1.1-0.7-1.2-1.2c-0.2-0.6,0.8-0.7,0.9-1.3C148.2,45.7,147.4,45.8,146.5,46z"/>
	<path class="st0" d="M147.8,30.6c-0.1,0.6,0.6,1.5-0.4,1.7c-2,0.4-2.5,0-2.6-1.4c-0.1-1.2-0.1-2.3,1.1-3.1c1-0.7,2-0.6,3.1-0.1
		c1.1,0.6,1.8,2.6,1.3,3.8c-0.3,0.6-0.8,0.4-1.1,0.3c-0.6-0.1-0.2-0.5-0.1-0.7c0.2-0.5,0.3-1.1,0-1.6c-0.3-0.7-1.4-1-2.2-0.7
		c-0.7,0.4-1.1,1.1-0.8,1.7C146.5,31.6,147.2,30.5,147.8,30.6z"/>
	<path class="st0" d="M149.1,39.1c-0.5,0-1,0-1.4,0c-0.6,0.1-1,0.4-1,1c0.1,0.6,0.5,0.9,1.1,0.8c0.7-0.1,1.5,0,2.1-0.2
		c1.2-0.5,1.1,0.2,1.2,1c0,0.4-0.1,0.4-0.4,0.4c-1.4,0-2.8,0-4.1,0.3c-0.6,0.1-0.9-0.1-0.8-0.7c0-0.2,0-0.4,0-0.6
		c-0.2-3-0.2-3,2.9-3.4c0.4,0,0.8,0,1.2-0.1c0.7-0.2,1.1-0.2,1.1,0.8c0.1,1.2-0.7,0.5-1.1,0.6C149.6,39.1,149.3,39,149.1,39.1
		C149.1,39.1,149.1,39.1,149.1,39.1z"/>
	<path class="st0" d="M145.4,20.5c-0.3-1.5,0.9-1.8,1.7-2.4c-0.2-0.3-0.4-0.3-0.7-0.3c-0.6,0.1-0.7-0.1-0.5-0.7c0.1-0.4,0-1,0.9-0.7
		c1.3,0.4,2.6,0.6,3.9,0.8c0.4,0.1,0.7,0.1,0.6,0.6c-0.2,0.9-0.2,1.9-1.2,2.3c-0.8,0.4-1.6,0.2-2.1-0.6c-0.2-0.4-0.5-0.1-0.7,0
		C146.7,19.8,146.1,20.1,145.4,20.5z"/>
	<path class="st0" d="M149.3,24.1c-1.6-0.5-1,0.8-1.3,1.5c-0.6-0.2-1.2-0.4-1.1-1.2c0.1-0.5-0.3-0.5-0.6-0.5c-0.4,0-0.3,0.3-0.3,0.6
		c0,0.5,0.3,0.9,0.2,1.4c-1.2-0.1-1.5-0.8-1.3-1.9c0.1-0.3,0.1-0.7,0.1-1.1c0-0.5,0.1-0.7,0.7-0.6c1.4,0.3,2.8,0.5,4.2,0.3
		c0.6-0.1,0.5,0.3,0.5,0.7c0,0.6-0.1,1.2-0.2,1.8c0,0.3,0.2,0.9-0.4,0.7c-0.4-0.1-1.1-0.2-0.8-1C149.1,24.6,149.2,24.4,149.3,24.1z"
		/>
	<path class="st0" d="M150.5,33.9c0,0.2,0.1,0.4,0.1,0.5c0.2,1,0,1.3-1.1,1.2c-1.1-0.1-2.2,0.2-3.3,0.3c-0.3,0-0.7,0.3-0.8-0.1
		c-0.2-0.4-0.2-0.9-0.1-1.3c0.1-0.4,0.5-0.1,0.8-0.1C147.5,34.3,149,34.4,150.5,33.9z"/>
	<path class="st0" d="M107.7,7.1c-0.4,0.8-0.5,1.5,0.8,1.4c0.3,0,0.8,0.1,0.5,0.5c-0.2,0.4-0.3,1.2-1,0.9c-0.6-0.3-0.7,0-0.7,0.5
		c0,0.5,0.2,0.6,0.7,0.5c0.5-0.1,0.9-0.1,1.4-0.2c0,1.3-0.5,1.7-1.7,1.6c-0.2,0-0.3-0.1-0.5-0.1c-0.5-0.1-1.3,0.1-1.6-0.2
		c-0.4-0.4,0.2-1,0.2-1.5c0-0.3,0.1-0.6-0.3-0.8c-0.4-0.2-0.6,0.2-0.7,0.4c-0.3,0.4-0.6,0.8-0.6,1.3c0,0.5-0.3,0.7-0.8,0.6
		c-0.4-0.1-1.1,0.2-1.3-0.3c-0.2-0.4,0.4-0.7,0.6-1.1c0.9-1.3,1.9-2.6,2.7-3.9c0.4-0.6,0.9-0.8,1.6-0.7c0.5,0.1,1,0.1,1.5,0.2
		c0.3,0,0.7-0.1,0.8,0.3c0.1,0.4-0.1,0.7-0.3,1c-0.3,0.4-0.6,0.1-0.8,0C108.2,7.2,108,7.1,107.7,7.1z"/>
	<path class="st0" d="M87.3,10.9c-0.1,1.2,0.1,2.1,0.4,2.9c-0.1,0.1-0.2,0.1-0.3,0.1c-1.4,0.2-1.4,0.2-1.5-1.3c0-0.6,0-1.2-0.1-1.8
		c-0.1-1,0-2.1-1.4-2.7c1.3-0.3,2.2-0.5,2.9,0.6c0.6,0.8,1.3,1.4,2.1,2.3c0.1-1,0-1.8-0.2-2.6C89,7.6,89.5,7.6,90,7.5
		c0.6-0.1,0.7,0.2,0.7,0.7c0.1,1.5,0.3,2.9,0.4,4.4c0,0.3,0.6,0.8,0,1c-0.5,0.2-1.1,0.3-1.6-0.3C88.9,12.5,88.1,11.8,87.3,10.9z"/>
	<path class="st0" d="M73.6,12.1c-0.2,0.8-0.9,0.6-1.4,0.5c-0.7-0.1-0.3-0.7-0.3-1c0.2-1.5,0.3-3,0.3-4.5c0-0.6,0.2-0.7,0.7-0.7
		c1.9,0,3,0.8,2.9,2.2c0,0.2,0,0.5-0.1,0.6c-1.2,1-0.3,1.8,0.3,2.7c0.2,0.3,0.5,0.5,0.5,0.9c-1,0.3-1.6-0.1-2.1-0.9
		c-0.2-0.4-0.4-0.8-1-1.2C73.5,11.2,73.2,11.6,73.6,12.1z M73.7,9.1c1-0.6,1-0.8,0-1.5C73.6,8.1,73.5,8.6,73.7,9.1z"/>
	<path class="st0" d="M77,12.6c1.4-1.5,2.4-3.2,3.6-4.8c0.2-0.3,0.3-0.7,0.8-0.6c0.5,0.1,0.3,0.6,0.5,0.9c0.6,1.8,0.9,3.7,1.8,5.4
		c-1.4,0.3-1.8,0.1-2.1-1.2c-0.1-0.4-0.2-0.8-0.7-0.8c-0.5,0-1.1-0.3-1.3,0.4C79,13.5,78,12.9,77,12.6z"/>
	<path class="st0" d="M97,7.7c-1.3,0-2.6-0.3-3.1,1.3c-0.3,0.9,0.1,1.6,0.7,2.1c1.2,0.8,2.1,0,2.9-0.8c0.6,1.3,0.5,1.7-0.7,2.1
		c-1.3,0.5-2.5,0.5-3.6-0.5c-1-0.9-1.2-2.4-0.6-3.6c0.6-1.2,2.1-2.1,3.4-2C96.8,6.3,96.8,6.3,97,7.7z"/>
	<path class="st0" d="M68.5,7.3c-0.3,0.9-0.2,1.5,1,1.4c0.2,0,0.9-0.3,0.7,0.3c-0.1,0.4-0.2,1.1-0.8,1c-1.6-0.4-0.9,0.6-0.9,1.2
		c0,0.5,0.5,1.2-0.6,1.2c-0.8,0-1-0.1-1-0.9c0.1-1.5,0.1-3.1-0.2-4.6c-0.1-0.6,0.1-0.7,0.6-0.7c0.7,0,1.4-0.1,2.1-0.1
		c0.3,0,0.9-0.2,0.8,0.3c-0.1,0.4-0.1,1.1-0.9,1.1C69.1,7.5,68.8,7.4,68.5,7.3z"/>
	<path class="st0" d="M100.2,11.8c-0.7,0.1-0.9,0-0.8-0.8c0.1-1.6,0-3.2-0.4-4.7C98.9,6,98.7,5.7,99,5.6c0.5-0.1,0.9-0.1,1.4-0.1
		c0.4,0,0.2,0.3,0.2,0.6c-0.1,1.5,0,3.1,0.3,4.6C101.2,11.6,101,11.9,100.2,11.8z"/>
	<path class="st0" d="M26.3,23.6c-0.4-0.7-0.7-1.4,0-2c0.5-0.5,1-0.9,1.3-1.5c-0.8-0.9-2.7-0.8-2.3-2.7c1.8,0.4,3.5-0.2,5.2-0.7
		c0.1,0.3,0.2,0.6,0.3,1c0.1,0.5,0.2,0.9-0.7,0.7c-0.5-0.1-1.2,0.1-1.8,0.2c0.2,0.7,1.1,0.5,1.3,1.1c0.1,0.6-0.7,0.8-0.8,1.4
		c0.5,0.1,0.9,0,1.4-0.1c0.4-0.1,0.8-0.6,1-0.1c0.2,0.4,0.3,0.9,0.2,1.4c-0.1,0.4-0.6,0-1,0.1C29,22.7,27.4,22.3,26.3,23.6z"/>
	<path class="st0" d="M27.1,58.7c0-1.6,1.1-2.6,2.8-2.6c1.6,0,2.8,1.2,2.8,2.8c0,1.5-1.3,2.9-2.8,2.9C28.3,61.8,27.1,60.4,27.1,58.7
		z M30.2,57.5c-1,0-2.1,0.8-2,1.6c0.1,0.8,0.7,1.3,1.5,1.3c0.9,0,1.8-0.8,1.8-1.6C31.5,57.9,30.9,57.5,30.2,57.5z"/>
	<path class="st0" d="M28.2,27.9c0.6,0,1.1,0,1.7-0.1c0.5-0.1,0.9-0.4,0.9-1c0-0.5-0.5-0.7-0.9-0.7c-0.9,0-1.8,0.1-2.7,0.1
		c-0.3,0-0.6,0.3-0.7-0.1c-0.1-0.4-0.1-0.9,0-1.3c0.1-0.3,0.4,0,0.6,0c1.3-0.1,2.7,0,4-0.3c0.8-0.2,0.8,0.2,0.8,0.7
		c-0.1,0.6,0,1.1,0,1.7c0.2,1.1-0.3,1.8-1.4,2c-1.1,0.2-2.3,0.2-3.4,0.4c-0.5,0.1-0.5-0.3-0.5-0.6c0.1-0.4-0.4-1,0.4-1
		C27.3,27.8,27.7,27.8,28.2,27.9C28.2,27.9,28.2,27.9,28.2,27.9z"/>
	<path class="st0" d="M31.7,36.7c-0.2,0.6-0.3,1.1-0.5,1.7c-0.7,1.5-3,1.5-4.1,0.7c-1.4-1-1.2-2.9-0.7-4.1c0.2-0.5,0.3-0.4,1.5,0
		c-0.2,0.4-0.4,0.8-0.6,1.2c-0.4,0.9,0,1.6,0.7,2c0.9,0.5,1.6,0.2,2.1-0.6c0.2-0.3,0.4-0.7,0.2-1c-0.2-0.4-0.7-0.3-1-0.2
		c-1,0.4-0.9-0.1-0.7-0.8c0.1-0.3,0.1-0.6,0.2-1.1C29.9,35.3,32.1,34.3,31.7,36.7z"/>
	<path class="st0" d="M31.3,63.1c0.6,0,1.3-0.3,1.6,0.5c0.5,1.1,0.3,2.6-0.5,3.3c-0.9,0.8-2.4,0.9-3.4,0.3c-1.1-0.7-1.7-2.4-1.3-3.5
		c0.2-0.6,0.7-0.5,1.1-0.4c0.5,0.1,0.2,0.4,0.2,0.7c-0.2,0.8-0.2,1.5,0.6,2c0.6,0.4,1.2,0.4,1.8,0c0.7-0.5,0.8-1.1,0.5-1.9
		C31.7,63.8,31.3,63.6,31.3,63.1z"/>
	<path class="st0" d="M27.8,41.4c0.5,0.3,1.2,0.4,1,1.2c-0.1,0.4-0.1,0.6,0.4,0.6c0.4,0,0.7,0,0.7-0.6c0-0.5-0.5-1-0.2-1.5
		c1,0.2,1.6,0.7,1.2,1.8c-0.1,0.4-0.1,0.8-0.1,1.2c0,0.5-0.2,0.6-0.7,0.5c-1.3-0.4-2.7-0.2-4-0.2c-0.6,0-0.9,0-0.8-0.8
		c0.1-0.5,0-1,0.1-1.4c0.1-0.3-0.2-0.8,0.3-0.9c0.2-0.1,0.5,0.1,0.8,0.3c0.5,0.2,0.2,0.6,0.1,0.9c0,0.1-0.1,0.2-0.1,0.3
		C28,43.4,27.4,42.1,27.8,41.4z"/>
	<path class="st0" d="M29,46c0.7,0.2,1.5,0.1,1.6,0.6c0.2,0.8,0.2,1.6,0.3,2.5c0,0.2-0.2,0.2-0.4,0.2c-1.5,0-3,0.1-4.5,0.5
		c-0.6,0.2-0.6-0.2-0.6-0.6c0-0.4-0.4-1,0.5-1c0.9,0,1.7-0.1,2.6-0.2c1-0.1,1.2-0.3,0.7-1.2C29.2,46.6,29.1,46.4,29,46z"/>
	<path class="st0" d="M26.4,32c-0.1-0.7,0.1-0.9,0.8-0.8c1.4,0.2,2.7,0.4,4.1,0.1c0.7-0.2,0.5,0.4,0.5,0.7c0,0.4,0.2,1-0.6,0.9
		c-1.5-0.3-2.9-0.3-4.4-0.1C26,32.8,26.6,32.1,26.4,32z"/>
	<path class="st0" d="M66.2,166.7c-0.2,0-0.4,0.1-0.5,0.1c-1.8,0.4-3.6,0.4-5.3,1.3c1.2-1.7,2.7-2.9,4.7-3.5
		c0.6,0.1,1.2,0.1,1.8,0.3c0.4,0.1,0.8,0.3,0.6,0.8C67,166.1,66.6,166.4,66.2,166.7z"/>
	<path class="st1" d="M46.2,24.2c-0.2,1.7-0.2,3.2,0.6,4.6c0.2,0.4,0.5,0.9,1,0.7c0.4-0.2,0.1-0.7,0-1.1c-0.1-0.3-0.2-0.7-0.3-1
		c-0.6-1.8-0.4-2.5,1.2-3.9c0.1,1.8,0.3,3.5,0.4,5.2c0.1,1.7,0.2,3.3,0.4,5c1.2-3.3,0.1-6.9,1-10.3c2,1.6,2.2,2.6,1,4.6
		c-0.3,0.5-0.9,1.2-0.4,1.6c0.5,0.3,0.9-0.5,1.3-1c0.9-1.2,1-2.6,1.2-4.1c1.3,1,1.6,3.3,0.6,4.4c-3.3,3.5-4.2,7.6-3.2,12.2
		c0.1,0.5,0.2,1-0.4,1.3c-0.7,0.4-1.2,0.1-1.1-0.7c0-1.9,0.2-3.8-0.2-5.7c-0.4-2.2-1.3-4.2-3-5.7c-0.5-0.4-0.8-1-1.2-1.5
		C43.8,26.9,44.1,25.6,46.2,24.2z"/>
	<path class="st1" d="M124.7,23.5c-0.2,0.7-0.9,0.9-1.3,1.4c-1.3,1.6-1.1,3.2,0.6,4.3c0.2,0.1,0.4,0.3,0.7,0.2
		c0.3-0.2,0.2-0.5,0.1-0.8c0-0.2-0.1-0.3-0.2-0.4c-0.8-1.6-0.5-2.5,1-3.4c0.6-0.3,0.8-0.2,0.8,0.5c0,2,0,4,0,6
		c0,0.9-0.1,1.9,0.5,2.8c0.7-3.4,0.5-6.8,1-10.2c1.7,0.6,2.4,3.1,1.2,4.5c-0.2,0.3-0.5,0.5-0.2,0.8c0.3,0.4,0.6,0,0.9-0.2
		c1.5-1.3,1.6-1.7,1.3-4.2c1.8,1,1.7,3.6-0.1,4.8c-2.6,1.7-3.4,4.1-2.9,7c0.4,2.2-0.1,4.5,0,6.7c0,0.8-0.6,0.6-1,0.6
		c-0.5,0-0.8-0.2-0.7-0.8c0.3-1.9,0.3-3.8,0.3-5.7c0-1.7-0.4-3.4-1.1-5c-0.6-1.2-1.3-2.2-2.6-2.8c-2.9-1.3-2.4-2.9-0.5-4.7
		C123,24.1,123.8,23.6,124.7,23.5L124.7,23.5z"/>
	<path class="st1" d="M85.8,113.6c0.2,0.1,0.4,0.1,0.7,0.2c0.6,0.2,0.8,0,0.6-0.5c-0.1-0.4-0.3-0.8-0.5-1.2c-0.8-1.8-0.6-2.8,1-4.1
		c0.4,1.5,0.4,3,0.3,4.5c-0.2,1.5,0,2.9,0.2,4.4c0.1,0.3-0.1,0.9,0.5,0.8c0.4-0.1,0.4-0.5,0.4-0.9c0.1-2.8,0.3-5.6,0.4-8.4
		c0-0.3-0.2-0.8,0.2-1c0.4-0.2,0.7,0.3,0.9,0.6c1.3,1.4,1.3,2.4,0.2,4.4c-0.2,0.4-0.8,0.8-0.3,1.2c0.4,0.3,0.9-0.1,1.4-0.4
		c1.4-1.2,1.4-2.7,1.3-4.5c1,1,1.1,2,0.5,3.1c-0.6,1-1.4,1.9-2.2,2.7c-1.3,1.3-2,2.8-1.9,4.7c0.1,2.1,0,4.2,0,6.3
		c0,0.6-0.1,0.9-0.8,0.9c-0.6,0-0.9-0.1-1-0.9c0-2.5-0.1-5.1-0.4-7.6C87.1,116.3,86.5,115,85.8,113.6
		C85.9,113.6,85.8,113.6,85.8,113.6z"/>
	<path class="st1" d="M116.5,70.4c0,6.8,0,13.6,0,20.4c0,0.9-0.2,1.2-1.1,1.3c-6.2,1-12.6,1.7-18.4,4.5c-1.9,0.9-3.8,1.9-5.6,3
		c-0.3,0.2-0.8,0.7-1,0.3c-0.3-0.5,0.4-0.6,0.8-0.8c5.8-3.6,12-5.8,18.8-6.7c1.6-0.2,3.1-0.5,4.7-0.7c0.9-0.1,1.1-0.4,1.1-1.3
		c0-6.3,0-12.6,0.1-18.9c0.1-9.1,0.2-18.3,0.2-27.4c0-0.3-0.2-0.9,0.3-0.9c0.6,0,0.4,0.6,0.4,1c-0.1,8.4-0.1,16.8-0.2,25.1
		C116.5,69.6,116.5,70,116.5,70.4C116.5,70.4,116.5,70.4,116.5,70.4z"/>
	<path class="st1" d="M61.4,60.3c0,5.2,0.1,10.5,0,15.7c-0.1,4.9,0,9.8-0.1,14.7c0,0.8,0.2,1,1,1.1c4.8,0.8,9.6,1.3,14.2,2.8
		c3.6,1.2,7,2.8,10.4,4.6c0.2,0.1,0.7,0.2,0.5,0.5c-0.2,0.5-0.6,0-0.8-0.1c-4.7-2.5-9.5-4.7-14.8-5.7c-3.2-0.6-6.3-1.2-9.5-1.6
		c-0.8-0.1-1.2-0.3-1.2-1.3c0-6.2,0.1-12.4,0-18.6c-0.2-9.5-0.1-18.9-0.2-28.4c0-0.5-0.3-1.3,0.3-1.3c0.7,0,0.4,0.8,0.4,1.3
		C61.4,49.6,61.4,55,61.4,60.3C61.4,60.3,61.4,60.3,61.4,60.3z"/>
	<path class="st1" d="M114,42.8c0.8,0.4,0.6,1.1,0.6,1.6c-0.1,7.1-0.2,14.3-0.2,21.4c0,3.1,0,6.2-0.1,9.3c0,4.7-0.1,9.4-0.2,14.1
		c0,0.6-0.2,0.8-0.8,0.9c-4.8,0.5-9.5,1.2-14,3.1c-2.9,1.2-5.6,2.6-8.4,4.1c-0.2,0.1-0.5,0.6-0.8,0.2c-0.2-0.4,0.3-0.5,0.5-0.6
		c6.3-3.7,12.9-6.4,20.3-7c0.3,0,0.5-0.1,0.8-0.1c2-0.3,2-0.3,2-2.4c0-14.5,0-29,0-43.5C113.9,43.5,113.8,43.1,114,42.8z"/>
	<path class="st1" d="M63.3,42.8c0.2,0.4,0.1,0.9,0.1,1.3c0,14.6,0,29.1,0,43.7c0,1.8,0.2,2,2.1,2.3c3.5,0.5,7.1,1.1,10.5,2.2
		c3.7,1.1,7.2,2.9,10.8,4.6c0.2,0.1,0.4,0.2,0.4,0.6c-0.5,0.3-0.8-0.1-1.1-0.3c-4.1-1.9-8.2-3.9-12.7-4.9c-3.1-0.7-6.2-1.3-9.4-1.7
		c-0.8-0.1-1-0.4-1-1.1c0-4.4,0-8.7,0-13.1c-0.1-10.7-0.2-21.4-0.2-32.1C62.8,43.8,62.5,43.1,63.3,42.8z"/>
	<path class="st1" d="M59.8,39.3c0.2-1.1,0.2-1.9-0.1-2.6c-0.6-1.7-2-2.6-3.8-2.4c-1.9,0.2-3.1,1.4-3.2,3.2
		c-0.1,1.4,0.1,2.8,0.4,4.1c0.1,0.3,0.3,0.6-0.2,0.7c-0.4,0-0.5-0.2-0.5-0.5c-0.1-2.6-0.3-5.2,1-7.6c1.2-2.2,2.9-3,4.9-2.3
		c1.7,0.6,3,2.9,2.6,5C60.7,37.7,60.6,38.5,59.8,39.3z"/>
	<path class="st1" d="M87.9,130c-1.4,0-2.7,0.1-4.1,0c-0.5,0-1.3,0.5-1.4-0.5c-0.1-1.4,0.2-1.7,1.5-1.7c2.4,0.1,4.9,0.1,7.3,0.2
		c0.3,0,0.6,0,1,0c0.8-0.1,1.1,0.1,1.1,1c0,0.9-0.4,1-1.1,1C90.8,129.9,89.4,130,87.9,130z"/>
	<path class="st1" d="M99.6,121.9c-0.1-0.9-0.2-1.6-0.3-2.3c-0.4-2.2-2.2-3.1-4.2-2.1c-2.3,1.2-3.2,3.2-3.3,5.7c0,0.8,0,1.7,0.2,2.5
		c0,0.3,0.2,0.6-0.3,0.6c-0.4,0.1-0.5-0.2-0.6-0.5c-0.9-2.7,0.9-8.1,3.3-9.6c2-1.3,5.2-1.1,5.6,2.3
		C100.3,119.9,100.3,120.5,99.6,121.9z"/>
	<path class="st1" d="M50.3,43.9c1.3,0,2.6,0,3.9,0c1,0,0.9,0.6,1,1.3c0.1,0.8-0.3,0.8-0.9,0.8c-2.7-0.1-5.5-0.1-8.2-0.2
		c-0.4,0-1,0.1-0.8-0.5c0.1-0.5-0.2-1.4,0.9-1.4C47.5,44,48.9,43.9,50.3,43.9C50.3,43.9,50.3,43.9,50.3,43.9z"/>
	<path class="st1" d="M82.8,125.5c-1.4,1.2-2.9,1-3.8-0.7c-1.2-2.4-1.6-4.8,0.3-7.1c0.9-1.1,3.8-1.3,4.7-0.3
		c0.1,0.2,0.2,0.3,0.1,0.5c-0.1,0.1-0.2,0.1-0.4,0.1c-2.5-0.5-4.4,0.5-4.7,2.6c-0.4,2.4,1.4,5.1,3.7,4.8
		C82.7,125.4,82.7,125.4,82.8,125.5z"/>
	<path class="st1" d="M127.1,46.8c-1.2,0-2.5,0-3.7,0c-0.5,0-0.8-0.1-0.8-0.7c0-0.6,0.3-0.8,0.8-0.8c2.7,0,5.4,0,8.1,0
		c0.4,0,0.6,0.2,0.7,0.6c0.1,0.6-0.2,0.7-0.7,0.7c-1.5,0-2.9,0-4.4,0C127.1,46.7,127.1,46.7,127.1,46.8z"/>
	<path class="st1" d="M40.5,34.2c1.8-2.3,5.2-2.8,6.7,0.6c1,2.3,0.8,4.7,0.7,7c0,0.3-0.2,0.6-0.6,0.6c-0.6,0-0.3-0.4-0.3-0.7
		c0.1-0.9,0.2-1.9,0.4-2.8c0.3-1.7,0.2-3.3-1.3-4.4c-1.6-1.1-3.2-1.5-4.9-0.2c-0.1,0-0.2,0-0.2,0C40.8,34.3,40.7,34.2,40.5,34.2z"/>
	<path class="st1" d="M117.7,38.8c-0.7-1.3-0.6-2.6,0-3.9c0.9-1.9,2.1-2.3,4-1.3c2.9,1.6,4.2,5.3,3.1,8.5c-0.4,0-0.4-0.3-0.3-0.5
		c0.4-1.3,0.2-2.7,0-4c-0.3-1.5-1-2.5-2.5-3.1c-2.3-0.9-4,0.2-4.2,2.7C117.7,37.8,117.7,38.3,117.7,38.8z"/>
	<path class="st1" d="M137.1,37.5c-0.2-0.5-0.3-0.8-0.4-1.1c-0.6-1.6-1.5-2.3-3.1-2.3c-1.4,0-2.7,0.9-3.1,2.4
		c-0.4,1.3-0.4,2.7-0.5,4.1c0,0.7,0,1.5-0.2,2.2c-0.1-2.2-0.5-4.4,0.1-6.6c0.4-1.7,2.3-3,4.1-3c0.8,0,1.4,0.2,1.9,0.8
		C136.4,34.6,137,36.2,137.1,37.5z"/>
	<path class="st1" d="M49.7,47.6c0,1.8,0,3.6,0,5.4c0,0.6-0.4,0.5-0.7,0.3c-1.3-1.1-2.3-1.9-0.8-3.8c0.5-0.6,0.9-1.3,1.2-2
		C49.5,47.5,49.6,47.5,49.7,47.6z"/>
	<path class="st1" d="M57.9,38.7c0,0.9-0.2,1.7-1.3,1.8C56,40.6,55,39.7,54.9,39c0-0.9,0.6-1.6,1.5-1.7C57.4,37.3,58,37.7,57.9,38.7
		z"/>
	<path class="st1" d="M122.5,39.1c0,0.5-1.3,2-1.7,1.8c-0.6-0.3-1.2-0.8-1.3-1.6c-0.1-0.7,0.9-1.8,1.5-1.8
		C121.7,37.5,122.5,38.4,122.5,39.1z"/>
	<path class="st1" d="M85.1,112.6c-0.9-0.2-1.3-1-1.9-1.5c-0.6-0.5-0.1-2.3,0.9-3c0.4-0.3,0.8-0.5,1.4-0.8
		C84.9,109.2,84.7,110.9,85.1,112.6C85.1,112.6,85.1,112.6,85.1,112.6z"/>
	<path class="st1" d="M94.7,122.2c0.1-1,0.8-2,1.5-1.9c0.9,0.1,1.3,0.7,1.3,1.5c0,0.7-1,1.8-1.6,1.7
		C95.3,123.4,94.7,123.1,94.7,122.2z"/>
	<path class="st1" d="M132.3,39c0-0.9,0.5-1.4,1.2-1.5c0.6-0.2,1.9,0.9,1.8,1.4c-0.1,0.9-0.8,1.4-1.7,1.5
		C132.7,40.5,132.5,39.7,132.3,39z"/>
	<path class="st1" d="M44.7,37.9c-0.2,0.7-0.4,1.3-1.3,1.2c-0.8-0.1-1.6-0.3-1.5-1.3c0.1-0.8,0.7-1.4,1.6-1.3
		C44.3,36.5,44.6,37.2,44.7,37.9z"/>
	<path class="st1" d="M126.4,50.5c0,0.2,0,0.5,0,0.7c-0.1,0.4,0.3,1.1-0.3,1.2c-0.6,0.1-1.1-0.3-1.6-0.7c-0.5-0.4-0.2-0.7,0-1.1
		c0.4-0.6,0.7-1.3,1-1.9c0.1-0.2,0.3-0.4,0.6-0.3c0.3,0.1,0.2,0.4,0.2,0.6C126.4,49.4,126.4,49.9,126.4,50.5z"/>
	<path class="st1" d="M40.3,35.3c0.2,1.3-0.2,2.5,0.3,3.7c0.6,1.4,1.9,1.4,3.2,1.3c-0.9,1.2-1.9,1.3-2.8,0.3
		C39.5,38.9,39.2,37.1,40.3,35.3z"/>
	<path class="st1" d="M89.1,132.1c0.5,0.9,1.1,1.7,1.7,2.5c0.3,0.4,0.3,0.7-0.1,1c-0.5,0.4-1,0.8-1.6,1.3
		C89.1,135.2,89.1,133.7,89.1,132.1z"/>
	<path class="st1" d="M87.7,136.7c-0.8-0.3-1.1-1-1.7-1.4c-0.5-0.4-0.2-1,0.2-1.3c0.6-0.6,1.2-1.1,1.5-1.9
		C87.7,133.5,87.7,135.1,87.7,136.7z"/>
	<path class="st1" d="M51.1,48.8c0.3,0.5,0.6,0.9,0.9,1.4c0.9,1.4,0.8,1.9-0.4,3c-0.2,0.1-0.3,0.3-0.5,0.2c-0.2-0.1-0.2-0.3-0.2-0.5
		c0-1.4,0-2.7,0-4.1C50.9,48.8,51,48.8,51.1,48.8z"/>
	<path class="st1" d="M46.1,38.9c-0.9-3.5-1.5-3.9-4.2-3.3c0.5-1,1.1-1.3,2-1C45.6,35.1,46.5,36.8,46.1,38.9z"/>
	<path class="st1" d="M84.7,121c-1.9-1.4-2.7-1.3-4.6,0.1c0.2-1.1,0.6-2,1.7-2.2C82.7,118.7,83.9,119.6,84.7,121z"/>
	<path class="st1" d="M98.9,123.1c-0.9,2.1-2,2.6-3.9,2.2c-0.4-0.1-0.7-0.3-1-0.6c-0.2-0.2-0.3-0.4-0.1-0.6c0.2-0.3,0.4-0.1,0.6,0
		c1.6,0.8,2.5,0.7,3.8-0.5C98.5,123.4,98.7,123.3,98.9,123.1z"/>
	<path class="st1" d="M127.8,52.7c0.1-1.4,0.2-2.7,0.2-4.1C129.8,49.9,129.7,51.5,127.8,52.7z"/>
	<path class="st1" d="M98.3,120.6c-1.2-1.8-2.5-1.3-4-0.8c0.8-0.6,1-2.1,2.4-1.6C97.6,118.4,98.4,119.1,98.3,120.6z"/>
	<path class="st1" d="M81.3,122.7c0.1-0.7,0.4-1.2,1.1-1.2c0.7,0,1.1,0.4,1.1,1.1c0,0.8-0.6,1.1-1.3,1.1
		C81.6,123.7,81.2,123.3,81.3,122.7z"/>
	<path class="st1" d="M54.7,50.3c-1-0.3-1.5-0.9-1.8-1.6c-0.2-0.4-0.3-0.8,0-1.1c0.3-0.3,0.8-0.2,1.2-0.1c0.5,0.1,0.5,0.6,0.4,1
		C54.5,49,54.4,49.6,54.7,50.3z"/>
	<path class="st1" d="M135.5,36.9c-1.2-0.7-2.4-0.4-3.7-0.5c0.7-0.8,1.4-1.4,2.4-1.3C135,35.2,135.3,36,135.5,36.9z"/>
	<path class="st1" d="M53.9,37.4c0.5-1.1,1.1-2.1,2.4-2.1c0.7,0,1.5,0.3,2,1.4C56.4,35.6,55.1,36.3,53.9,37.4z"/>
	<path class="st1" d="M85.7,131.9c0,0.3-0.1,0.6-0.3,0.8c-0.4,0.5-0.7,1.4-1.4,1.2c-0.6-0.2,0-0.9,0-1.4c0-1,0.8-0.5,1.3-0.6
		C85.4,131.8,85.5,131.8,85.7,131.9z"/>
	<path class="st1" d="M45.6,48.6c0.1-0.7,0.2-1.5,1.2-1.4c0.2,0,0.8-0.1,0.5,0.5c-0.3,0.7-0.7,1.5-1.5,1.7
		C45.4,49.4,45.7,48.9,45.6,48.6z"/>
	<path class="st1" d="M93,134c-1.1-0.1-1.5-1-2-1.7c-0.2-0.2,0-0.5,0.3-0.4c0.4,0.1,1.1-0.4,1.3,0.4C92.8,132.7,92.9,133.3,93,134z"
		/>
	<path class="st1" d="M122.1,36.4c-1.2-0.3-2.3-0.3-3.1,1.1c-0.1-1.2,0.3-1.8,1-2C120.8,35.3,121.6,35.5,122.1,36.4z"/>
	<path class="st1" d="M129.9,48.4c1.5-0.4,1.6,0.8,2.2,1.7C131,49.9,130.6,49.1,129.9,48.4z"/>
	<path class="st1" d="M135,41.5c0.7-0.8,1.5-1.5,2-2.5C136.8,40.2,136.4,41.3,135,41.5L135,41.5z"/>
	<path class="st1" d="M122.8,49.6c0-0.4,0-0.7,0.1-1.1c0-0.3,0.2-0.5,0.5-0.5c0.2,0,0.4,0.1,0.5,0.3c0.1,0.2,0,0.5-0.2,0.6
		C123.4,49.2,123.2,49.6,122.8,49.6L122.8,49.6z"/>
	<path class="st1" d="M99.1,123c0-0.2,0-0.3,0-0.4c0-0.1,0.1-0.2,0.2-0.3c0,0.1,0.1,0.2,0.1,0.2C99.4,122.7,99.3,122.8,99.1,123z"/>
	<path class="st1" d="M124.7,23.5c0-0.1,0.1-0.1,0.1-0.2c0,0,0,0.1,0.1,0.1C124.8,23.5,124.7,23.5,124.7,23.5
		C124.7,23.5,124.7,23.5,124.7,23.5z"/>
	<path class="st1" d="M129.9,33C129.9,33,130,33,129.9,33c0.1,0.1,0,0.2,0,0.3c0,0-0.1-0.1-0.1-0.1C129.8,33.1,129.8,33,129.9,33z"
		/>
	<path class="st1" d="M135,41.5c0,0-0.1,0.1-0.1,0.1C134.9,41.6,134.9,41.6,135,41.5C134.9,41.5,135,41.5,135,41.5
		C135,41.5,135,41.5,135,41.5z"/>
	<path class="st1" d="M122.7,49.6c0,0.1,0,0.1,0,0.2C122.7,49.7,122.7,49.7,122.7,49.6C122.8,49.6,122.7,49.6,122.7,49.6z"/>
	<path class="st1" d="M85.6,113.4c-0.2-0.1-0.2-0.3-0.2-0.5l0,0C85.6,113,85.6,113.2,85.6,113.4L85.6,113.4z"/>
	<path class="st1" d="M85.4,112.9c-0.2,0-0.3-0.1-0.3-0.2c0,0,0,0,0,0C85.2,112.7,85.3,112.8,85.4,112.9
		C85.4,112.9,85.4,112.9,85.4,112.9z"/>
	<path class="st1" d="M85.6,113.4c0.2,0,0.2,0.1,0.3,0.2c0,0,0,0,0,0C85.8,113.5,85.7,113.4,85.6,113.4
		C85.6,113.4,85.6,113.4,85.6,113.4z"/>
	<path class="st1" d="M116.6,41.4c0,0.1,0,0.1,0.1,0.2c-0.1,0-0.1,0-0.2,0C116.5,41.5,116.5,41.5,116.6,41.4z"/>
	<path class="st1" d="M60.7,41.2c0,0.1,0,0.1,0,0.2c0,0-0.1,0-0.1,0C60.6,41.3,60.7,41.3,60.7,41.2C60.7,41.2,60.7,41.2,60.7,41.2z"
		/>
	<polygon class="st1" points="122.4,36.6 122.3,36.5 122.4,36.5 	"/>
	<path class="st0" d="M103.7,60.6c0.7-1.1,1.4-2.2,1.9-3.3c0.5-1.4,1.6-1.5,2.9-1.7c-1.1,3-0.8,5.9-0.4,8.9c0.1,0.4,0,0.6-0.3,0.7
		c-0.7,0.2-1.5,0.5-2,0.3c-0.3-0.1,0.2-1,0.2-1.6c0-1.1,0-2.3,0-3.7c-0.6,1.1-1.2,1.9-1.7,2.8c-0.3,0.5-0.6,0.6-1,0.1
		c-0.5-0.6-1.1-1.2-1.7-2c-0.2,1.7,0,3.1,0.2,4.6c0.2,0.8-0.1,1-0.7,1.1c-0.5,0.1-1.1,0.2-1.8,0.4c0.8-2.3,0.4-4.6,0.5-6.9
		c0-0.7,0-1.2-0.6-1.7c-0.5-0.3-0.4-0.7,0.2-0.8c1-0.2,1.9-0.8,2.6,0.7C102.2,59.2,103,59.8,103.7,60.6z"/>
	<path class="st0" d="M90.3,73.7c0.6-0.4,1.4-0.5,2.1-0.8c0.4-0.1,0.6,0,0.7,0.4c0.2,0.3,0.5,0.7,0.7,1c0.9,0.9,1.7,1.9,2.7,2.8
		c0-1.5,0.2-2.9-0.1-4.4c-0.1-0.3-0.3-0.8,0.2-0.9c0.6-0.2,1.1-0.4,1.7-0.4c0.2,0,0.1,0.4,0.1,0.6c-0.3,2.6,0,5.2,0.3,7.8
		c0,0.4,0.2,0.9-0.4,0.9c-0.6,0-1.1,0.8-1.7,0c-0.9-1.3-2-2.3-3.2-3.7c0,1.4-0.2,2.5,0.2,3.6c0.5,1.2-0.1,1.7-1.2,1.9
		c-0.7,0.1-1.1,0.4-0.9-0.7c0.4-2.2,0-4.4-0.1-6.7C91.6,74.3,90.6,74.3,90.3,73.7z"/>
	<path class="st0" d="M98.8,63.3c0,2.8-1.8,5-4.3,5.6c-1.8,0.4-3.1-0.3-3.9-2c-1.3-3,1.1-7.3,4.3-7.7C97.5,58.9,98.9,60.4,98.8,63.3
		z M92.3,64.4c0,1.5,0.7,2.5,1.7,2.7c1.1,0.2,2.1-0.5,2.6-1.8c0.2-0.4,0.3-0.9,0.4-1.4c0.1-1.2-0.6-2.5-1.6-2.9
		c-1-0.4-1.8,0.2-2.4,1C92.5,62.7,92.2,63.5,92.3,64.4z"/>
	<path class="st0" d="M102.6,79.5c1.7-3.3,2.8-6.7,4.1-9.9c0.1-0.3,0.2-0.7,0.6-0.6c0.3,0,0.4,0.4,0.5,0.6c0.8,1.7,1.5,3.5,2.3,5.2
		c0.2,0.4,0.3,0.8,0.6,1.2c0.8,1.4,0.8,1.4-0.8,1.8c-0.7,0.2-1,0.2-1.1-0.6c-0.1-0.6,0-1.6-0.9-1.6c-1,0-2.1,0.2-2.2,1.5
		c0,0,0,0.1-0.1,0.1c-0.3,0.5,0.1,1.4-0.5,1.6C104.4,79.2,103.6,79.2,102.6,79.5z"/>
	<path class="st0" d="M102,70.7c-0.6,1.9-0.2,3.9-0.2,5.9c0,0.4,0,0.9,0,1.3c0.1,2.1,0.1,2.1-2.1,2.6c0.4-2.2,0.2-4.4,0.2-6.5
		c0-0.4,0-0.8-0.1-1.2c-0.3-1.7-0.3-1.7,1.4-2.1C101.5,70.6,101.7,70.4,102,70.7z"/>
	<path class="st0" d="M110.8,61.1c-0.1,0.4,0.2,1-0.2,1.1c-0.6,0.2-1.3,0.4-2,0.3c-0.5-0.1-0.2-0.7-0.2-1.1c0-0.4-0.2-0.8,0.5-0.9
		c0.3,0,0.6-0.1,0.9-0.2C110.8,59.9,110.8,59.9,110.8,61.1z"/>
	<path class="st0" d="M82.3,62.9c0,1.5-0.4,2.9-1.9,3.5c-1.6,0.7-3.1,0.1-4.4-1c-2.3-2-2.8-5.2-1.2-7.9c0.5-0.8,1.5-0.7,2.3-0.7
		c2.1-0.1,3.6,1,4.5,2.8C82,60.6,82.3,61.7,82.3,62.9z M75.7,61c0.1,1.5,0.7,2.9,2.3,3.7c0.9,0.5,1.6,0.2,2.1-0.7
		c0.6-1.3,0.2-3.3-1-4.5c-0.6-0.7-1.4-1.3-2.4-0.9C75.8,59,75.7,60,75.7,61z"/>
	<path class="st0" d="M73.2,60.7c0,2.7-1.6,4-4.2,3.6c-0.4-0.1-0.8-0.2-1.2-0.3c-0.7-0.1-0.8-0.4-0.8-1.2c0.2-2.5,0.3-5.1-0.2-7.6
		c-0.2-0.8,0-0.8,0.7-0.8C70.8,54.7,73.2,57.3,73.2,60.7z M69.1,56.5c0,1.8,0,3.5,0,5.2c0,0.3-0.2,0.8,0.3,0.9
		c0.4,0.1,0.8-0.1,1.1-0.4c0.5-0.5,0.8-1.1,0.8-1.8C71.2,58.7,70.5,57.4,69.1,56.5z"/>
	<path class="st0" d="M76.6,72.7c-0.3,2.1-0.3,2.1,1.4,2.5c0.3,0.1,0.9,0,0.9,0.5c0,0.5-0.4,0.9-0.7,1.3c-0.3,0.3-0.6,0-0.8-0.2
		c-0.2-0.1-0.4-0.2-0.7-0.3c0,0.2-0.1,0.4-0.1,0.5c-0.1,1.9,0.2,2.1,2.2,2c0.3,0,0.7-0.4,0.9,0c0.2,0.6-0.3,1-0.4,1.6
		C79,81,78.7,81,78.3,80.9c-1.1-0.3-2.2-0.6-3.3-0.9c-0.4-0.1-0.6-0.3-0.6-0.8c0.3-2.7,0.3-5.3-0.1-8c-0.1-0.7,0.1-0.9,0.7-0.7
		c1.1,0.3,2.3,0.6,3.5,0.9c0.2,0.1,0.6,0.1,0.5,0.4c-0.2,0.6-0.4,1.1-0.7,1.6c-0.1,0.2-0.4-0.1-0.6-0.2
		C77.4,73.1,77.1,72.6,76.6,72.7z"/>
	<path class="st0" d="M73.8,76.8c0.2,2.4-0.3,2.9-2.5,2.4c-3.2-0.7-5.2-4.4-4.1-7.5c0.9-2.3,4.5-3.1,6.1-1.3
		c0.5,0.6,0.2,1.3,0.2,1.9c0,0.3-0.4,0.2-0.6,0c-0.4-0.3-0.8-0.6-1.2-0.8c-1.4-0.7-2.5-0.2-2.9,1.3c-0.3,1.4,0.6,3.5,1.9,4.2
		C71.9,77.7,72.8,77.5,73.8,76.8z"/>
	<path class="st0" d="M79.5,73.8c0.4-2.2,0.4-2.2,2.4-1.6c1.2,0.4,2.5,0.8,3.8,1.2c0.3,0.1,0.7,0.1,0.6,0.5
		c-0.1,0.5-0.4,1.1-0.7,1.5c-0.2,0.3-0.5-0.1-0.7-0.2c-0.3-0.2-0.6-0.7-1-0.4c-0.2,0.1-0.1,0.7-0.1,1c0,2-0.2,4.1,0.1,6.1
		c0,0.2,0.1,0.4-0.1,0.4c-0.7,0.1-1.3-0.3-1.9-0.5c-0.4-0.1-0.2-0.5-0.1-0.8c0.2-2.2,0.1-4.4,0.2-6.6c0-0.5-0.3-0.5-0.6-0.5
		C80.7,73.8,80.1,73.8,79.5,73.8z"/>
	<path class="st0" d="M85.6,63.9c0,0.4,0,0.7,0,1c0,0.1-0.1,0.3-0.2,0.4c-0.3,0.2-2.6-1.1-2.7-1.5c0-0.4,0-0.9,0-1.3
		c0-0.5,0.1-0.7,0.6-0.4c0.6,0.3,1.2,0.4,1.8,0.5C86.1,62.7,85.4,63.5,85.6,63.9z"/>
</g>
</svg>
