<svg width="241" height="115" viewBox="0 0 241 115" fill="none" xmlns="http://www.w3.org/2000/svg">
<g clip-path="url(#clip0)">
<path d="M2 93.9799C96 136.98 129.5 101.98 241 91.4799C146 77.9799 109.5 125.48 2 93.9799Z" fill="#EAB26A"/>
<path fill-rule="evenodd" clip-rule="evenodd" d="M29 79C44.7401 79 57.5 66.2401 57.5 50.5C57.5 34.7599 44.7401 22 29 22C13.2599 22 0.5 34.7599 0.5 50.5C0.5 66.2401 13.2599 79 29 79ZM29 69C39.2173 69 47.5 60.7173 47.5 50.5C47.5 40.2827 39.2173 32 29 32C18.7827 32 10.5 40.2827 10.5 50.5C10.5 60.7173 18.7827 69 29 69Z" fill="#5D98DF"/>
<path d="M48.5 0.999998C48.5 0.447713 48.9477 0 49.5 0H58.5C59.0523 0 59.5 0.447715 59.5 1V77C59.5 77.5523 59.0523 78 58.5 78H49.5C48.9477 78 48.5 77.5523 48.5 77V0.999998Z" fill="#5D98DF"/>
<path fill-rule="evenodd" clip-rule="evenodd" d="M148.5 80C164.24 80 177 67.2401 177 51.5C177 35.7599 164.24 23 148.5 23C132.76 23 120 35.7599 120 51.5C120 67.2401 132.76 80 148.5 80ZM148.5 70C158.717 70 167 61.7173 167 51.5C167 41.2827 158.717 33 148.5 33C138.283 33 130 41.2827 130 51.5C130 61.7173 138.283 70 148.5 70Z" fill="#5D98DF"/>
<path d="M167.5 23C167.5 22.4477 167.948 22 168.5 22H177.5C178.052 22 178.5 22.4477 178.5 23V77C178.5 77 178.5 77 178.5 77C178.5 77 178.5 88 170 96.5C161.936 104.564 155.672 105.428 149.5 105.495C148.948 105.501 148.5 105.056 148.5 104.503C148.5 102.324 148.5 97.7328 148.5 95.6143C148.5 95.0183 149.017 94.5494 149.613 94.5689C152.175 94.653 158.572 94.4281 162.5 90.5C167.5 85.5 167.5 79 167.5 79C167.5 79 167.5 79 167.5 79V23Z" fill="#5D98DF"/>
<path fill-rule="evenodd" clip-rule="evenodd" d="M212.5 80C228.24 80 241 67.2401 241 51.5C241 35.7599 228.24 23 212.5 23C196.76 23 184 35.7599 184 51.5C184 67.2401 196.76 80 212.5 80ZM212.5 70C222.717 70 231 61.7173 231 51.5C231 41.2827 222.717 33 212.5 33C202.283 33 194 41.2827 194 51.5C194 61.7173 202.283 70 212.5 70Z" fill="#5D98DF"/>
<path d="M84.5 6.5C84.5 10.0899 81.5899 13 78 13C74.4101 13 71.5 10.0899 71.5 6.5C71.5 2.91015 74.4101 0 78 0C81.5899 0 84.5 2.91015 84.5 6.5Z" fill="#5D98DF"/>
<path d="M72.5 22H83.5V78H72.5V22Z" fill="#5D98DF"/>
<path d="M110 6.5C110 10.0899 107.09 13 103.5 13C99.9101 13 97 10.0899 97 6.5C97 2.91015 99.9101 0 103.5 0C107.09 0 110 2.91015 110 6.5Z" fill="#5D98DF"/>
<path d="M98 22H109V78H98V22Z" fill="#5D98DF"/>
</g>
<defs>
<clipPath id="clip0">
<rect x="0.5" width="240.5" height="114.876" fill="white"/>
</clipPath>
</defs>
</svg>
