<?xml version="1.0" encoding="utf-8"?>
<!-- Generator: Adobe Illustrator 16.0.0, SVG Export Plug-In . SVG Version: 6.00 Build 0)  -->
<!DOCTYPE svg PUBLIC "-//W3C//DTD SVG 1.1//EN" "http://www.w3.org/Graphics/SVG/1.1/DTD/svg11.dtd">
<svg version="1.1" id="Layer_1" xmlns="http://www.w3.org/2000/svg" xmlns:xlink="http://www.w3.org/1999/xlink" x="0px" y="0px"
	 width="297.749px" height="78.859px" viewBox="0 0 297.749 78.859" enable-background="new 0 0 297.749 78.859"
	 xml:space="preserve">
<g>
	<path fill="#FFD65A" d="M78.852,44.625h0.003c-0.003,0-0.003,0-0.003-0.003s0-0.007,0-0.007l0,0
		c-0.702-4.247-4.879-3.896-6.513-3.864c-1.354,0-3.325-1.691-1.802-3.668c0.59-0.793,0.898-1.767,0.898-2.767
		c0-2.928-2.535-5.298-5.664-5.298c-3.13,0-5.667,2.37-5.667,5.298c0,1,0.308,1.974,0.901,2.767
		c1.522,1.977-0.453,3.668-1.806,3.668c-1.045-0.018-3.37-0.108-4.943,0.899c0.16-0.549,0.243-1.175,0.261-1.872
		c0.002-0.099,0.014-0.121,0.014-0.238l0.004-0.105v-4.424c0.048-0.694,0.033-1.32,0.021-1.749V19.655
		c0.029-1.692,0.435-6.02-4.372-6.747v-0.002c0,0-0.003,0-0.005,0s-0.001,0-0.001,0l0,0c-0.044,0-0.313-0.038-0.78-0.038
		c-1.218-0.111-2.175-0.124-2.937-0.186c-1.425-0.115-3.52-1.822-1.91-3.961c0.626-0.852,0.953-1.908,0.953-2.993
		C45.503,2.565,42.822,0,39.521,0c-3.308,0-5.985,2.566-5.985,5.729c0,1.084,0.325,2.141,0.952,2.993
		c1.609,2.139-0.477,3.961-1.907,3.961l-3.47,0.214c-4.63,0.304-4.408,5.06-4.376,6.751v0.053h-0.042v19.734l0.004,0.034
		c0.003,0.136,0.006,0.146,0.003,0.239c-0.022,0.712-0.012,1.359,0.053,1.933c-1.565-1.182-3.987-1.087-5.084-1.07
		c-1.355,0-3.329-1.685-1.808-3.665c0.595-0.791,0.901-1.766,0.901-2.767c0-2.929-2.539-5.298-5.665-5.298
		c-3.13,0-5.667,2.37-5.667,5.298c0,1.001,0.31,1.977,0.902,2.767c1.525,1.979-0.448,3.665-1.806,3.665
		c-1.631-0.023-5.812-0.38-6.509,3.867l0,0v0.003c0,0.003,0,0.007,0,0.007l0,0c0,0.363-0.023,18.478-0.013,18.639
		c0.297,4.097,4.886,3.896,6.523,3.87c1.359,0,3.334,1.685,1.807,3.666c-0.594,0.786-0.902,1.762-0.902,2.763
		c0,2.926,2.541,5.296,5.675,5.296c3.137,0,5.673-2.37,5.673-5.296c0-1.001-0.308-1.977-0.901-2.763
		c-1.525-1.979,0.451-3.666,1.806-3.666c1.634,0.026,5.827,0.384,6.523-3.87c0.004-0.039,0.004-1.6,0-3.803
		c-0.208-1.196-1.814-2.657-3.672-1.376c-0.799,0.535-1.785,0.812-2.798,0.812c-2.953,0-5.348-2.293-5.348-5.116
		c0-2.831,2.395-5.121,5.348-5.121c1.013,0,1.999,0.281,2.798,0.812c1.8,1.246,3.387,0.133,3.649-1.261
		c0.023-1.976-0.007-3.494-0.007-3.585h0.002c-0.011-0.133-0.022-0.264-0.041-0.384c0.007,0.002,0.012,0.009,0.019,0.009
		c0.104-2.488,5.847-2.532,7.038-2.645c1.375-0.133,3.394-1.766,1.841-3.83c-0.604-0.828-0.918-1.847-0.918-2.894
		c0-3.062,2.587-5.546,5.787-5.546c3.194,0,5.787,2.485,5.787,5.546c0,1.047-0.693,2.066-1.297,2.894
		c-1.559,2.064,0.283,3.671,1.848,3.922c1.188,0.192,6.258,0.74,6.646,2.262c0.049-0.027-0.035,0.055,0.014,0.028l0.007,0.038
		c0.014,0.282,0.018,0.427,0.011,0.756h0.003c0,0.089-0.056,1.521-0.062,3.572c0.069,1.225,1.668,2.543,3.471,1.298
		c0.799-0.535,1.784-0.814,2.793-0.814c2.957,0,5.352,2.292,5.352,5.122c0,2.825-2.396,5.119-5.352,5.119
		c-1.009,0-1.994-0.279-2.793-0.818c-1.86-1.28-3.465,0.182-3.675,1.375c-0.001,2.204-0.001,3.769,0.003,3.806
		c0.698,4.254,4.884,3.898,6.523,3.87c1.357,0,3.332,1.688,1.806,3.667c-0.595,0.79-0.902,1.763-0.902,2.764
		c0,2.925,2.538,5.296,5.674,5.296c3.134,0,5.674-2.37,5.674-5.296c0-1.001-0.307-1.974-0.902-2.764
		c-1.527-1.978,0.449-3.667,1.806-3.667c1.636,0.028,6.229,0.226,6.521-3.87C78.877,63.102,78.855,44.99,78.852,44.625z"/>
	<g>
		<path fill="#00548E" d="M92.997,21.551l2.175-6.057l2.166,6.057H92.997z M96.312,14.056h-2.197l-4.509,12.359h1.669l1.217-3.455
			h5.359l1.217,3.455h1.754L96.312,14.056z"/>
		<path fill="#00548E" d="M109.181,23.729c0,0.847-0.35,1.541-1.051,2.084c-0.701,0.543-1.657,0.813-2.872,0.813
			c-0.687,0-1.317-0.081-1.891-0.244c-0.575-0.163-1.054-0.34-1.442-0.534v-1.747h0.083c0.491,0.373,1.037,0.671,1.638,0.893
			c0.602,0.221,1.178,0.33,1.729,0.33c0.685,0,1.219-0.112,1.605-0.336c0.386-0.224,0.579-0.578,0.579-1.06
			c0-0.366-0.105-0.644-0.314-0.831c-0.209-0.189-0.61-0.35-1.206-0.482c-0.22-0.05-0.507-0.108-0.863-0.174
			s-0.679-0.138-0.97-0.216c-0.81-0.216-1.383-0.533-1.722-0.951c-0.338-0.418-0.508-0.932-0.508-1.541
			c0-0.382,0.079-0.741,0.236-1.08c0.157-0.337,0.396-0.64,0.717-0.905c0.309-0.26,0.703-0.467,1.181-0.619
			c0.479-0.152,1.012-0.229,1.604-0.229c0.553,0,1.113,0.068,1.679,0.203s1.038,0.3,1.414,0.494v1.668h-0.083
			c-0.396-0.299-0.876-0.549-1.442-0.755c-0.567-0.205-1.122-0.308-1.666-0.308c-0.566,0-1.044,0.112-1.435,0.334
			c-0.39,0.222-0.584,0.552-0.584,0.989c0,0.382,0.117,0.671,0.354,0.864c0.23,0.195,0.606,0.352,1.123,0.474
			c0.286,0.066,0.606,0.133,0.962,0.2c0.355,0.066,0.651,0.127,0.887,0.183c0.721,0.166,1.277,0.451,1.668,0.855
			C108.986,22.51,109.181,23.052,109.181,23.729z"/>
		<path fill="#00548E" d="M118.044,23.729c0,0.847-0.351,1.541-1.051,2.084c-0.701,0.543-1.658,0.813-2.872,0.813
			c-0.688,0-1.318-0.081-1.892-0.244s-1.054-0.34-1.441-0.534v-1.747h0.083c0.491,0.373,1.037,0.671,1.638,0.893
			c0.601,0.221,1.178,0.33,1.729,0.33c0.684,0,1.219-0.112,1.605-0.336c0.386-0.224,0.578-0.578,0.578-1.06
			c0-0.366-0.104-0.644-0.313-0.831c-0.209-0.189-0.611-0.35-1.206-0.482c-0.22-0.05-0.508-0.108-0.863-0.174
			c-0.355-0.066-0.679-0.138-0.97-0.216c-0.81-0.216-1.383-0.533-1.722-0.951s-0.508-0.932-0.508-1.541
			c0-0.382,0.078-0.741,0.236-1.08c0.158-0.337,0.396-0.64,0.717-0.905c0.309-0.26,0.702-0.467,1.181-0.619
			c0.479-0.152,1.012-0.229,1.604-0.229c0.553,0,1.112,0.068,1.679,0.203c0.566,0.135,1.038,0.3,1.414,0.494v1.668h-0.083
			c-0.396-0.299-0.877-0.549-1.442-0.755c-0.567-0.205-1.121-0.308-1.666-0.308c-0.566,0-1.044,0.112-1.435,0.334
			c-0.391,0.222-0.585,0.552-0.585,0.989c0,0.382,0.119,0.671,0.355,0.864c0.23,0.195,0.605,0.352,1.123,0.474
			c0.286,0.066,0.606,0.133,0.961,0.2c0.355,0.066,0.651,0.127,0.888,0.183c0.721,0.166,1.277,0.451,1.668,0.855
			C117.848,22.51,118.044,23.052,118.044,23.729z"/>
		<path fill="#00548E" d="M125.854,24.434c-0.471,0.595-1.12,0.892-1.947,0.892c-0.838,0-1.491-0.3-1.96-0.9
			c-0.468-0.601-0.702-1.481-0.702-2.644c0-1.2,0.232-2.092,0.698-2.676c0.465-0.584,1.121-0.875,1.964-0.875
			c0.833,0,1.482,0.292,1.951,0.875c0.469,0.585,0.703,1.476,0.703,2.676C126.56,22.955,126.324,23.838,125.854,24.434z
			 M127.019,18.193c-0.774-0.879-1.812-1.319-3.112-1.319c-1.312,0-2.354,0.44-3.126,1.319c-0.772,0.878-1.158,2.074-1.158,3.589
			c0,1.515,0.386,2.709,1.158,3.586c0.772,0.875,1.814,1.314,3.126,1.314c1.3,0,2.338-0.439,3.112-1.314
			c0.775-0.877,1.163-2.072,1.163-3.586C128.182,20.268,127.794,19.071,127.019,18.193z"/>
		<path fill="#00548E" d="M137.443,25.842c-0.52,0.248-1.01,0.441-1.477,0.579c-0.466,0.138-0.961,0.207-1.485,0.207
			c-0.667,0-1.279-0.098-1.836-0.295c-0.557-0.197-1.034-0.494-1.431-0.893c-0.403-0.399-0.714-0.902-0.935-1.511
			c-0.222-0.609-0.331-1.321-0.331-2.135c0-1.517,0.415-2.708,1.245-3.572c0.83-0.864,1.927-1.295,3.288-1.295
			c0.53,0,1.05,0.075,1.559,0.224s0.978,0.332,1.403,0.546v1.729h-0.083c-0.474-0.368-0.963-0.65-1.467-0.848
			c-0.504-0.196-0.995-0.296-1.475-0.296c-0.881,0-1.577,0.298-2.086,0.892c-0.509,0.596-0.764,1.469-0.764,2.62
			c0,1.118,0.25,1.977,0.748,2.578c0.499,0.599,1.2,0.901,2.103,0.901c0.314,0,0.634-0.042,0.958-0.124
			c0.325-0.083,0.617-0.189,0.876-0.321c0.227-0.115,0.438-0.237,0.637-0.366c0.198-0.129,0.354-0.24,0.471-0.333h0.083V25.842
			L137.443,25.842z"/>
		<path fill="#00548E" d="M141.149,15.598h-1.781v-1.621h1.781V15.598z M141.043,26.416h-1.568v-9.277h1.568V26.416z"/>
		<path fill="#00548E" d="M148.526,24.924c-0.45,0.215-0.948,0.322-1.492,0.322c-0.653,0-1.139-0.134-1.457-0.406
			c-0.319-0.27-0.478-0.673-0.478-1.208c0-0.474,0.137-0.846,0.412-1.116c0.275-0.27,0.635-0.47,1.079-0.597
			c0.373-0.106,0.879-0.188,1.52-0.243c0.639-0.056,1.195-0.097,1.667-0.125v2.601C149.392,24.452,148.976,24.709,148.526,24.924z
			 M151.344,20.112c0-0.6-0.091-1.102-0.272-1.506c-0.183-0.405-0.448-0.735-0.796-0.99c-0.354-0.261-0.772-0.444-1.256-0.552
			c-0.484-0.108-1.051-0.163-1.703-0.163c-0.558,0-1.125,0.05-1.699,0.15c-0.575,0.101-1.014,0.192-1.317,0.275v1.595h0.082
			c0.535-0.216,1.052-0.38,1.553-0.494c0.501-0.115,0.955-0.171,1.364-0.171c0.335,0,0.657,0.022,0.965,0.067
			c0.31,0.045,0.573,0.132,0.794,0.261c0.23,0.135,0.408,0.32,0.532,0.556c0.124,0.236,0.186,0.533,0.186,0.893v0.243
			c-0.903,0.045-1.749,0.112-2.537,0.2c-0.788,0.089-1.463,0.259-2.025,0.508c-0.556,0.251-0.985,0.593-1.285,1.029
			c-0.301,0.437-0.451,1.007-0.451,1.713c0,0.86,0.289,1.569,0.868,2.125c0.578,0.554,1.285,0.833,2.117,0.833
			c0.452,0,0.845-0.043,1.181-0.129c0.337-0.086,0.634-0.193,0.894-0.321c0.219-0.1,0.446-0.234,0.681-0.404
			c0.235-0.17,0.42-0.301,0.558-0.396v0.983h1.568v-6.305H151.344z"/>
		<path fill="#00548E" d="M159.169,26.365c-0.294,0.076-0.617,0.14-0.964,0.19c-0.348,0.048-0.659,0.073-0.932,0.073
			c-0.952,0-1.676-0.256-2.171-0.767c-0.497-0.512-0.745-1.332-0.745-2.462v-4.957h-1.063V17.14h1.063v-2.658h1.568v2.658h3.243
			v1.302h-3.243v4.261c0,0.492,0.012,0.876,0.033,1.151c0.023,0.276,0.102,0.535,0.234,0.774c0.123,0.224,0.292,0.387,0.505,0.49
			c0.215,0.103,0.542,0.155,0.983,0.155c0.256,0,0.523-0.037,0.802-0.11c0.277-0.073,0.478-0.133,0.602-0.183h0.083L159.169,26.365
			L159.169,26.365z"/>
		<path fill="#00548E" d="M162.735,15.598h-1.781v-1.621h1.781V15.598z M162.628,26.416h-1.568v-9.277h1.568V26.416z"/>
		<path fill="#00548E" d="M171.295,24.434c-0.472,0.595-1.122,0.892-1.947,0.892c-0.839,0-1.492-0.3-1.96-0.9
			c-0.468-0.601-0.703-1.481-0.703-2.644c0-1.2,0.233-2.092,0.7-2.676c0.465-0.584,1.12-0.875,1.963-0.875
			c0.832,0,1.481,0.292,1.95,0.875c0.468,0.585,0.703,1.476,0.703,2.676C172.001,22.955,171.765,23.838,171.295,24.434z
			 M172.461,18.193c-0.775-0.879-1.812-1.319-3.112-1.319c-1.312,0-2.355,0.44-3.126,1.319c-0.772,0.878-1.157,2.074-1.157,3.589
			c0,1.515,0.385,2.709,1.157,3.586c0.772,0.875,1.814,1.314,3.126,1.314c1.299,0,2.337-0.439,3.112-1.314
			c0.775-0.877,1.162-2.072,1.162-3.586C173.623,20.268,173.236,19.071,172.461,18.193z"/>
		<path fill="#00548E" d="M183.813,26.416h-1.567v-5.286c0-0.427-0.025-0.827-0.075-1.201s-0.141-0.666-0.272-0.877
			c-0.138-0.232-0.337-0.405-0.596-0.518c-0.262-0.114-0.598-0.171-1.011-0.171c-0.427,0-0.87,0.105-1.335,0.315
			c-0.465,0.211-0.909,0.479-1.334,0.807v6.931h-1.568v-9.277h1.568v1.022c0.486-0.405,0.99-0.721,1.512-0.947
			c0.519-0.227,1.052-0.34,1.601-0.34c1.002,0,1.767,0.302,2.291,0.905c0.526,0.605,0.789,1.475,0.789,2.61v6.027H183.813z"/>
		<path fill="#00548E" d="M197.767,15.012h-0.083c-0.171-0.052-0.396-0.104-0.672-0.158c-0.278-0.054-0.521-0.082-0.731-0.082
			c-0.671,0-1.156,0.148-1.459,0.443c-0.302,0.297-0.453,0.833-0.453,1.606v0.316h2.814v1.302h-2.765v7.974h-1.568V18.44h-1.062
			v-1.302h1.062v-0.306c0-1.099,0.275-1.943,0.824-2.532c0.55-0.589,1.343-0.883,2.38-0.883c0.35,0,0.664,0.017,0.944,0.05
			c0.28,0.033,0.536,0.072,0.769,0.117V15.012L197.767,15.012z"/>
		<path fill="#00548E" d="M204.572,18.84h-0.083c-0.232-0.055-0.458-0.096-0.677-0.122c-0.219-0.024-0.478-0.038-0.776-0.038
			c-0.481,0-0.945,0.106-1.394,0.32c-0.451,0.213-0.881,0.489-1.297,0.827v6.588h-1.567v-9.276h1.567v1.371
			c0.619-0.499,1.166-0.852,1.64-1.059c0.474-0.208,0.957-0.312,1.449-0.312c0.272,0,0.468,0.007,0.59,0.02
			c0.121,0.015,0.304,0.042,0.548,0.08V18.84z"/>
		<path fill="#00548E" d="M210.123,24.924c-0.45,0.215-0.947,0.322-1.492,0.322c-0.653,0-1.14-0.134-1.457-0.406
			c-0.319-0.27-0.478-0.673-0.478-1.208c0-0.474,0.138-0.846,0.411-1.116c0.273-0.27,0.634-0.47,1.08-0.597
			c0.371-0.106,0.879-0.188,1.519-0.243c0.64-0.056,1.194-0.097,1.667-0.125v2.601C210.989,24.452,210.572,24.709,210.123,24.924z
			 M212.941,20.112c0-0.6-0.092-1.102-0.273-1.506c-0.182-0.405-0.447-0.735-0.795-0.99c-0.354-0.261-0.772-0.444-1.256-0.552
			c-0.484-0.108-1.052-0.163-1.703-0.163c-0.559,0-1.124,0.05-1.699,0.15c-0.574,0.101-1.014,0.192-1.317,0.275v1.595h0.083
			c0.534-0.216,1.052-0.38,1.552-0.494c0.502-0.115,0.955-0.171,1.363-0.171c0.336,0,0.658,0.022,0.968,0.067
			c0.308,0.045,0.57,0.132,0.793,0.261c0.23,0.135,0.407,0.32,0.532,0.556c0.123,0.236,0.185,0.533,0.185,0.893v0.243
			c-0.902,0.045-1.749,0.112-2.537,0.2c-0.788,0.089-1.463,0.259-2.024,0.508c-0.557,0.251-0.985,0.593-1.286,1.029
			c-0.301,0.437-0.45,1.007-0.45,1.713c0,0.86,0.289,1.569,0.868,2.125c0.578,0.554,1.284,0.833,2.115,0.833
			c0.452,0,0.846-0.043,1.183-0.129c0.336-0.086,0.634-0.193,0.893-0.321c0.222-0.1,0.447-0.234,0.683-0.404
			c0.233-0.17,0.419-0.301,0.557-0.396v0.983h1.569L212.941,20.112L212.941,20.112z"/>
		<path fill="#00548E" d="M223.715,26.416h-1.568v-5.286c0-0.427-0.024-0.827-0.075-1.201c-0.05-0.374-0.141-0.666-0.272-0.877
			c-0.138-0.232-0.337-0.405-0.596-0.518c-0.261-0.114-0.599-0.171-1.011-0.171c-0.427,0-0.87,0.105-1.335,0.315
			c-0.465,0.211-0.909,0.479-1.335,0.807v6.931h-1.567v-9.277h1.567v1.022c0.487-0.405,0.991-0.721,1.512-0.947
			c0.52-0.227,1.053-0.34,1.603-0.34c1.001,0,1.765,0.302,2.29,0.905c0.525,0.605,0.789,1.475,0.789,2.61L223.715,26.416
			L223.715,26.416z"/>
		<path fill="#00548E" d="M233.549,25.842c-0.518,0.248-1.011,0.441-1.477,0.579c-0.464,0.138-0.96,0.207-1.483,0.207
			c-0.669,0-1.28-0.098-1.836-0.295c-0.558-0.197-1.035-0.494-1.433-0.893c-0.403-0.399-0.715-0.902-0.935-1.511
			c-0.222-0.609-0.332-1.321-0.332-2.135c0-1.517,0.415-2.708,1.245-3.572c0.83-0.864,1.926-1.295,3.288-1.295
			c0.53,0,1.05,0.075,1.561,0.224c0.509,0.149,0.977,0.332,1.401,0.546v1.729h-0.084c-0.473-0.368-0.961-0.65-1.466-0.848
			c-0.504-0.196-0.996-0.296-1.474-0.296c-0.882,0-1.577,0.298-2.086,0.892c-0.511,0.596-0.765,1.469-0.765,2.62
			c0,1.118,0.249,1.977,0.748,2.578c0.497,0.599,1.198,0.901,2.103,0.901c0.313,0,0.633-0.042,0.958-0.124
			c0.324-0.083,0.617-0.189,0.876-0.321c0.226-0.115,0.438-0.237,0.636-0.366c0.198-0.129,0.356-0.24,0.472-0.333h0.082V25.842
			L233.549,25.842z"/>
		<path fill="#00548E" d="M241.148,24.434c-0.472,0.595-1.122,0.892-1.947,0.892c-0.839,0-1.492-0.3-1.961-0.9
			c-0.469-0.601-0.703-1.481-0.703-2.644c0-1.2,0.233-2.092,0.7-2.676c0.465-0.584,1.12-0.875,1.964-0.875
			c0.832,0,1.481,0.292,1.95,0.875c0.469,0.585,0.702,1.476,0.702,2.676C241.853,22.955,241.618,23.838,241.148,24.434z
			 M242.312,18.193c-0.773-0.879-1.812-1.319-3.111-1.319c-1.312,0-2.354,0.44-3.126,1.319c-0.771,0.878-1.158,2.074-1.158,3.589
			c0,1.515,0.388,2.709,1.158,3.586c0.772,0.875,1.813,1.314,3.126,1.314c1.3,0,2.338-0.439,3.111-1.314
			c0.775-0.877,1.162-2.072,1.162-3.586C243.474,20.268,243.088,19.071,242.312,18.193z"/>
		<path fill="#00548E" d="M251.739,24.335c-0.488,0.59-1.168,0.884-2.038,0.884c-0.404,0-0.766-0.037-1.084-0.108
			c-0.318-0.073-0.7-0.209-1.145-0.409v-5.28c0.416-0.317,0.851-0.574,1.307-0.767c0.454-0.195,0.905-0.293,1.355-0.293
			c0.793,0,1.379,0.278,1.763,0.833c0.382,0.557,0.573,1.398,0.573,2.521C252.47,22.873,252.227,23.746,251.739,24.335z
			 M253.156,18.145c-0.624-0.848-1.498-1.271-2.618-1.271c-0.59,0-1.142,0.118-1.661,0.354c-0.52,0.236-0.986,0.53-1.404,0.88
			v-0.969h-1.567v12.705h1.567v-3.867c0.407,0.224,0.805,0.386,1.195,0.493c0.393,0.104,0.829,0.158,1.312,0.158
			c0.555,0,1.08-0.113,1.577-0.336c0.497-0.227,0.928-0.544,1.295-0.955c0.395-0.434,0.698-0.963,0.915-1.588
			c0.216-0.625,0.324-1.316,0.324-2.072C254.091,20.169,253.78,18.993,253.156,18.145z"/>
		<path fill="#00548E" d="M264.264,26.416h-1.568v-5.286c0-0.427-0.024-0.827-0.074-1.201c-0.051-0.374-0.141-0.666-0.273-0.877
			c-0.137-0.232-0.335-0.405-0.596-0.518c-0.261-0.114-0.597-0.171-1.011-0.171c-0.426,0-0.869,0.105-1.334,0.315
			c-0.464,0.211-0.91,0.479-1.335,0.807v6.931h-1.568V13.498h1.568v4.664c0.487-0.405,0.991-0.721,1.512-0.947
			c0.519-0.227,1.053-0.34,1.602-0.34c1.001,0,1.767,0.302,2.291,0.905c0.525,0.605,0.788,1.475,0.788,2.61L264.264,26.416
			L264.264,26.416z"/>
		<path fill="#00548E" d="M272.834,24.434c-0.473,0.595-1.121,0.892-1.947,0.892c-0.839,0-1.491-0.3-1.96-0.9
			c-0.469-0.601-0.703-1.481-0.703-2.644c0-1.2,0.233-2.092,0.7-2.676c0.465-0.584,1.119-0.875,1.963-0.875
			c0.834,0,1.481,0.292,1.95,0.875c0.469,0.585,0.703,1.476,0.703,2.676C273.541,22.955,273.304,23.838,272.834,24.434z M274,18.193
			c-0.775-0.879-1.812-1.319-3.112-1.319c-1.312,0-2.354,0.44-3.126,1.319c-0.771,0.878-1.158,2.074-1.158,3.589
			c0,1.515,0.387,2.709,1.158,3.586c0.772,0.875,1.814,1.314,3.126,1.314c1.301,0,2.337-0.439,3.112-1.314
			c0.775-0.877,1.162-2.072,1.162-3.586C275.162,20.268,274.775,19.071,274,18.193z"/>
		<path fill="#00548E" d="M285.353,26.416h-1.568v-5.286c0-0.427-0.025-0.827-0.074-1.201c-0.05-0.374-0.14-0.666-0.273-0.877
			c-0.138-0.232-0.336-0.405-0.596-0.518c-0.261-0.114-0.598-0.171-1.012-0.171c-0.425,0-0.868,0.105-1.334,0.315
			c-0.463,0.211-0.908,0.479-1.334,0.807v6.931h-1.568v-9.277h1.568v1.022c0.487-0.405,0.991-0.721,1.512-0.947
			c0.52-0.227,1.054-0.34,1.602-0.34c1.002,0,1.766,0.302,2.291,0.905c0.525,0.605,0.789,1.475,0.789,2.61v6.027H285.353z"/>
		<path fill="#00548E" d="M289.313,20.728c0.066-0.732,0.346-1.344,0.839-1.838c0.493-0.493,1.156-0.74,1.988-0.74
			c0.826,0,1.442,0.225,1.847,0.673c0.404,0.449,0.611,1.083,0.616,1.905H289.313z M296.118,21.078c0-1.344-0.339-2.381-1.017-3.11
			c-0.68-0.729-1.646-1.094-2.896-1.094c-1.352,0-2.441,0.445-3.271,1.337c-0.827,0.892-1.242,2.098-1.242,3.615
			c0,1.535,0.433,2.718,1.295,3.552c0.864,0.833,2.067,1.251,3.605,1.251c0.604,0,1.179-0.075,1.728-0.223
			c0.548-0.149,1.085-0.334,1.611-0.554v-1.694h-0.082c-0.27,0.242-0.724,0.489-1.359,0.74c-0.637,0.251-1.269,0.376-1.896,0.376
			c-0.475,0-0.908-0.067-1.302-0.2c-0.395-0.134-0.734-0.335-1.02-0.603c-0.298-0.271-0.531-0.621-0.703-1.047
			c-0.171-0.426-0.256-0.926-0.256-1.5h6.805V21.078L296.118,21.078z"/>
		<path fill="#00548E" d="M96.768,41.345c-0.488,0.59-1.167,0.884-2.037,0.884c-0.405,0-0.766-0.037-1.084-0.108
			c-0.319-0.073-0.7-0.209-1.143-0.408v-5.281c0.415-0.317,0.851-0.573,1.305-0.767c0.454-0.195,0.906-0.293,1.355-0.293
			c0.792,0,1.38,0.278,1.762,0.834c0.383,0.556,0.574,1.397,0.574,2.52C97.5,39.883,97.255,40.757,96.768,41.345z M98.184,35.155
			c-0.624-0.848-1.497-1.271-2.618-1.271c-0.588,0-1.142,0.118-1.661,0.354c-0.519,0.237-0.986,0.53-1.403,0.88v-0.969h-1.568
			v12.706h1.568v-3.867c0.405,0.223,0.803,0.387,1.195,0.493c0.391,0.104,0.828,0.158,1.312,0.158c0.554,0,1.081-0.113,1.577-0.337
			c0.497-0.226,0.928-0.543,1.294-0.955c0.394-0.434,0.699-0.962,0.916-1.588c0.216-0.624,0.325-1.315,0.325-2.072
			C99.122,37.179,98.809,36.003,98.184,35.155z"/>
		<path fill="#00548E" d="M107.099,41.444c-0.471,0.595-1.12,0.892-1.947,0.892c-0.837,0-1.491-0.301-1.959-0.9
			c-0.469-0.601-0.703-1.482-0.703-2.644c0-1.2,0.232-2.092,0.699-2.677c0.465-0.583,1.12-0.875,1.963-0.875
			c0.833,0,1.483,0.292,1.952,0.875c0.468,0.585,0.702,1.477,0.702,2.677C107.805,39.966,107.57,40.849,107.099,41.444z
			 M108.264,35.203c-0.775-0.878-1.812-1.319-3.113-1.319c-1.312,0-2.353,0.441-3.125,1.319s-1.157,2.075-1.157,3.589
			s0.386,2.708,1.157,3.585c0.772,0.876,1.814,1.314,3.125,1.314c1.301,0,2.338-0.438,3.113-1.314
			c0.775-0.877,1.163-2.071,1.163-3.585C109.427,37.278,109.04,36.082,108.264,35.203z"/>
		<path fill="#00548E" d="M119.539,43.426h-1.569v-1.022c-0.525,0.416-1.029,0.733-1.51,0.956c-0.481,0.221-1.013,0.333-1.594,0.333
			c-0.975,0-1.732-0.297-2.274-0.894c-0.542-0.595-0.814-1.47-0.814-2.622V34.15h1.569v5.287c0,0.471,0.022,0.873,0.066,1.208
			c0.044,0.337,0.138,0.621,0.282,0.861c0.149,0.244,0.343,0.422,0.58,0.531c0.238,0.112,0.583,0.167,1.036,0.167
			c0.403,0,0.844-0.104,1.322-0.316c0.479-0.211,0.924-0.478,1.339-0.806v-6.931h1.568V43.426L119.539,43.426z"/>
		<path fill="#00548E" d="M128.416,35.85h-0.083c-0.232-0.055-0.458-0.096-0.677-0.122s-0.478-0.038-0.776-0.038
			c-0.482,0-0.947,0.106-1.395,0.32c-0.448,0.213-0.88,0.489-1.294,0.827v6.588h-1.569v-9.276h1.569v1.371
			c0.62-0.499,1.166-0.852,1.64-1.06s0.957-0.312,1.449-0.312c0.271,0,0.467,0.007,0.589,0.021c0.122,0.013,0.305,0.041,0.548,0.079
			L128.416,35.85L128.416,35.85z"/>
		<path fill="#00548E" d="M137.43,43.426h-1.568V30.508h1.568V43.426z"/>
		<path fill="#00548E" d="M141.486,37.738c0.066-0.732,0.345-1.344,0.838-1.837c0.493-0.494,1.155-0.741,1.987-0.741
			c0.827,0,1.442,0.225,1.847,0.673c0.405,0.45,0.61,1.083,0.616,1.905H141.486z M148.29,38.088c0-1.344-0.338-2.381-1.017-3.11
			s-1.644-1.095-2.896-1.095c-1.351,0-2.441,0.445-3.269,1.337c-0.828,0.893-1.242,2.098-1.242,3.615
			c0,1.536,0.432,2.719,1.295,3.552c0.864,0.833,2.065,1.251,3.604,1.251c0.604,0,1.18-0.075,1.729-0.223
			c0.547-0.149,1.084-0.335,1.611-0.555v-1.694h-0.082c-0.27,0.243-0.724,0.489-1.36,0.74c-0.636,0.25-1.268,0.376-1.896,0.376
			c-0.473,0-0.907-0.066-1.301-0.2c-0.395-0.134-0.734-0.334-1.02-0.602c-0.298-0.272-0.532-0.622-0.703-1.047
			c-0.171-0.427-0.256-0.926-0.256-1.5h6.804L148.29,38.088L148.29,38.088z"/>
		<path fill="#00548E" d="M163.26,40.739c0,0.847-0.351,1.541-1.052,2.084c-0.7,0.544-1.657,0.814-2.87,0.814
			c-0.688,0-1.317-0.083-1.892-0.245c-0.573-0.162-1.054-0.339-1.442-0.534v-1.748h0.084c0.491,0.374,1.037,0.671,1.638,0.893
			c0.601,0.221,1.179,0.331,1.729,0.331c0.685,0,1.22-0.112,1.605-0.336c0.386-0.224,0.58-0.578,0.58-1.06
			c0-0.366-0.104-0.644-0.314-0.831c-0.209-0.19-0.611-0.35-1.204-0.483c-0.221-0.05-0.508-0.107-0.864-0.174
			c-0.356-0.066-0.678-0.138-0.971-0.216c-0.809-0.216-1.383-0.532-1.72-0.951c-0.339-0.418-0.509-0.932-0.509-1.541
			c0-0.382,0.079-0.741,0.237-1.08c0.157-0.337,0.396-0.64,0.717-0.905c0.308-0.26,0.703-0.467,1.182-0.619
			c0.478-0.152,1.012-0.229,1.604-0.229c0.552,0,1.112,0.068,1.679,0.203c0.566,0.136,1.037,0.3,1.413,0.494v1.668h-0.082
			c-0.397-0.298-0.877-0.549-1.444-0.755c-0.565-0.205-1.12-0.308-1.665-0.308c-0.566,0-1.044,0.112-1.435,0.333
			c-0.39,0.222-0.584,0.552-0.584,0.989c0,0.381,0.12,0.671,0.355,0.864c0.231,0.195,0.605,0.352,1.123,0.474
			c0.285,0.066,0.606,0.133,0.962,0.199c0.354,0.066,0.651,0.127,0.887,0.183c0.721,0.166,1.277,0.451,1.667,0.855
			C163.065,39.521,163.26,40.063,163.26,40.739z"/>
		<path fill="#00548E" d="M169.888,41.934c-0.45,0.215-0.947,0.323-1.492,0.323c-0.653,0-1.14-0.135-1.458-0.406
			c-0.318-0.27-0.478-0.672-0.478-1.208c0-0.474,0.138-0.846,0.412-1.117c0.274-0.27,0.635-0.469,1.08-0.597
			c0.372-0.105,0.878-0.188,1.519-0.243c0.639-0.055,1.196-0.097,1.667-0.125v2.6C170.756,41.462,170.338,41.72,169.888,41.934z
			 M172.708,37.122c0-0.6-0.091-1.102-0.273-1.506c-0.182-0.405-0.447-0.735-0.795-0.99c-0.354-0.26-0.773-0.444-1.257-0.552
			c-0.483-0.108-1.052-0.163-1.703-0.163c-0.558,0-1.125,0.05-1.7,0.15c-0.575,0.101-1.012,0.192-1.317,0.275v1.595h0.083
			c0.535-0.216,1.051-0.38,1.553-0.493c0.5-0.115,0.955-0.171,1.363-0.171c0.336,0,0.657,0.023,0.966,0.067
			c0.309,0.045,0.573,0.132,0.794,0.261c0.23,0.135,0.408,0.32,0.531,0.555c0.124,0.236,0.186,0.533,0.186,0.892v0.245
			c-0.903,0.044-1.749,0.111-2.537,0.199c-0.788,0.089-1.463,0.259-2.026,0.508c-0.557,0.251-0.985,0.593-1.286,1.03
			c-0.301,0.436-0.45,1.006-0.45,1.712c0,0.861,0.289,1.569,0.869,2.125c0.578,0.554,1.284,0.833,2.116,0.833
			c0.452,0,0.846-0.044,1.182-0.129c0.336-0.086,0.634-0.192,0.894-0.321c0.219-0.099,0.447-0.234,0.681-0.404
			c0.234-0.171,0.42-0.301,0.558-0.396v0.983h1.569L172.708,37.122L172.708,37.122z"/>
		<path fill="#00548E" d="M183.615,34.149l-3.758,9.276h-1.571l-3.735-9.276h1.691l2.883,7.383l2.855-7.383H183.615z"/>
		<path fill="#00548E" d="M191.072,41.444c-0.473,0.595-1.122,0.892-1.947,0.892c-0.839,0-1.491-0.301-1.96-0.9
			c-0.469-0.601-0.703-1.482-0.703-2.644c0-1.2,0.232-2.092,0.7-2.677c0.465-0.583,1.119-0.875,1.963-0.875
			c0.832,0,1.481,0.292,1.95,0.875c0.469,0.585,0.703,1.477,0.703,2.677C191.778,39.966,191.542,40.849,191.072,41.444z
			 M192.237,35.203c-0.775-0.878-1.812-1.319-3.112-1.319c-1.312,0-2.354,0.441-3.126,1.319c-0.771,0.878-1.158,2.075-1.158,3.589
			s0.387,2.708,1.158,3.585c0.772,0.876,1.813,1.314,3.126,1.314c1.3,0,2.337-0.438,3.112-1.314
			c0.775-0.877,1.162-2.071,1.162-3.585C193.399,37.278,193.012,36.082,192.237,35.203z"/>
		<path fill="#00548E" d="M197.502,32.608h-1.78v-1.621h1.78V32.608z M197.397,43.426h-1.568v-9.277h1.568V43.426z"/>
		<path fill="#00548E" d="M206.291,35.85h-0.083c-0.232-0.055-0.458-0.096-0.676-0.122c-0.219-0.024-0.479-0.038-0.776-0.038
			c-0.481,0-0.945,0.106-1.396,0.32c-0.448,0.213-0.88,0.489-1.295,0.827v6.588h-1.567v-9.276h1.567v1.371
			c0.62-0.499,1.166-0.852,1.64-1.06c0.475-0.208,0.956-0.312,1.45-0.312c0.271,0,0.467,0.007,0.588,0.021
			c0.123,0.014,0.304,0.041,0.548,0.079V35.85z"/>
		<path fill="#00548E" d="M237.966,62.829l2.023-3.528l0.406,3.528H237.966z M242.007,56.742h-2.948l-5.929,9.888h2.665l1.174-2.046
			h3.611l0.232,2.046h2.577L242.007,56.742z"/>
		<path fill="#00548E" d="M253.872,66.842c-0.507,0-0.983-0.063-1.428-0.19c-0.442-0.126-0.831-0.323-1.162-0.589
			c-0.323-0.262-0.575-0.592-0.755-0.987c-0.182-0.395-0.272-0.854-0.272-1.373c0-0.671,0.128-1.294,0.381-1.871
			c0.255-0.574,0.61-1.078,1.072-1.51c0.449-0.422,1-0.755,1.649-1.003c0.65-0.246,1.352-0.369,2.107-0.369
			c0.455,0,0.907,0.05,1.356,0.151c0.447,0.102,0.864,0.25,1.249,0.443l-0.504,2.035h-0.336c-0.26-0.314-0.554-0.549-0.882-0.7
			c-0.329-0.153-0.697-0.229-1.107-0.229c-0.751,0-1.353,0.271-1.806,0.809c-0.454,0.538-0.681,1.21-0.681,2.013
			c0,0.561,0.139,0.977,0.419,1.255c0.278,0.277,0.713,0.415,1.304,0.415c0.458,0,0.875-0.096,1.252-0.287
			c0.377-0.194,0.697-0.408,0.968-0.644h0.336l-0.503,2.052c-0.477,0.209-0.895,0.359-1.256,0.446
			C254.914,66.797,254.447,66.842,253.872,66.842z"/>
		<path fill="#00548E" d="M267.703,59.162h1.851l-0.36,1.567h-1.771l-1.368,5.902h-2.4l1.37-5.902h-1.024l0.357-1.567h1.022
			l0.046-0.194c0.203-0.9,0.574-1.586,1.114-2.054c0.541-0.469,1.341-0.703,2.398-0.703c0.389,0,0.727,0.014,1.016,0.037
			c0.288,0.022,0.535,0.054,0.744,0.094l-0.392,1.65h-0.179c-0.102-0.035-0.246-0.069-0.436-0.106
			c-0.188-0.035-0.359-0.054-0.519-0.054c-0.442,0-0.762,0.089-0.964,0.268c-0.201,0.179-0.364,0.514-0.491,1.006L267.703,59.162z"
			/>
		<path fill="#00548E" d="M279.614,64.686c-0.233,0.171-0.483,0.312-0.749,0.424c-0.266,0.109-0.514,0.163-0.747,0.163
			c-0.356,0-0.627-0.052-0.815-0.157c-0.186-0.105-0.278-0.288-0.278-0.549c0-0.297,0.069-0.533,0.211-0.713
			c0.14-0.18,0.345-0.317,0.613-0.418c0.261-0.093,0.575-0.165,0.945-0.214c0.368-0.05,0.764-0.093,1.186-0.128L279.614,64.686z
			 M279.165,66.629h2.366l1.174-5.08c0.027-0.106,0.047-0.23,0.063-0.373c0.015-0.144,0.023-0.258,0.023-0.347
			c0-0.643-0.273-1.115-0.817-1.422s-1.396-0.459-2.559-0.459c-0.578,0-1.155,0.044-1.738,0.133c-0.582,0.09-1.011,0.169-1.288,0.24
			l-0.35,1.779h0.217c0.236-0.089,0.591-0.199,1.063-0.332c0.472-0.135,0.903-0.2,1.294-0.2c0.575,0,1.006,0.062,1.295,0.187
			c0.29,0.124,0.437,0.341,0.437,0.649c0,0.075-0.008,0.144-0.022,0.202c-0.016,0.061-0.024,0.104-0.029,0.132
			c-0.823,0.05-1.588,0.125-2.294,0.227c-0.707,0.104-1.314,0.269-1.824,0.5c-0.547,0.245-0.959,0.574-1.236,0.984
			c-0.277,0.411-0.415,0.912-0.415,1.506c0,0.559,0.196,1.013,0.587,1.363c0.39,0.349,0.894,0.523,1.51,0.523
			c0.384,0,0.684-0.027,0.899-0.08c0.217-0.055,0.448-0.133,0.695-0.237c0.181-0.08,0.376-0.19,0.589-0.331
			c0.211-0.14,0.393-0.26,0.543-0.358L279.165,66.629z"/>
		<path fill="#00548E" d="M292.077,66.842c-0.637,0-1.257-0.06-1.855-0.18s-1.058-0.262-1.377-0.42l0.46-1.978h0.221
			c0.098,0.086,0.223,0.184,0.372,0.29c0.148,0.106,0.36,0.217,0.635,0.331c0.236,0.106,0.511,0.198,0.822,0.274
			c0.312,0.077,0.646,0.114,1.008,0.114c0.538,0,0.94-0.064,1.211-0.194c0.269-0.13,0.403-0.315,0.403-0.556
			c0-0.179-0.097-0.312-0.289-0.407c-0.191-0.093-0.588-0.208-1.191-0.346c-1.021-0.235-1.723-0.52-2.1-0.853
			c-0.377-0.334-0.566-0.748-0.566-1.245c0-0.845,0.378-1.509,1.131-1.995c0.754-0.487,1.774-0.729,3.06-0.729
			c0.559,0,1.117,0.055,1.677,0.167c0.559,0.114,0.969,0.234,1.229,0.364l-0.44,1.887h-0.206c-0.316-0.252-0.697-0.456-1.146-0.614
			c-0.447-0.157-0.906-0.236-1.377-0.236c-0.513,0-0.904,0.063-1.178,0.19c-0.274,0.128-0.411,0.323-0.411,0.586
			c0,0.196,0.12,0.346,0.356,0.45c0.234,0.104,0.608,0.212,1.117,0.322c0.946,0.204,1.628,0.463,2.046,0.772
			c0.418,0.312,0.626,0.747,0.626,1.306c0,0.835-0.381,1.494-1.144,1.975C294.407,66.601,293.376,66.842,292.077,66.842z"/>
		<line fill="none" stroke="#FFD65A" stroke-width="0.9244" x1="89.393" y1="51.77" x2="297.749" y2="51.77"/>
	</g>
</g>
</svg>
