<svg xmlns="http://www.w3.org/2000/svg" width="1000" height="1000" preserveAspectRatio="xMidYMid meet" viewBox="0 0 600 600"><defs><radialGradient id="cpHeadGrad" gradientUnits="userSpaceOnUse" cx="300" cy="228" r="27"><stop offset="0.314134906528746" stop-color="rgb(42, 159, 221)"/><stop offset="0.4889788634820029" stop-color="rgb(116, 63, 172)"/><stop offset="0.7277780626312085" stop-color="rgb(255, 105, 85)"/><stop offset="0.7394003083130604" stop-color="rgb(54, 140, 225)"/></radialGradient><radialGradient id="cpBodyGrad" gradientUnits="userSpaceOnUse" cx="300" cy="329" r="101"><stop offset="0.002476298128625376" stop-color="rgb(148, 61, 179)"/><stop offset="0.3130664986064289" stop-color="rgb(255, 129, 63)"/><stop offset="0.3282332717949139" stop-color="rgb(217, 193, 49)"/><stop offset="0.4323612789640806" stop-color="rgb(242, 163, 47)"/><stop offset="0.44911393987637127" stop-color="rgb(108, 67, 175)"/><stop offset="0.472263557615452" stop-color="rgb(125, 246, 88)"/><stop offset="0.765229336465129" stop-color="rgb(29, 222, 163)"/><stop offset="0.8642052961819383" stop-color="rgb(53, 142, 225)"/><stop offset="0.9806085431744701" stop-color="rgb(35, 230, 150)"/></radialGradient><radialGradient id="cpTailGrad" gradientUnits="userSpaceOnUse" cx="300" cy="438" r="152"><stop offset="0.46344676448030075" stop-color="rgb(141, 62, 178)"/><stop offset="0.6150927131645305" stop-color="rgb(155, 61, 179)"/><stop offset="0.6295070997254045" stop-color="rgb(58, 242, 120)"/><stop offset="0.727216425575668" stop-color="rgb(111, 64, 170)"/><stop offset="0.7802488639496625" stop-color="rgb(173, 60, 178)"/></radialGradient><radialGradient id="WingGradpath24" gradientUnits="userSpaceOnUse" cx="10.446219444274902" cy="148.5049591064453" r="120.72947692871094"><stop offset="0.08805187564370642" stop-color="rgb(99, 81, 196)"/><stop offset="0.09297872091143355" stop-color="rgb(201, 61, 172)"/><stop offset="0.23176946960094513" stop-color="rgb(64, 127, 225)"/><stop offset="0.3502451189418241" stop-color="rgb(202, 61, 171)"/><stop offset="0.5797696932970174" stop-color="rgb(74, 114, 221)"/><stop offset="0.7987426523042532" stop-color="rgb(32, 227, 156)"/><stop offset="0.9683787646792045" stop-color="rgb(72, 245, 109)"/></radialGradient><radialGradient id="WingGradpath1" gradientUnits="userSpaceOnUse" cx="-24.51495933532715" cy="41.393524169921875" r="126.7239761352539"><stop offset="0.07340210205742148" stop-color="rgb(35, 171, 216)"/><stop offset="0.3287308523416531" stop-color="rgb(28, 220, 167)"/><stop offset="0.3632507098587674" stop-color="rgb(167, 60, 179)"/><stop offset="0.4619731360896997" stop-color="rgb(29, 186, 206)"/><stop offset="0.5067749104572735" stop-color="rgb(203, 61, 170)"/><stop offset="0.5112937450531367" stop-color="rgb(82, 246, 103)"/><stop offset="0.6639017505747369" stop-color="rgb(255, 124, 67)"/><stop offset="0.9006941043618979" stop-color="rgb(96, 85, 200)"/></radialGradient><radialGradient id="WingGradpath35" gradientUnits="userSpaceOnUse" cx="59.077762603759766" cy="155.1767578125" r="32.17483139038086"><stop offset="0.08575502473796703" stop-color="rgb(25, 206, 187)"/><stop offset="0.1991299895701395" stop-color="rgb(224, 186, 47)"/><stop offset="0.3801296776817994" stop-color="rgb(242, 69, 146)"/><stop offset="0.4996545034065981" stop-color="rgb(223, 64, 160)"/><stop offset="0.5571929282760459" stop-color="rgb(255, 129, 63)"/><stop offset="0.5745962745215865" stop-color="rgb(28, 220, 167)"/><stop offset="0.6957906249720593" stop-color="rgb(106, 70, 180)"/><stop offset="0.9239645147465102" stop-color="rgb(241, 165, 47)"/></radialGradient><radialGradient id="WingGradpath38" gradientUnits="userSpaceOnUse" cx="81.96058654785156" cy="171.7244415283203" r="43.96247863769531"><stop offset="0.14008010100328183" stop-color="rgb(101, 77, 191)"/><stop offset="0.3461335541746339" stop-color="rgb(105, 247, 93)"/><stop offset="0.3863190631379698" stop-color="rgb(127, 245, 88)"/><stop offset="0.45729036016206415" stop-color="rgb(181, 234, 81)"/><stop offset="0.47593710847219484" stop-color="rgb(242, 69, 145)"/><stop offset="0.5107887281934692" stop-color="rgb(198, 214, 60)"/><stop offset="0.6174547100149785" stop-color="rgb(92, 90, 205)"/><stop offset="0.8080021108529252" stop-color="rgb(59, 242, 119)"/></radialGradient><radialGradient id="WingGradpath2" gradientUnits="userSpaceOnUse" cx="21.320955276489258" cy="132.6156005859375" r="75.65975952148438"><stop offset="0.025794311796565883" stop-color="rgb(192, 221, 66)"/><stop offset="0.04289089357415932" stop-color="rgb(99, 81, 196)"/><stop offset="0.1596514569049331" stop-color="rgb(187, 226, 71)"/><stop offset="0.18141590929126206" stop-color="rgb(119, 63, 173)"/><stop offset="0.21505302619779965" stop-color="rgb(61, 243, 117)"/><stop offset="0.5636424528883269" stop-color="rgb(215, 62, 165)"/><stop offset="0.7466749471439107" stop-color="rgb(217, 193, 49)"/><stop offset="0.9041619599739978" stop-color="rgb(255, 82, 118)"/><stop offset="0.9100623509255436" stop-color="rgb(181, 233, 80)"/></radialGradient><radialGradient id="WingGradpath3" gradientUnits="userSpaceOnUse" cx="47.04883575439453" cy="108.8425064086914" r="49.93187713623047"><stop offset="0.5459439608123311" stop-color="rgb(255, 135, 59)"/><stop offset="0.7080755125104596" stop-color="rgb(117, 246, 90)"/><stop offset="0.8547534416519547" stop-color="rgb(255, 132, 61)"/><stop offset="0.8675421823688216" stop-color="rgb(30, 224, 161)"/></radialGradient><radialGradient id="WingGradpath3-3" gradientUnits="userSpaceOnUse" cx="60.50008010864258" cy="105.6325454711914" r="50.660011291503906"><stop offset="0.009829822240009833" stop-color="rgb(26, 199, 194)"/><stop offset="0.1138296957538314" stop-color="rgb(92, 90, 206)"/><stop offset="0.3252148986330434" stop-color="rgb(255, 130, 63)"/><stop offset="0.5203062095526774" stop-color="rgb(224, 186, 47)"/><stop offset="0.5981812612808658" stop-color="rgb(98, 247, 95)"/></radialGradient><radialGradient id="WingGradpath5" gradientUnits="userSpaceOnUse" cx="16.21412467956543" cy="114.60794067382812" r="75.47547912597656"><stop offset="0.0019961502924387142" stop-color="rgb(255, 92, 102)"/><stop offset="0.3413153307794645" stop-color="rgb(67, 244, 112)"/><stop offset="0.36467304503546427" stop-color="rgb(123, 63, 174)"/><stop offset="0.4344402281764038" stop-color="rgb(247, 71, 140)"/><stop offset="0.5631359277009317" stop-color="rgb(210, 62, 167)"/><stop offset="0.7343520566685822" stop-color="rgb(244, 70, 144)"/><stop offset="0.9546941428122606" stop-color="rgb(85, 100, 213)"/></radialGradient><radialGradient id="WingGradpath6" gradientUnits="userSpaceOnUse" cx="12.250231742858887" cy="101.74986267089844" r="37.41496658325195"><stop offset="0.15325290634740074" stop-color="rgb(255, 121, 69)"/><stop offset="0.1721236126281197" stop-color="rgb(216, 195, 49)"/><stop offset="0.191054972350442" stop-color="rgb(50, 146, 225)"/><stop offset="0.35994082935270433" stop-color="rgb(255, 80, 122)"/><stop offset="0.712384521358505" stop-color="rgb(255, 79, 123)"/><stop offset="0.9367912508590786" stop-color="rgb(186, 227, 72)"/><stop offset="0.9589445486305703" stop-color="rgb(225, 64, 159)"/></radialGradient><radialGradient id="WingGradpath7" gradientUnits="userSpaceOnUse" cx="6.875491619110107" cy="87.74803161621094" r="32.90666580200195"><stop offset="0.14059046256981722" stop-color="rgb(248, 72, 138)"/><stop offset="0.4053266382221413" stop-color="rgb(198, 214, 60)"/><stop offset="0.6184351459674603" stop-color="rgb(103, 75, 188)"/><stop offset="0.9795341008117645" stop-color="rgb(221, 189, 48)"/></radialGradient><radialGradient id="WingGradpath8" gradientUnits="userSpaceOnUse" cx="8.163498878479004" cy="75.4112777709961" r="24.442928314208984"><stop offset="0.14182824900413038" stop-color="rgb(33, 175, 214)"/><stop offset="0.15710000481520592" stop-color="rgb(144, 244, 87)"/><stop offset="0.17333524061046635" stop-color="rgb(244, 70, 144)"/><stop offset="0.45903703953685526" stop-color="rgb(112, 64, 171)"/><stop offset="0.5797047792984529" stop-color="rgb(144, 61, 178)"/><stop offset="0.6014196885992413" stop-color="rgb(209, 62, 168)"/><stop offset="0.6996379842157964" stop-color="rgb(183, 60, 176)"/><stop offset="0.7259643086593613" stop-color="rgb(218, 63, 164)"/><stop offset="0.7514044446202099" stop-color="rgb(226, 184, 47)"/></radialGradient><radialGradient id="WingGradpath9" gradientUnits="userSpaceOnUse" cx="14.021296501159668" cy="62.30709457397461" r="23.864334106445312"><stop offset="0.04935377314041589" stop-color="rgb(36, 169, 217)"/><stop offset="0.12603716826207023" stop-color="rgb(210, 202, 52)"/><stop offset="0.6110058492656406" stop-color="rgb(57, 242, 121)"/><stop offset="0.8507570368309213" stop-color="rgb(34, 173, 215)"/></radialGradient><radialGradient id="WingGradpath10" gradientUnits="userSpaceOnUse" cx="21.50766944885254" cy="58.06008529663086" r="21.95977210998535"><stop offset="0.45187572910078255" stop-color="rgb(34, 173, 215)"/><stop offset="0.7979381449049551" stop-color="rgb(85, 100, 213)"/><stop offset="0.8482275233495815" stop-color="rgb(89, 95, 210)"/><stop offset="0.9439590025865754" stop-color="rgb(218, 192, 49)"/></radialGradient><radialGradient id="WingGradpath33" gradientUnits="userSpaceOnUse" cx="45.79074478149414" cy="151.047607421875" r="36.64614486694336"><stop offset="0.18448956902426816" stop-color="rgb(255, 110, 80)"/><stop offset="0.3534183233800181" stop-color="rgb(153, 243, 87)"/><stop offset="0.518808592830415" stop-color="rgb(107, 69, 179)"/><stop offset="0.6997043010588958" stop-color="rgb(186, 60, 176)"/></radialGradient><radialGradient id="WingGradpath34" gradientUnits="userSpaceOnUse" cx="36.04323959350586" cy="154.72621154785156" r="20.578372955322266"><stop offset="0.10626160955817987" stop-color="rgb(252, 148, 52)"/><stop offset="0.3281496334123828" stop-color="rgb(109, 64, 171)"/><stop offset="0.3996322896426674" stop-color="rgb(198, 61, 172)"/><stop offset="0.44044777563390525" stop-color="rgb(127, 245, 88)"/><stop offset="0.44212000040313126" stop-color="rgb(94, 247, 97)"/><stop offset="0.5271995315792202" stop-color="rgb(59, 134, 225)"/><stop offset="0.6583493070621724" stop-color="rgb(242, 163, 47)"/><stop offset="0.6776085534812097" stop-color="rgb(104, 74, 186)"/><stop offset="0.7302877514071773" stop-color="rgb(187, 227, 72)"/></radialGradient><radialGradient id="WingGradpath36" gradientUnits="userSpaceOnUse" cx="47.67759704589844" cy="159.38624572753906" r="43.66212463378906"><stop offset="0.028693742381403542" stop-color="rgb(239, 68, 148)"/><stop offset="0.2021286002546827" stop-color="rgb(235, 66, 152)"/><stop offset="0.27920434786398995" stop-color="rgb(109, 65, 172)"/><stop offset="0.35432621648794327" stop-color="rgb(27, 216, 173)"/><stop offset="0.4825483836650103" stop-color="rgb(32, 227, 155)"/><stop offset="0.5353238327285028" stop-color="rgb(43, 236, 137)"/><stop offset="0.6046454252149637" stop-color="rgb(25, 207, 185)"/><stop offset="0.807399026840289" stop-color="rgb(67, 244, 113)"/><stop offset="0.8516917476419964" stop-color="rgb(31, 225, 159)"/></radialGradient><radialGradient id="WingGradpath37" gradientUnits="userSpaceOnUse" cx="48.250186920166016" cy="162.22230529785156" r="44.34331130981445"><stop offset="0.18189241032174397" stop-color="rgb(135, 245, 87)"/><stop offset="0.43981931465979385" stop-color="rgb(27, 193, 200)"/><stop offset="0.4516067326337049" stop-color="rgb(91, 246, 98)"/><stop offset="0.45234258492717516" stop-color="rgb(74, 114, 221)"/><stop offset="0.4706168916043918" stop-color="rgb(107, 246, 92)"/><stop offset="0.4902384738090084" stop-color="rgb(43, 158, 222)"/><stop offset="0.7885095572707183" stop-color="rgb(251, 73, 135)"/><stop offset="0.8540574810508591" stop-color="rgb(214, 62, 166)"/></radialGradient><radialGradient id="WingGradpath39" gradientUnits="userSpaceOnUse" cx="65.90528106689453" cy="166.78546142578125" r="59.539093017578125"><stop offset="0.13783688575544417" stop-color="rgb(111, 246, 91)"/><stop offset="0.2085240377404579" stop-color="rgb(77, 245, 106)"/><stop offset="0.400878926834042" stop-color="rgb(103, 75, 188)"/><stop offset="0.4185865091619301" stop-color="rgb(33, 175, 214)"/><stop offset="0.4212001411524715" stop-color="rgb(147, 61, 179)"/><stop offset="0.49984382066295885" stop-color="rgb(75, 245, 107)"/><stop offset="0.5858338461628458" stop-color="rgb(46, 237, 133)"/><stop offset="0.8236481899208794" stop-color="rgb(217, 63, 164)"/></radialGradient><radialGradient id="WingGradpath40" gradientUnits="userSpaceOnUse" cx="48.639984130859375" cy="187.24691772460938" r="36.63478088378906"><stop offset="0.4795043550220631" stop-color="rgb(32, 178, 212)"/><stop offset="0.587006510767553" stop-color="rgb(112, 64, 171)"/><stop offset="0.907861692533865" stop-color="rgb(232, 176, 46)"/><stop offset="0.9884495754000552" stop-color="rgb(199, 214, 60)"/></radialGradient><radialGradient id="WingGradpath41" gradientUnits="userSpaceOnUse" cx="34.084373474121094" cy="190.0692138671875" r="26.703041076660156"><stop offset="0.3066670940872054" stop-color="rgb(255, 120, 71)"/><stop offset="0.6361228526712549" stop-color="rgb(170, 241, 89)"/><stop offset="0.8922364199108012" stop-color="rgb(255, 128, 64)"/><stop offset="0.8973384662653215" stop-color="rgb(178, 236, 85)"/></radialGradient><radialGradient id="WingGradpath43" gradientUnits="userSpaceOnUse" cx="27.354331970214844" cy="182.9049835205078" r="22.361083984375"><stop offset="0.0004990051495542547" stop-color="rgb(73, 115, 221)"/><stop offset="0.06483052626077934" stop-color="rgb(250, 72, 137)"/><stop offset="0.1699857731974126" stop-color="rgb(219, 63, 163)"/><stop offset="0.2775556920422543" stop-color="rgb(219, 63, 163)"/><stop offset="0.40961089697010655" stop-color="rgb(121, 246, 89)"/><stop offset="0.4767583875591699" stop-color="rgb(121, 246, 89)"/><stop offset="0.559726699610004" stop-color="rgb(25, 210, 182)"/><stop offset="0.8450920988057028" stop-color="rgb(81, 104, 216)"/></radialGradient><radialGradient id="WingGradpath44" gradientUnits="userSpaceOnUse" cx="29.850963592529297" cy="172.04347229003906" r="19.07980728149414"><stop offset="0.2650151751617501" stop-color="rgb(247, 157, 49)"/><stop offset="0.33259783000998744" stop-color="rgb(255, 100, 91)"/><stop offset="0.3768080107271905" stop-color="rgb(26, 215, 175)"/><stop offset="0.5162952052149474" stop-color="rgb(255, 143, 54)"/><stop offset="0.6670608886513768" stop-color="rgb(55, 138, 225)"/><stop offset="0.7800892916217664" stop-color="rgb(247, 71, 140)"/><stop offset="0.8149789196169919" stop-color="rgb(255, 91, 103)"/><stop offset="0.832783713710858" stop-color="rgb(86, 246, 101)"/></radialGradient><radialGradient id="WingGradpath45" gradientUnits="userSpaceOnUse" cx="31.452856063842773" cy="161.7024688720703" r="26.5368709564209"><stop offset="0.0300517948956871" stop-color="rgb(252, 74, 134)"/><stop offset="0.31240527470850454" stop-color="rgb(251, 73, 135)"/><stop offset="0.5251830945356999" stop-color="rgb(70, 119, 223)"/><stop offset="0.6034527242870839" stop-color="rgb(255, 79, 123)"/><stop offset="0.6697996517149661" stop-color="rgb(180, 235, 82)"/><stop offset="0.7674193558551975" stop-color="rgb(229, 179, 46)"/></radialGradient><radialGradient id="WingGradpath11" gradientUnits="userSpaceOnUse" cx="-12.814259052276611" cy="53.72437381744385" r="4.218358039855957"><stop offset="0.14970105802834466" stop-color="rgb(246, 71, 141)"/><stop offset="0.19535024833958436" stop-color="rgb(218, 63, 163)"/><stop offset="0.5510444208505542" stop-color="rgb(227, 183, 47)"/><stop offset="0.6978884238718841" stop-color="rgb(27, 192, 201)"/><stop offset="0.8469410832113723" stop-color="rgb(232, 176, 46)"/><stop offset="0.9170551648500072" stop-color="rgb(76, 245, 106)"/><stop offset="0.9172128602764268" stop-color="rgb(74, 245, 108)"/><stop offset="0.9302867333889366" stop-color="rgb(171, 240, 90)"/></radialGradient><radialGradient id="WingGradpath12" gradientUnits="userSpaceOnUse" cx="5.810191631317139" cy="51.81417369842529" r="2.9448914527893066"><stop offset="0.20209505477726208" stop-color="rgb(86, 98, 212)"/><stop offset="0.30038285489732464" stop-color="rgb(130, 245, 88)"/><stop offset="0.3769086471187426" stop-color="rgb(213, 198, 51)"/><stop offset="0.3856242066842912" stop-color="rgb(194, 61, 174)"/><stop offset="0.3908435421117167" stop-color="rgb(255, 90, 105)"/><stop offset="0.7852375023098777" stop-color="rgb(26, 215, 175)"/><stop offset="0.8649351782329009" stop-color="rgb(156, 243, 87)"/><stop offset="0.9804437079426878" stop-color="rgb(255, 130, 62)"/></radialGradient><radialGradient id="WingGradpath13" gradientUnits="userSpaceOnUse" cx="-0.15918326377868652" cy="58.897836208343506" r="2.546933174133301"><stop offset="0.02311029398811626" stop-color="rgb(56, 138, 225)"/><stop offset="0.12152970878855751" stop-color="rgb(213, 198, 51)"/><stop offset="0.15830464412081757" stop-color="rgb(248, 71, 139)"/><stop offset="0.2832310674383164" stop-color="rgb(202, 61, 171)"/><stop offset="0.6425586505504086" stop-color="rgb(26, 213, 178)"/><stop offset="0.6767053547749139" stop-color="rgb(159, 242, 88)"/><stop offset="0.9791068686126183" stop-color="rgb(80, 246, 104)"/><stop offset="0.9849867962356542" stop-color="rgb(205, 207, 55)"/></radialGradient><radialGradient id="WingGradpath14" gradientUnits="userSpaceOnUse" cx="-10.10814118385315" cy="67.1753625869751" r="2.78570818901062"><stop offset="0.019315806820960013" stop-color="rgb(208, 62, 169)"/><stop offset="0.03611000808282694" stop-color="rgb(218, 63, 164)"/><stop offset="0.04823606506132905" stop-color="rgb(92, 91, 206)"/><stop offset="0.7129667654220678" stop-color="rgb(193, 220, 65)"/></radialGradient><radialGradient id="WingGradpath15" gradientUnits="userSpaceOnUse" cx="4.4571332931518555" cy="70.67739915847778" r="3.502033233642578"><stop offset="0.13865806359648047" stop-color="rgb(150, 61, 179)"/><stop offset="0.21099832378003802" stop-color="rgb(139, 244, 87)"/><stop offset="0.2251707866229724" stop-color="rgb(246, 157, 49)"/><stop offset="0.5744627251566249" stop-color="rgb(62, 129, 225)"/><stop offset="0.8182725290847395" stop-color="rgb(214, 62, 166)"/><stop offset="0.8368193601715597" stop-color="rgb(26, 200, 193)"/></radialGradient><radialGradient id="WingGradpath16" gradientUnits="userSpaceOnUse" cx="-4.29794979095459" cy="76.64677333831787" r="2.7061166763305664"><stop offset="0.04395904065664835" stop-color="rgb(32, 227, 156)"/><stop offset="0.28207602283511013" stop-color="rgb(88, 96, 210)"/><stop offset="0.4200932798396717" stop-color="rgb(71, 245, 110)"/><stop offset="0.6640889539692011" stop-color="rgb(255, 96, 96)"/></radialGradient><radialGradient id="WingGradpath17" gradientUnits="userSpaceOnUse" cx="-0.9551000595092773" cy="86.83451461791992" r="1.8306083679199219"><stop offset="0.21774907029254786" stop-color="rgb(38, 232, 145)"/><stop offset="0.2468421328617314" stop-color="rgb(67, 244, 112)"/><stop offset="0.4804772176564014" stop-color="rgb(27, 191, 202)"/><stop offset="0.6225159203910975" stop-color="rgb(91, 92, 207)"/><stop offset="0.6553447166136457" stop-color="rgb(26, 197, 196)"/></radialGradient><radialGradient id="WingGradpath18" gradientUnits="userSpaceOnUse" cx="3.104074716567993" cy="100.12632179260254" r="1.9897916316986084"><stop offset="0.04185503225250098" stop-color="rgb(57, 136, 225)"/><stop offset="0.06690869920826537" stop-color="rgb(223, 64, 161)"/><stop offset="0.45925724443592764" stop-color="rgb(176, 239, 89)"/><stop offset="0.7384731186085811" stop-color="rgb(25, 206, 186)"/><stop offset="0.7612747002857571" stop-color="rgb(199, 213, 59)"/></radialGradient><radialGradient id="WingGradpath19" gradientUnits="userSpaceOnUse" cx="6.048966407775879" cy="110.79160451889038" r="2.069383144378662"><stop offset="0.0856449842554049" stop-color="rgb(255, 91, 103)"/><stop offset="0.16005119411225555" stop-color="rgb(28, 220, 168)"/><stop offset="0.39833994931643024" stop-color="rgb(94, 88, 203)"/><stop offset="0.8733771583455241" stop-color="rgb(78, 108, 218)"/><stop offset="0.9656087520384192" stop-color="rgb(243, 69, 145)"/></radialGradient><radialGradient id="WingGradpath20" gradientUnits="userSpaceOnUse" cx="8.595899820327759" cy="119.3079035282135" r="1.5918333530426025"><stop offset="0.06084876000519468" stop-color="rgb(29, 185, 207)"/><stop offset="0.07932952713756092" stop-color="rgb(179, 235, 83)"/><stop offset="0.18678481436196825" stop-color="rgb(104, 73, 185)"/><stop offset="0.2709717487922587" stop-color="rgb(36, 231, 148)"/><stop offset="0.6761316457715696" stop-color="rgb(106, 70, 181)"/><stop offset="0.7126912278291911" stop-color="rgb(225, 184, 47)"/><stop offset="0.9234761695242869" stop-color="rgb(255, 78, 126)"/><stop offset="0.9856253520638013" stop-color="rgb(209, 202, 52)"/></radialGradient><radialGradient id="WingGradpath21" gradientUnits="userSpaceOnUse" cx="11.14283299446106" cy="129.17727279663086" r="1.8306083679199219"><stop offset="0.11274490034359097" stop-color="rgb(255, 84, 114)"/><stop offset="0.28907058718435785" stop-color="rgb(151, 243, 87)"/><stop offset="0.3278474655994661" stop-color="rgb(209, 62, 168)"/><stop offset="0.3413140943131565" stop-color="rgb(240, 68, 147)"/><stop offset="0.4370450648190516" stop-color="rgb(169, 60, 179)"/><stop offset="0.4564140572763078" stop-color="rgb(153, 243, 87)"/><stop offset="0.7461009656582746" stop-color="rgb(59, 242, 119)"/><stop offset="0.7754639858826723" stop-color="rgb(29, 222, 165)"/><stop offset="0.9133278290251746" stop-color="rgb(133, 245, 87)"/></radialGradient><radialGradient id="WingGradpath23" gradientUnits="userSpaceOnUse" cx="51.416218757629395" cy="85.00388813018799" r="2.7061166763305664"><stop offset="0.077461832294351" stop-color="rgb(188, 225, 70)"/><stop offset="0.6869507718892546" stop-color="rgb(156, 61, 179)"/><stop offset="0.8020993118708665" stop-color="rgb(26, 198, 195)"/><stop offset="0.8410464067534396" stop-color="rgb(32, 179, 211)"/><stop offset="0.8950904454514133" stop-color="rgb(90, 93, 208)"/><stop offset="0.9663750128363352" stop-color="rgb(255, 83, 116)"/></radialGradient><radialGradient id="WingGradpath28" gradientUnits="userSpaceOnUse" cx="24.195865154266357" cy="201.12146496772766" r="3.4342856407165527"><stop offset="0.018640069040352425" stop-color="rgb(92, 91, 206)"/><stop offset="0.039059965986926626" stop-color="rgb(250, 72, 137)"/><stop offset="0.23851165565430532" stop-color="rgb(161, 242, 88)"/><stop offset="0.3390634517346194" stop-color="rgb(243, 161, 48)"/><stop offset="0.41210069800632954" stop-color="rgb(202, 211, 57)"/><stop offset="0.5422212837685243" stop-color="rgb(255, 92, 102)"/></radialGradient><radialGradient id="WingGradpath28-2" gradientUnits="userSpaceOnUse" cx="20.466290950775146" cy="181.43166756629944" r="2.1053736209869385"><stop offset="0.00892911639455829" stop-color="rgb(217, 63, 164)"/><stop offset="0.18037917410689563" stop-color="rgb(255, 78, 126)"/><stop offset="0.2817856955745389" stop-color="rgb(69, 119, 223)"/><stop offset="0.9651927830532938" stop-color="rgb(28, 188, 204)"/><stop offset="0.9995472084415304" stop-color="rgb(211, 200, 51)"/></radialGradient><radialGradient id="WingGradpath29" gradientUnits="userSpaceOnUse" cx="29.050958395004272" cy="215.29544472694397" r="1.9897916316986084"><stop offset="0.05883037763426302" stop-color="rgb(59, 134, 225)"/><stop offset="0.07628339109933446" stop-color="rgb(100, 79, 194)"/><stop offset="0.11080436098480728" stop-color="rgb(26, 198, 195)"/><stop offset="0.20697108377813067" stop-color="rgb(109, 65, 173)"/><stop offset="0.35069687473256705" stop-color="rgb(253, 147, 53)"/><stop offset="0.445160526431024" stop-color="rgb(255, 76, 129)"/><stop offset="0.6360310960796581" stop-color="rgb(149, 61, 179)"/><stop offset="0.7799435225997244" stop-color="rgb(51, 240, 127)"/></radialGradient><radialGradient id="WingGradpath30" gradientUnits="userSpaceOnUse" cx="40.91011571884155" cy="221.50359785556793" r="2.2285666465759277"><stop offset="0.05207189818143665" stop-color="rgb(223, 64, 160)"/><stop offset="0.2420348456211978" stop-color="rgb(238, 67, 149)"/><stop offset="0.5526789557406283" stop-color="rgb(73, 115, 221)"/><stop offset="0.6738604256626781" stop-color="rgb(25, 204, 189)"/><stop offset="0.726185871362621" stop-color="rgb(114, 63, 172)"/><stop offset="0.7930844180211789" stop-color="rgb(30, 224, 161)"/><stop offset="0.8759838159128507" stop-color="rgb(25, 201, 193)"/></radialGradient><radialGradient id="WingGradpath32" gradientUnits="userSpaceOnUse" cx="63.91211050748825" cy="231.93010997772217" r="1.200434684753418"><stop offset="0.5546826539803672" stop-color="rgb(237, 169, 46)"/><stop offset="0.886161519181728" stop-color="rgb(31, 180, 211)"/><stop offset="0.9561931547347285" stop-color="rgb(155, 61, 179)"/><stop offset="0.9576694275690867" stop-color="rgb(25, 206, 187)"/></radialGradient><radialGradient id="WingGradpath22" gradientUnits="userSpaceOnUse" cx="41.46725392341614" cy="90.65491032600403" r="2.467341661453247"><stop offset="0.0037628769133799533" stop-color="rgb(57, 137, 225)"/><stop offset="0.3124554940827974" stop-color="rgb(129, 62, 176)"/><stop offset="0.3237424255586937" stop-color="rgb(215, 196, 50)"/><stop offset="0.5392127180462851" stop-color="rgb(146, 61, 179)"/><stop offset="0.6224945561560132" stop-color="rgb(255, 89, 107)"/><stop offset="0.7740030888056836" stop-color="rgb(34, 173, 215)"/><stop offset="0.8507202907612635" stop-color="rgb(65, 126, 224)"/><stop offset="0.9035453726085823" stop-color="rgb(223, 186, 47)"/></radialGradient><radialGradient id="WingGradpath25" gradientUnits="userSpaceOnUse" cx="25.548924446105957" cy="164.67516040802002" r="1.455510139465332"><stop offset="0.309548990768592" stop-color="rgb(235, 66, 152)"/><stop offset="0.3800786868086423" stop-color="rgb(255, 86, 111)"/><stop offset="0.452074553952054" stop-color="rgb(26, 212, 179)"/><stop offset="0.5038093805535994" stop-color="rgb(161, 61, 179)"/><stop offset="0.5611498502184871" stop-color="rgb(31, 179, 211)"/><stop offset="0.6601087061850028" stop-color="rgb(28, 190, 203)"/><stop offset="0.6629319680734437" stop-color="rgb(30, 224, 161)"/><stop offset="0.8885361217848945" stop-color="rgb(242, 164, 47)"/><stop offset="0.9899097476861924" stop-color="rgb(83, 102, 215)"/></radialGradient><radialGradient id="WingGradpath31" gradientUnits="userSpaceOnUse" cx="48.55091667175293" cy="229.7015438079834" r="2.0110530853271484"><stop offset="0.229040247311726" stop-color="rgb(184, 229, 75)"/><stop offset="0.589110093776471" stop-color="rgb(189, 224, 69)"/><stop offset="0.7215931512610663" stop-color="rgb(200, 212, 58)"/><stop offset="0.9128236509193923" stop-color="rgb(161, 242, 88)"/></radialGradient></defs><g class="cpHead"><circle cx="279" cy="207" r="10.5" fill="black"/><circle cx="321" cy="207" r="10.5" fill="black"/><ellipse cx="300" cy="228" rx="21" ry="27" fill="url(#cpHeadGrad)"/></g><g id="wingL"><svg xmlns="http://www.w3.org/2000/svg" xmlns:svg="http://www.w3.org/2000/svg" width="300" height="600" viewBox="0 0 128.01128 228.84407" version="1.1" id="svg1" xml:space="preserve"><defs id="defs1"/><g id="layer1" transform="translate(25.016847,-40.888684)"><path style="" d="m 11.496932,182.59186 c 1.261208,2.08022 1.778727,6.56591 1.037711,10.42225 -0.250057,1.30133 -0.64343,2.531 -1.199902,3.57239 -0.627665,1.17461 -1.037299,2.9139 -0.423839,4.10365 1.406205,2.7272 2.957002,4.88174 4.423385,6.19536 1.048248,0.93905 2.228064,2.48099 2.089537,3.89203 -0.36392,3.70692 -1.503403,7.28627 0.08634,11.44239 0.781445,1.5447 3.386037,2.3167 7.739374,2.9524 3.18845,0.46559 7.60971,2.64319 9.148817,5.46759 4.543717,8.33811 0.596882,14.49916 -2.950403,20.76266 -1.586914,2.80204 -4.74804,7.23229 -4.984436,10.34788 -0.185564,2.44566 0.446664,4.90703 1.71193,5.67752 5.519183,3.36091 12.371249,3.81674 13.98603,-14.80043 0.491866,-5.67083 2.240107,-14.5572 17.107221,-12.62858 2.542104,0.32977 6.324167,-0.26221 8.550601,-1.53449 0.256915,-0.14682 0.508697,-0.28996 0.755615,-0.43009 12.302512,-6.98196 12.531158,-6.4958 33.939155,-80.60208 h 0.15918 C 75.004144,151.78538 45.904817,141.91929 24.555585,154.916 c -2.696175,1.64134 -5.959851,5.52197 -7.355789,8.35588 -3.579526,7.26682 -5.610881,13.85964 -6.676375,16.88051 -0.300683,0.8525 0.330227,1.37845 0.973511,2.43947 z" id="path24" fill="url(#WingGradpath24)"/><path style="" d="M 102.20634,157.23051 C 78.52142,80.367615 16.615198,34.467668 -16.484899,42.24815 c -2.960933,0.695994 -6.828128,3.797377 -7.567607,6.732775 -2.391048,9.491388 5.022246,21.223768 10.035595,32.40759 6.3748502,9.894762 10.6811034,18.902665 10.576375,26.051765 -0.037312,2.54702 0.033229,6.45858 0.9860098,8.8332 3.27000025,8.14984 4.5746444,12.4994 7.4282687,19.37404 6.3675855,10.7077 18.5754405,12.85323 27.0581125,12.87099 4.54913,0.01 11.886208,-0.31156 16.427576,0.0372 15.819534,1.21482 31.020232,1.93458 53.749579,8.67725" id="path1" fill="url(#WingGradpath1)"/><ellipse style="" id="path11" cx="-12.814259" cy="53.724373" rx="4.059175" ry="4.218358" fill="url(#WingGradpath11)"/><ellipse style="" id="path12" cx="5.8101916" cy="51.814175" rx="2.9448915" ry="2.6265249" fill="url(#WingGradpath12)"/><ellipse style="" id="path13" cx="-0.15918332" cy="58.897835" rx="2.5469332" ry="2.2285666" fill="url(#WingGradpath13)"/><ellipse style="" id="path14" cx="-10.108141" cy="67.175362" rx="2.7857082" ry="2.7061167" fill="url(#WingGradpath14)"/><ellipse style="" id="path15" cx="4.4571333" cy="70.677399" rx="3.5020332" ry="3.0244832" fill="url(#WingGradpath15)"/><ellipse style="" id="path16" cx="-4.2979498" cy="76.646774" rx="2.7061167" ry="2.6265249" fill="url(#WingGradpath16)"/><ellipse style="" id="path17" cx="-0.9551" cy="86.834511" rx="1.5918334" ry="1.8306084" fill="url(#WingGradpath17)"/><ellipse style="" id="path18" cx="3.1040747" cy="100.12632" rx="1.9897916" ry="1.7510166" fill="url(#WingGradpath18)"/><ellipse style="" id="path19" cx="6.0489664" cy="110.7916" rx="1.7510166" ry="2.0693831" fill="url(#WingGradpath19)"/><ellipse style="" id="path20" cx="8.5958996" cy="119.30791" rx="1.5918334" ry="1.5122416" fill="url(#WingGradpath20)"/><ellipse style="" id="path21" cx="11.142833" cy="129.17728" rx="1.5918334" ry="1.8306084" fill="url(#WingGradpath21)"/><circle style="" id="path22" cx="41.467255" cy="90.654907" r="2.4673417" fill="url(#WingGradpath22)"/><ellipse style="" id="path23" cx="51.416218" cy="85.003891" rx="2.7061167" ry="2.5469332" fill="url(#WingGradpath23)"/><circle style="" id="path25" cx="25.548923" cy="164.67516" r="1.4555101" fill="url(#WingGradpath25)"/><ellipse style="" id="path28" cx="24.195866" cy="201.12146" rx="3.4342856" ry="2.7112782" fill="url(#WingGradpath28)"/><ellipse style="" id="path28-2" cx="20.466291" cy="181.43167" rx="2.0986915" ry="2.1053736" fill="url(#WingGradpath28-2)"/><ellipse style="" id="path29" cx="29.050959" cy="215.29544" rx="1.9897916" ry="1.5122416" fill="url(#WingGradpath29)"/><ellipse style="" id="path30" cx="40.910114" cy="221.5036" rx="2.2285666" ry="1.193875" fill="url(#WingGradpath30)"/><circle style="" id="path31" cx="48.550915" cy="229.70154" r="2.0110531" fill="url(#WingGradpath31)"/><ellipse style="" id="path32" cx="63.912109" cy="231.93011" rx="0.96165961" ry="1.2004347" fill="url(#WingGradpath32)"/><path style="" d="m 88.68449,155.41496 c -8.09884,0.26252 -17.096272,2.08261 -26.268846,4.20627 -3.133261,0.79464 -3.329709,1.72276 -3.33788,2.65945 1.000541,3.43384 3.194143,2.57265 5.237488,2.25239 0,0 25.027744,-7.33768 25.156218,-7.38133 2.959743,-1.00569 1.905588,-2.57602 -0.78698,-1.73678 z" id="path35" fill="url(#WingGradpath35)"/><path style="" d="m 96.065819,171.72444 c -3.97397,10.1886 -7.590597,13.42626 -12.591678,35.16986 -2.244019,11.30799 -2.276204,12.05658 1.845331,0.2171 z" id="path38" fill="url(#WingGradpath38)"/><path style="" d="m 96.98071,156.29255 c -0.883587,-1.34174 -4.008167,-2.95526 -7.455842,-4.48504 -5.637794,-2.50157 -14.676133,-6.76153 -20.195554,-9.52063 -12.805058,-6.40112 -19.339733,-8.57442 -29.481416,-9.46075 -10.690641,-0.93431 -22.279798,1.12373 -17.362831,8.54396 2.168127,3.27193 8.064369,6.01504 11.964485,6.5418 14.367743,1.94052 33.297322,-0.86624 62.529032,8.37007" id="path2" transform="matrix(0.95984703,0,0,0.95984703,-1.0045006,1.6524636)" fill="url(#WingGradpath2)"/><path style="" d="m 96.98071,156.29255 c -3.820654,-4.73075 -8.100839,-13.73123 -32.005769,-39.4454 -1.507241,-1.62131 -3.950548,-4.25663 -5.596532,-5.73654 -0.484932,-0.43601 -0.952591,-0.83458 -1.40308,-1.19842 -3.996977,-3.22826 -12.979513,1.48805 -10.500754,5.68893 0.506217,0.85792 1.183251,1.79123 2.048891,2.82054 3.499145,4.16078 10.921029,8.95097 15.455764,11.95273 11.43909,7.57208 21.466022,17.33451 31.999354,25.90757" id="path3" transform="matrix(0.95984703,0,0,0.95984703,-0.36776728,-6.7842529)" fill="url(#WingGradpath3)"/><path style="" d="m 96.98071,156.29255 c -2.400233,-4.24031 -9.370498,-18.506 -31.19137,-49.37884 -0.400346,-0.56642 -1.301712,-1.54359 -1.819936,-1.21535 -0.627379,0.39737 -1.291149,1.428 -1.766902,2.38741 -0.316002,0.63726 -0.759761,2.42505 -1.700947,3.82776 -0.07933,0.11822 3.042416,3.26767 6.786276,7.21504 12.768018,13.46206 20.795541,25.23893 29.690753,37.15339" id="path3-3" transform="matrix(0.95984703,0,0,0.95984703,-1.2950555,-11.776305)" fill="url(#WingGradpath3-3)"/><path style="" d="m 91.689596,147.24458 c -5.599742,-6.59452 -15.929372,-15.36222 -34.245244,-27.79929 -3.052725,-2.0729 -8.534745,-3.92693 -12.217693,-4.15514 -16.892168,-1.04667 -20.91412,-0.76144 -26.790166,-1.2e-4 -1.830801,0.23721 -2.704525,1.80312 -1.952605,3.48925 l 3.891578,8.72657 c 24.016644,-7.45144 43.576621,9.573 71.31413,19.73873 z" id="path5" fill="url(#WingGradpath5)"/><path style="" d="M 49.665199,113.17935 C 41.00487,101.18352 26.791516,101.9817 19.160225,101.76748 c -2.063392,-0.0579 -5.853385,-0.0804 -6.663375,1.75211 -0.460216,1.04119 -0.24714,2.3272 0.397,3.76997 l 2.546933,6.04897 c 8.46779,-2.40534 21.691777,-1.00572 34.224416,-0.15918 z" id="path6" fill="url(#WingGradpath6)"/><path style="" d="M 39.159689,100.03592 38.227023,99.136564 C 34.873555,95.902863 28.537974,92.195326 24.065745,90.890842 13.929532,87.934258 15.156421,88.504153 12.58889,87.89647 11.167347,87.560019 8.9465538,87.773268 7.8761797,88.765202 c -0.9857479,0.913509 -1.461954,2.05348 -0.3945632,3.879495 l 4.1387665,6.367333 c 5.402623,-0.954693 16.079608,0.727798 26.829894,2.44693 1.446407,0.23131 1.76406,-0.40606 0.709412,-1.42304 z" id="path7" fill="url(#WingGradpath7)"/><path style="" d="m 11.468078,75.891293 c -1.7108127,0.863951 -2.5598677,1.723982 -3.1905449,4.018738 -0.2097354,1.178289 -0.1158692,2.140824 0.164861,2.89055 0.7422754,1.98234 5.1464299,2.454794 7.3782619,3.157733 l 16.175192,5.094549 0.597308,-6.092537 A 2.7811514,2.7811514 59.398968 0 0 30.920824,82.132683 L 16.25041,75.845362 c -1.32629,-0.56841 -3.494462,-0.604435 -4.782332,0.04593 z" id="path8" fill="url(#WingGradpath8)"/><path style="" d="m 34.383599,81.024314 3.502032,-4.138766 C 32.849085,72.485707 27.665214,68.049034 18.426023,62.598532 c -0.941722,-0.555553 -2.249391,-0.289817 -2.928107,0.567362 -0.926507,1.170125 -1.74031,2.446298 -1.39602,4.464748 0.336321,1.971728 2.779673,4.127891 4.556972,5.068814 z" id="path9" fill="url(#WingGradpath9)"/><path style="" d="m 41.64113,73.994457 1.650547,-0.103159 A 0.18746839,0.18746839 107.56943 0 0 43.397235,73.55792 L 24.562975,58.460617 c -0.466492,-0.373935 -1.315326,-0.540835 -1.842094,-0.259483 -0.615129,0.328547 -0.899024,0.668135 -1.086605,1.010934 -0.282369,0.516021 -0.06997,1.23053 0.414716,1.565197 l 18.839262,13.008063 a 1.1939628,1.1939628 15.523903 0 0 0.752876,0.209129 z" id="path10" fill="url(#WingGradpath10)"/><path style="" d="m 82.397394,153.21214 c 0.967003,-0.011 -16.099152,3.25328 -20.966678,4.04801 -0.692853,0.11312 -1.825767,0.1098 -2.521757,0.013 -3.219807,-0.44785 -11.159325,-1.72512 -12.427426,-2.70613 -6.478693,-5.01196 34.715998,-3.91922 35.915861,-1.35487 z" id="path33" fill="url(#WingGradpath33)"/><path style="" d="m 49.506015,161.09353 c 8.124263,0.62284 10.449713,0.003 0.795917,-3.18367 l -0.636733,-0.31836 -10.346918,-2.8653 c -4.277756,1.20823 -3.740099,3.02462 -1.910199,4.61631 z" id="path34" fill="url(#WingGradpath34)"/><path style="" d="m 69.626769,165.44401 c -14.709917,1.92418 -19.570576,10.58131 -21.851003,14.32204 -0.206431,0.33862 -0.07746,0.49672 0.294657,0.35719 0.306143,-0.1148 0.869613,-0.27486 1.254018,-0.3756 7.31384,-1.91682 23.390502,-10.77188 35.375469,-16.21961 9.798424,-4.95759 10.480454,-6.3325 -9.857187,0.75942 -1.403118,0.48928 -3.742718,0.96385 -5.215954,1.15656 z" id="path36" fill="url(#WingGradpath36)"/><path style="" d="m 73.685468,172.35492 c -2.081683,1.51508 -16.771567,8.10744 -23.755887,10.13175 -2.099344,0.34186 -2.159626,1.19349 -0.575667,2.45618 2.054146,2.05415 4.484226,2.58993 6.075746,2.7427 0.923263,0.0886 2.42079,0.28434 3.344035,0.24033 3.196976,-0.1524 8.800313,-1.88853 11.565321,-2.72706 0.888032,-0.26931 2.382644,-0.57333 3.174021,-1.04005 4.494397,-2.65057 15.12248,-13.44975 17.718339,-17.32723 0.447637,-0.66865 0.815908,-2.00309 1.119949,-2.8255 0.824152,-2.22927 -0.386204,-2.54371 -4.696318,0.0593 z" id="path37" fill="url(#WingGradpath37)"/><path style="" d="m 93.295862,172.64895 c 1.406238,-2.41103 2.110824,-4.19222 1.46737,-5.86349 -9.74432,9.81302 -12.881484,14.22019 -19.321713,21.32986 -7.716745,17.57763 -8.164674,25.76637 -9.518321,35.125 -0.133758,0.92475 0.495701,1.80084 1.416906,1.95841 l 6.581729,1.12583 c 1.54492,-0.68841 3.17716,-0.50362 4.450506,-3.90777 6.764215,-36.78349 8.680954,-35.13344 11.829753,-43.25184 0.724379,-1.86763 2.084356,-4.78533 3.09377,-6.516 z" id="path39" fill="url(#WingGradpath39)"/><path style="" d="m 72.836343,187.24693 c -0.434194,0.2171 -8.03262,3.14792 -8.03262,3.14792 -9.056354,9.41413 -13.610278,17.23362 -16.130946,26.96563 -0.148446,0.57314 0.222033,0.98771 0.809988,1.04684 3.553805,0.35739 9.84332,3.59679 12.392729,5.29384 0.574909,0.3827 0.496934,0.17872 0.610411,-0.82139 0.787777,-6.94294 7.859262,-31.57924 10.350438,-35.63284 z" id="path40" fill="url(#WingGradpath40)"/><path style="" d="m 60.787411,190.06921 -7.272779,0.65129 c -9.714271,5.24653 -15.487084,10.49307 -19.430261,15.7396 5.26412,1.13861 9.772563,3.2596 12.157482,8.14117 3.019575,-7.61928 8.058473,-15.7572 14.545558,-24.53206 z" id="path41" fill="url(#WingGradpath41)"/><path style="" d="m 42.985383,182.90498 c -5.521015,2.4674 -14.984651,4.10478 -15.631049,7.59842 6.737406,5.21641 6.578651,8.22525 7.164231,10.8549 l 15.196852,-12.48313 c -1.902605,-1.85528 -1.702308,-2.29838 -6.730034,-5.97019 z" id="path43" fill="url(#WingGradpath43)"/><path style="" d="m 48.685038,173.21573 -4.288519,6.43278 -14.545558,5.97019 c 2.759207,-1.92104 2.061049,-6.72287 1.08549,-12.37458 0,0 12.507678,-0.77731 17.054498,-1.19163 0.896928,-0.0817 1.203202,0.39957 0.694089,1.16324 z" id="path44" fill="url(#WingGradpath44)"/><path style="" d="m 57.972159,164.86562 c -0.140987,-0.4873 -1.191612,-0.76469 -2.612196,-0.95671 h 0.217099 c -1.58259,0.50463 -15.385443,-1.32749 -19.41789,-2.17503 -0.6183,-0.12996 -1.307728,0.14919 -1.56661,0.72993 l -3.078815,6.90652 a 0.70286706,0.70286706 55.431312 0 0 0.680761,0.98798 l 20.451733,-1.1305 3.644219,-2.62723 c 0.5652,-0.40747 1.865102,-1.10105 1.681699,-1.73496 z" id="path45" fill="url(#WingGradpath45)"/></g></svg></g><g id="wingR" transform="matrix(-1 0 0 1 600 0)"><svg xmlns="http://www.w3.org/2000/svg" xmlns:svg="http://www.w3.org/2000/svg" width="300" height="600" viewBox="0 0 128.01128 228.84407" version="1.1" id="svg1" xml:space="preserve"><defs id="defs1"/><g id="layer1" transform="translate(25.016847,-40.888684)"><path style="" d="m 11.496932,182.59186 c 1.261208,2.08022 1.778727,6.56591 1.037711,10.42225 -0.250057,1.30133 -0.64343,2.531 -1.199902,3.57239 -0.627665,1.17461 -1.037299,2.9139 -0.423839,4.10365 1.406205,2.7272 2.957002,4.88174 4.423385,6.19536 1.048248,0.93905 2.228064,2.48099 2.089537,3.89203 -0.36392,3.70692 -1.503403,7.28627 0.08634,11.44239 0.781445,1.5447 3.386037,2.3167 7.739374,2.9524 3.18845,0.46559 7.60971,2.64319 9.148817,5.46759 4.543717,8.33811 0.596882,14.49916 -2.950403,20.76266 -1.586914,2.80204 -4.74804,7.23229 -4.984436,10.34788 -0.185564,2.44566 0.446664,4.90703 1.71193,5.67752 5.519183,3.36091 12.371249,3.81674 13.98603,-14.80043 0.491866,-5.67083 2.240107,-14.5572 17.107221,-12.62858 2.542104,0.32977 6.324167,-0.26221 8.550601,-1.53449 0.256915,-0.14682 0.508697,-0.28996 0.755615,-0.43009 12.302512,-6.98196 12.531158,-6.4958 33.939155,-80.60208 h 0.15918 C 75.004144,151.78538 45.904817,141.91929 24.555585,154.916 c -2.696175,1.64134 -5.959851,5.52197 -7.355789,8.35588 -3.579526,7.26682 -5.610881,13.85964 -6.676375,16.88051 -0.300683,0.8525 0.330227,1.37845 0.973511,2.43947 z" id="path24" fill="url(#WingGradpath24)"/><path style="" d="M 102.20634,157.23051 C 78.52142,80.367615 16.615198,34.467668 -16.484899,42.24815 c -2.960933,0.695994 -6.828128,3.797377 -7.567607,6.732775 -2.391048,9.491388 5.022246,21.223768 10.035595,32.40759 6.3748502,9.894762 10.6811034,18.902665 10.576375,26.051765 -0.037312,2.54702 0.033229,6.45858 0.9860098,8.8332 3.27000025,8.14984 4.5746444,12.4994 7.4282687,19.37404 6.3675855,10.7077 18.5754405,12.85323 27.0581125,12.87099 4.54913,0.01 11.886208,-0.31156 16.427576,0.0372 15.819534,1.21482 31.020232,1.93458 53.749579,8.67725" id="path1" fill="url(#WingGradpath1)"/><ellipse style="" id="path11" cx="-12.814259" cy="53.724373" rx="4.059175" ry="4.218358" fill="url(#WingGradpath11)"/><ellipse style="" id="path12" cx="5.8101916" cy="51.814175" rx="2.9448915" ry="2.6265249" fill="url(#WingGradpath12)"/><ellipse style="" id="path13" cx="-0.15918332" cy="58.897835" rx="2.5469332" ry="2.2285666" fill="url(#WingGradpath13)"/><ellipse style="" id="path14" cx="-10.108141" cy="67.175362" rx="2.7857082" ry="2.7061167" fill="url(#WingGradpath14)"/><ellipse style="" id="path15" cx="4.4571333" cy="70.677399" rx="3.5020332" ry="3.0244832" fill="url(#WingGradpath15)"/><ellipse style="" id="path16" cx="-4.2979498" cy="76.646774" rx="2.7061167" ry="2.6265249" fill="url(#WingGradpath16)"/><ellipse style="" id="path17" cx="-0.9551" cy="86.834511" rx="1.5918334" ry="1.8306084" fill="url(#WingGradpath17)"/><ellipse style="" id="path18" cx="3.1040747" cy="100.12632" rx="1.9897916" ry="1.7510166" fill="url(#WingGradpath18)"/><ellipse style="" id="path19" cx="6.0489664" cy="110.7916" rx="1.7510166" ry="2.0693831" fill="url(#WingGradpath19)"/><ellipse style="" id="path20" cx="8.5958996" cy="119.30791" rx="1.5918334" ry="1.5122416" fill="url(#WingGradpath20)"/><ellipse style="" id="path21" cx="11.142833" cy="129.17728" rx="1.5918334" ry="1.8306084" fill="url(#WingGradpath21)"/><circle style="" id="path22" cx="41.467255" cy="90.654907" r="2.4673417" fill="url(#WingGradpath22)"/><ellipse style="" id="path23" cx="51.416218" cy="85.003891" rx="2.7061167" ry="2.5469332" fill="url(#WingGradpath23)"/><circle style="" id="path25" cx="25.548923" cy="164.67516" r="1.4555101" fill="url(#WingGradpath25)"/><ellipse style="" id="path28" cx="24.195866" cy="201.12146" rx="3.4342856" ry="2.7112782" fill="url(#WingGradpath28)"/><ellipse style="" id="path28-2" cx="20.466291" cy="181.43167" rx="2.0986915" ry="2.1053736" fill="url(#WingGradpath28-2)"/><ellipse style="" id="path29" cx="29.050959" cy="215.29544" rx="1.9897916" ry="1.5122416" fill="url(#WingGradpath29)"/><ellipse style="" id="path30" cx="40.910114" cy="221.5036" rx="2.2285666" ry="1.193875" fill="url(#WingGradpath30)"/><circle style="" id="path31" cx="48.550915" cy="229.70154" r="2.0110531" fill="url(#WingGradpath31)"/><ellipse style="" id="path32" cx="63.912109" cy="231.93011" rx="0.96165961" ry="1.2004347" fill="url(#WingGradpath32)"/><path style="" d="m 88.68449,155.41496 c -8.09884,0.26252 -17.096272,2.08261 -26.268846,4.20627 -3.133261,0.79464 -3.329709,1.72276 -3.33788,2.65945 1.000541,3.43384 3.194143,2.57265 5.237488,2.25239 0,0 25.027744,-7.33768 25.156218,-7.38133 2.959743,-1.00569 1.905588,-2.57602 -0.78698,-1.73678 z" id="path35" fill="url(#WingGradpath35)"/><path style="" d="m 96.065819,171.72444 c -3.97397,10.1886 -7.590597,13.42626 -12.591678,35.16986 -2.244019,11.30799 -2.276204,12.05658 1.845331,0.2171 z" id="path38" fill="url(#WingGradpath38)"/><path style="" d="m 96.98071,156.29255 c -0.883587,-1.34174 -4.008167,-2.95526 -7.455842,-4.48504 -5.637794,-2.50157 -14.676133,-6.76153 -20.195554,-9.52063 -12.805058,-6.40112 -19.339733,-8.57442 -29.481416,-9.46075 -10.690641,-0.93431 -22.279798,1.12373 -17.362831,8.54396 2.168127,3.27193 8.064369,6.01504 11.964485,6.5418 14.367743,1.94052 33.297322,-0.86624 62.529032,8.37007" id="path2" transform="matrix(0.95984703,0,0,0.95984703,-1.0045006,1.6524636)" fill="url(#WingGradpath2)"/><path style="" d="m 96.98071,156.29255 c -3.820654,-4.73075 -8.100839,-13.73123 -32.005769,-39.4454 -1.507241,-1.62131 -3.950548,-4.25663 -5.596532,-5.73654 -0.484932,-0.43601 -0.952591,-0.83458 -1.40308,-1.19842 -3.996977,-3.22826 -12.979513,1.48805 -10.500754,5.68893 0.506217,0.85792 1.183251,1.79123 2.048891,2.82054 3.499145,4.16078 10.921029,8.95097 15.455764,11.95273 11.43909,7.57208 21.466022,17.33451 31.999354,25.90757" id="path3" transform="matrix(0.95984703,0,0,0.95984703,-0.36776728,-6.7842529)" fill="url(#WingGradpath3)"/><path style="" d="m 96.98071,156.29255 c -2.400233,-4.24031 -9.370498,-18.506 -31.19137,-49.37884 -0.400346,-0.56642 -1.301712,-1.54359 -1.819936,-1.21535 -0.627379,0.39737 -1.291149,1.428 -1.766902,2.38741 -0.316002,0.63726 -0.759761,2.42505 -1.700947,3.82776 -0.07933,0.11822 3.042416,3.26767 6.786276,7.21504 12.768018,13.46206 20.795541,25.23893 29.690753,37.15339" id="path3-3" transform="matrix(0.95984703,0,0,0.95984703,-1.2950555,-11.776305)" fill="url(#WingGradpath3-3)"/><path style="" d="m 91.689596,147.24458 c -5.599742,-6.59452 -15.929372,-15.36222 -34.245244,-27.79929 -3.052725,-2.0729 -8.534745,-3.92693 -12.217693,-4.15514 -16.892168,-1.04667 -20.91412,-0.76144 -26.790166,-1.2e-4 -1.830801,0.23721 -2.704525,1.80312 -1.952605,3.48925 l 3.891578,8.72657 c 24.016644,-7.45144 43.576621,9.573 71.31413,19.73873 z" id="path5" fill="url(#WingGradpath5)"/><path style="" d="M 49.665199,113.17935 C 41.00487,101.18352 26.791516,101.9817 19.160225,101.76748 c -2.063392,-0.0579 -5.853385,-0.0804 -6.663375,1.75211 -0.460216,1.04119 -0.24714,2.3272 0.397,3.76997 l 2.546933,6.04897 c 8.46779,-2.40534 21.691777,-1.00572 34.224416,-0.15918 z" id="path6" fill="url(#WingGradpath6)"/><path style="" d="M 39.159689,100.03592 38.227023,99.136564 C 34.873555,95.902863 28.537974,92.195326 24.065745,90.890842 13.929532,87.934258 15.156421,88.504153 12.58889,87.89647 11.167347,87.560019 8.9465538,87.773268 7.8761797,88.765202 c -0.9857479,0.913509 -1.461954,2.05348 -0.3945632,3.879495 l 4.1387665,6.367333 c 5.402623,-0.954693 16.079608,0.727798 26.829894,2.44693 1.446407,0.23131 1.76406,-0.40606 0.709412,-1.42304 z" id="path7" fill="url(#WingGradpath7)"/><path style="" d="m 11.468078,75.891293 c -1.7108127,0.863951 -2.5598677,1.723982 -3.1905449,4.018738 -0.2097354,1.178289 -0.1158692,2.140824 0.164861,2.89055 0.7422754,1.98234 5.1464299,2.454794 7.3782619,3.157733 l 16.175192,5.094549 0.597308,-6.092537 A 2.7811514,2.7811514 59.398968 0 0 30.920824,82.132683 L 16.25041,75.845362 c -1.32629,-0.56841 -3.494462,-0.604435 -4.782332,0.04593 z" id="path8" fill="url(#WingGradpath8)"/><path style="" d="m 34.383599,81.024314 3.502032,-4.138766 C 32.849085,72.485707 27.665214,68.049034 18.426023,62.598532 c -0.941722,-0.555553 -2.249391,-0.289817 -2.928107,0.567362 -0.926507,1.170125 -1.74031,2.446298 -1.39602,4.464748 0.336321,1.971728 2.779673,4.127891 4.556972,5.068814 z" id="path9" fill="url(#WingGradpath9)"/><path style="" d="m 41.64113,73.994457 1.650547,-0.103159 A 0.18746839,0.18746839 107.56943 0 0 43.397235,73.55792 L 24.562975,58.460617 c -0.466492,-0.373935 -1.315326,-0.540835 -1.842094,-0.259483 -0.615129,0.328547 -0.899024,0.668135 -1.086605,1.010934 -0.282369,0.516021 -0.06997,1.23053 0.414716,1.565197 l 18.839262,13.008063 a 1.1939628,1.1939628 15.523903 0 0 0.752876,0.209129 z" id="path10" fill="url(#WingGradpath10)"/><path style="" d="m 82.397394,153.21214 c 0.967003,-0.011 -16.099152,3.25328 -20.966678,4.04801 -0.692853,0.11312 -1.825767,0.1098 -2.521757,0.013 -3.219807,-0.44785 -11.159325,-1.72512 -12.427426,-2.70613 -6.478693,-5.01196 34.715998,-3.91922 35.915861,-1.35487 z" id="path33" fill="url(#WingGradpath33)"/><path style="" d="m 49.506015,161.09353 c 8.124263,0.62284 10.449713,0.003 0.795917,-3.18367 l -0.636733,-0.31836 -10.346918,-2.8653 c -4.277756,1.20823 -3.740099,3.02462 -1.910199,4.61631 z" id="path34" fill="url(#WingGradpath34)"/><path style="" d="m 69.626769,165.44401 c -14.709917,1.92418 -19.570576,10.58131 -21.851003,14.32204 -0.206431,0.33862 -0.07746,0.49672 0.294657,0.35719 0.306143,-0.1148 0.869613,-0.27486 1.254018,-0.3756 7.31384,-1.91682 23.390502,-10.77188 35.375469,-16.21961 9.798424,-4.95759 10.480454,-6.3325 -9.857187,0.75942 -1.403118,0.48928 -3.742718,0.96385 -5.215954,1.15656 z" id="path36" fill="url(#WingGradpath36)"/><path style="" d="m 73.685468,172.35492 c -2.081683,1.51508 -16.771567,8.10744 -23.755887,10.13175 -2.099344,0.34186 -2.159626,1.19349 -0.575667,2.45618 2.054146,2.05415 4.484226,2.58993 6.075746,2.7427 0.923263,0.0886 2.42079,0.28434 3.344035,0.24033 3.196976,-0.1524 8.800313,-1.88853 11.565321,-2.72706 0.888032,-0.26931 2.382644,-0.57333 3.174021,-1.04005 4.494397,-2.65057 15.12248,-13.44975 17.718339,-17.32723 0.447637,-0.66865 0.815908,-2.00309 1.119949,-2.8255 0.824152,-2.22927 -0.386204,-2.54371 -4.696318,0.0593 z" id="path37" fill="url(#WingGradpath37)"/><path style="" d="m 93.295862,172.64895 c 1.406238,-2.41103 2.110824,-4.19222 1.46737,-5.86349 -9.74432,9.81302 -12.881484,14.22019 -19.321713,21.32986 -7.716745,17.57763 -8.164674,25.76637 -9.518321,35.125 -0.133758,0.92475 0.495701,1.80084 1.416906,1.95841 l 6.581729,1.12583 c 1.54492,-0.68841 3.17716,-0.50362 4.450506,-3.90777 6.764215,-36.78349 8.680954,-35.13344 11.829753,-43.25184 0.724379,-1.86763 2.084356,-4.78533 3.09377,-6.516 z" id="path39" fill="url(#WingGradpath39)"/><path style="" d="m 72.836343,187.24693 c -0.434194,0.2171 -8.03262,3.14792 -8.03262,3.14792 -9.056354,9.41413 -13.610278,17.23362 -16.130946,26.96563 -0.148446,0.57314 0.222033,0.98771 0.809988,1.04684 3.553805,0.35739 9.84332,3.59679 12.392729,5.29384 0.574909,0.3827 0.496934,0.17872 0.610411,-0.82139 0.787777,-6.94294 7.859262,-31.57924 10.350438,-35.63284 z" id="path40" fill="url(#WingGradpath40)"/><path style="" d="m 60.787411,190.06921 -7.272779,0.65129 c -9.714271,5.24653 -15.487084,10.49307 -19.430261,15.7396 5.26412,1.13861 9.772563,3.2596 12.157482,8.14117 3.019575,-7.61928 8.058473,-15.7572 14.545558,-24.53206 z" id="path41" fill="url(#WingGradpath41)"/><path style="" d="m 42.985383,182.90498 c -5.521015,2.4674 -14.984651,4.10478 -15.631049,7.59842 6.737406,5.21641 6.578651,8.22525 7.164231,10.8549 l 15.196852,-12.48313 c -1.902605,-1.85528 -1.702308,-2.29838 -6.730034,-5.97019 z" id="path43" fill="url(#WingGradpath43)"/><path style="" d="m 48.685038,173.21573 -4.288519,6.43278 -14.545558,5.97019 c 2.759207,-1.92104 2.061049,-6.72287 1.08549,-12.37458 0,0 12.507678,-0.77731 17.054498,-1.19163 0.896928,-0.0817 1.203202,0.39957 0.694089,1.16324 z" id="path44" fill="url(#WingGradpath44)"/><path style="" d="m 57.972159,164.86562 c -0.140987,-0.4873 -1.191612,-0.76469 -2.612196,-0.95671 h 0.217099 c -1.58259,0.50463 -15.385443,-1.32749 -19.41789,-2.17503 -0.6183,-0.12996 -1.307728,0.14919 -1.56661,0.72993 l -3.078815,6.90652 a 0.70286706,0.70286706 55.431312 0 0 0.680761,0.98798 l 20.451733,-1.1305 3.644219,-2.62723 c 0.5652,-0.40747 1.865102,-1.10105 1.681699,-1.73496 z" id="path45" fill="url(#WingGradpath45)"/></g></svg></g><g class="cpTail"><ellipse cx="300" cy="438" rx="23" ry="152" fill="url(#cpTailGrad)"/></g><g id="antenneL"><path d="M 294 222 Q346 205 205 130 T400 49 " stroke="black" fill="transparent" stroke-width="2"/><circle cx="400" cy="49" r="4" fill="black"/></g><g id="antenneR" transform="matrix(-1 0 0 1 600 0)"><path d="M 294 222 Q346 205 205 130 T400 49 " stroke="black" fill="transparent" stroke-width="2"/><circle cx="400" cy="49" r="4" fill="black"/></g><g class="cpBody"><ellipse cx="300" cy="329" rx="46" ry="101" fill="url(#cpBodyGrad)"/></g></svg>